SplineFontDB: 3.0
FontName: Amatic-Bold
FullName: Amatic Bold
FamilyName: Amatic
Weight: Regular
Copyright: Digitized data Copyright (c) 2011-2013, vernon adams.
Version: 2.000
ItalicAngle: 0
UnderlinePosition: 0
UnderlineWidth: 0
Ascent: 1536
Descent: 512
UFOAscent: 1536
UFODescent: -512
LayerCount: 2
Layer: 0 0 "Back"  1
Layer: 1 0 "Fore"  0
FSType: 0
OS2Version: 0
OS2_WeightWidthSlopeOnly: 0
OS2_UseTypoMetrics: 1
CreationTime: 1392064503
ModificationTime: 1392065420
PfmFamily: 17
TTFWeight: 700
TTFWidth: 3
LineGap: 0
VLineGap: 0
OS2TypoAscent: 2384
OS2TypoAOffset: 0
OS2TypoDescent: -505
OS2TypoDOffset: 0
OS2TypoLinegap: 0
OS2WinAscent: 2384
OS2WinAOffset: 0
OS2WinDescent: 505
OS2WinDOffset: 0
HheadAscent: 2384
HheadAOffset: 0
HheadDescent: -505
HheadDOffset: 0
OS2Vendor: 'NeWT'
Lookup: 258 0 0 "kernHorizontalKerninginLatinloo"  {"kernHorizontalKerninginLatinloo subtable"  } []
MarkAttachClasses: 1
DEI: 91125
LangName: 1033 "" "" "" "" "" "Version 2.000" "" "Amatic is a trademark of Vernon Adams and may be registered in certain jurisdictions." "newtypography" "Vernon Adams" "" "newtypography.co.uk" "newtypography.co.uk" "Copyright (c) 2013, vernon adams.+AAoACgAA-This Font Software is licensed under the SIL Open Font License, Version 1.1.+AAoA-This license is copied below, and is also available with a FAQ at:+AAoA-http://scripts.sil.org/OFL+AAoA" "http://scripts.sil.org/OFL" "" "Amatic" "Regular" 
PickledData: "(dp1
S'public.glyphOrder'
p2
(S'A'
S'Aacute'
p3
S'Abreve'
p4
S'Acaron'
p5
S'Acircumflex'
p6
S'Adblgrave'
p7
S'Adieresis'
p8
S'Adotaccent'
p9
S'Agrave'
p10
S'Ainvertedbreve'
p11
S'Amacron'
p12
S'Aogonek'
p13
S'Aring'
p14
S'Aringacute'
p15
S'Atilde'
p16
S'AE'
p17
S'AEacute'
p18
S'AEmacron'
p19
S'B'
S'Bdotaccent'
p20
S'C'
S'Cacute'
p21
S'Ccaron'
p22
S'Ccedilla'
p23
S'Ccircumflex'
p24
S'Cdotaccent'
p25
S'D'
S'DZ'
p26
S'DZcaron'
p27
S'Eth'
p28
S'Dcaron'
p29
S'Dcroat'
p30
S'Ddotaccent'
p31
S'Dz'
p32
S'Dzcaron'
p33
S'E'
S'Eacute'
p34
S'Ebreve'
p35
S'Ecaron'
p36

StartChar: A
Encoding: 65 65 0
Width: 846
VWidth: 0
Flags: HW
PickledData: "(dp1
S'lstem'
p2
I0
sS'com.fontlab.hintData'
p3
(dp4
S'vhints'
p5
((dp6
S'position'
p7
I562
sS'width'
p8
I90
s(dp9
g7
I564
sg8
I131
stp10
sS'hhints'
p11
((dp12
g7
I1
sg8
I21
stp13
ss."
HStem: 1 21<607 650.5>
VStem: 562 90 564 131<54 177 47 321>
AnchorPoint: "ogonek" 626 0 basechar 0
AnchorPoint: "top" 527 1536 basechar 0
LayerCount: 2
Fore
SplineSet
494 1236 m 0
 494 1243 494 1249 495 1254 c 1
 447 1204 342 549 338 464 c 1
 397 448 459 441 520 441 c 0
 533 441 550 444 562 447 c 1
 552 576 494 1110 494 1236 c 0
572 1525 m 1
 572 1370 652 897 652 710 c 0
 652 521 695 284 695 70 c 0
 695 24 674 1 627 1 c 0
 587 1 564 13 564 54 c 2
 564 321 l 1
 520 351 381 369 325 373 c 1
 274 286 282 117 224 23 c 1
 192 23 143 26 134 64 c 1
 205 167 353 1543 506 1543 c 0
 528 1543 554 1539 572 1525 c 1
EndSplineSet
EndChar

StartChar: AE
Encoding: 198 198 1
Width: 1026
VWidth: 0
Flags: HW
PickledData: "(dp1
S'com.fontlab.hintData'
p2
(dp3
S'vhints'
p4
((dp5
S'position'
p6
I535
sS'width'
p7
I95
stp8
sS'hhints'
p9
((dp10
g6
I-43
sg7
I21
s(dp11
g6
I-12
sg7
I94
s(dp12
g6
I621
sg7
I114
s(dp13
g6
I621
sg7
I95
s(dp14
g6
I1450
sg7
I104
stp15
ss."
HStem: -43 21<567 567> -12 94 621 114<702 782 702 782> 621 95 1450 104<717.5 810>
VStem: 535 95<1091 1174.5>
LayerCount: 2
Fore
SplineSet
522 2 m 1
 524 3 l 1
 532 86 541 169 541 253 c 0
 541 380 531 506 531 633 c 1
 472 628 411 630 354 611 c 1
 253 226 l 2
 240 178 225 1 158 1 c 0
 135 1 118 27 118 48 c 0
 118 288 384 1103 470 1380 c 0
 487 1437 509 1544 586 1544 c 0
 639 1544 691 1554 744 1554 c 0
 781 1554 831 1546 831 1498 c 2
 831 1492 l 1
 810 1450 l 1
 745 1450 680 1447 616 1440 c 1
 618 1349 630 1258 630 1166 c 0
 630 1016 624 866 624 716 c 1
 674 720 722 735 772 735 c 2
 782 735 l 1
 824 687 l 1
 824 629 757 621 711 621 c 2
 702 621 l 1
 623 622 l 1
 624 442 629 262 629 82 c 1
 705 83 780 103 856 103 c 0
 885 103 924 87 924 53 c 0
 924 -8 760 -12 680 -12 c 2
 648 -12 l 2
 618 -12 596 -38 567 -43 c 1
 522 2 l 1
527 706 m 1
 529 855 535 1004 535 1153 c 0
 535 1196 535 1240 533 1283 c 1
 474 1087 416 889 374 688 c 1
 425 691 477 695 527 706 c 1
EndSplineSet
EndChar

StartChar: B
Encoding: 66 66 18
Width: 774
VWidth: 0
Flags: HW
PickledData: "(dp1
S'lstem'
p2
I0
sS'com.fontlab.hintData'
p3
(dp4
S'vhints'
p5
((dp6
S'position'
p7
I182
sS'width'
p8
I111
s(dp9
g7
I186
sg8
I124
s(dp10
g7
I469
sg8
I100
s(dp11
g7
I529
sg8
I106
stp12
sS'hhints'
p13
((dp14
g7
I-17
sg8
I21
s(dp15
g7
I1421
sg8
I116
stp16
ss."
HStem: -17 21<263.5 282 282 290> 1421 116<307.5 359 222 363>
VStem: 182 111<1279 1382 1279 1411> 186 124<90 118> 469 100<1173 1246 1246 1283.5> 529 106<328 455.5 328 543>
AnchorPoint: "top" 407 1536 basechar 0
LayerCount: 2
Fore
SplineSet
635 374 m 0
 635 282 546 -17 290 -17 c 2
 282 -17 l 2
 245 -17 186 -15 186 34 c 0
 186 202 196 370 196 538 c 0
 196 815 182 1093 182 1370 c 2
 182 1382 l 2
 182 1440 185 1537 259 1537 c 0
 459 1537 569 1392 569 1201 c 0
 569 1075 492 924 403 859 c 1
 585 737 635 537 635 374 c 0
529 369 m 0
 529 717 373 769 373 769 c 1
 300 769 l 1
 308 543 310 316 310 90 c 1
 451 112 529 232 529 369 c 0
322 1421 m 0
 293 1421 293 1376 293 1357 c 0
 293 1201 300 1044 301 888 c 1
 394 909 438 1095 469 1173 c 1
 469 1246 l 2
 469 1321 404 1421 322 1421 c 0
EndSplineSet
EndChar

StartChar: C
Encoding: 67 67 20
Width: 918
VWidth: 0
Flags: HW
PickledData: "(dp1
S'lstem'
p2
I0
sS'com.fontlab.hintData'
p3
(dp4
S'vhints'
p5
((dp6
S'position'
p7
I184
sS'width'
p8
I109
stp9
sS'hhints'
p10
((dp11
g7
I-33
sg8
I126
s(dp12
g7
I1443
sg8
I122
stp13
ss."
HStem: -33 126<402 542> 1443 122<495 523 495 495>
VStem: 184 109<1116.5 1376.5>
AnchorPoint: "bot" 490 0 basechar 0
AnchorPoint: "top" 467 1536 basechar 0
LayerCount: 2
Fore
SplineSet
680 166 m 0
 699 166 721 154 740 135 c 1
 740 4 595 -33 489 -33 c 0
 202 -33 174 425 174 792 c 0
 174 882 176 966 176 1037 c 0
 176 1100 178 1164 190 1226 c 1
 186 1248 184 1270 184 1290 c 0
 184 1463 333 1565 510 1565 c 0
 565 1565 653 1531 653 1465 c 0
 653 1434 624 1419 596 1419 c 0
 576 1419 534 1426 523 1444 c 1
 523 1443 l 1
 495 1443 l 1
 495 1448 l 1
 298 1448 293 1294 293 1140 c 0
 293 1093 299 1046 299 999 c 0
 299 951 281 904 281 856 c 2
 281 807 l 2
 281 549 288 93 516 93 c 0
 583 93 627 166 680 166 c 0
EndSplineSet
EndChar

StartChar: D
Encoding: 68 68 26
Width: 882
VWidth: 0
Flags: HW
PickledData: "(dp1
S'lstem'
p2
I0
sS'com.fontlab.hintData'
p3
(dp4
S'vhints'
p5
((dp6
S'position'
p7
I142
sS'width'
p8
I126
s(dp9
g7
I219
sg8
I98
s(dp10
g7
I594
sg8
I105
stp11
sS'hhints'
p12
((dp13
g7
I-5
sg8
I21
s(dp14
g7
I1429
sg8
I123
stp15
ss."
HStem: -5 21<253 399.5> 1429 123<299 330 330 409>
VStem: 142 126<1427 1514.5> 219 98<275 310 114 419.5> 594 105<734.5 773 773 868>
AnchorPoint: "mid" 240 809 basechar 0
AnchorPoint: "top" 357 1536 basechar 0
LayerCount: 2
Fore
SplineSet
274 -5 m 0
 232 -5 174 14 174 65 c 1
 219 112 219 244 219 306 c 0
 219 533 181 758 181 982 c 0
 181 1055 187 1131 187 1206 c 0
 187 1308 142 1400 142 1481 c 0
 142 1548 241 1552 299 1552 c 2
 330 1552 l 2
 693 1552 699 1023 699 868 c 2
 699 773 l 1
 688 754 699 733 699 711 c 0
 699 503 525 -5 274 -5 c 0
317 310 m 2
 317 114 l 1
 534 254 594 615 594 854 c 0
 594 1061 550 1429 268 1429 c 1
 268 1427 l 2
 269 1054 317 683 317 310 c 2
EndSplineSet
EndChar

StartChar: Delta
Encoding: 916 916 30
Width: 758
VWidth: 0
Flags: HW
LayerCount: 2
Fore
SplineSet
213 105 m 1
 239 96 442 94 505 94 c 0
 512 94 522 93 531 93 c 0
 551 93 571 96 571 113 c 0
 571 420 494 1272 481 1389 c 0
 479 1405 473 1420 473 1436 c 1
 454 1382 438 1298 429 1253 c 0
 416 1178 370 859 325 664 c 0
 309 590 213 144 213 117 c 2
 213 105 l 1
573 0 m 2
 522 0 234 5 195 5 c 2
 165 5 l 2
 146 5 123 20 123 39 c 0
 123 41 124 43 124 45 c 0
 134 84 200 383 220 471 c 0
 281 737 313 1008 372 1274 c 0
 380 1313 431 1536 468 1536 c 0
 488 1536 503 1532 515 1516 c 0
 535 1485 579 1010 585 940 c 2
 613 600 l 1
 613 422 636 244 636 66 c 2
 636 57 l 2
 636 24 634 0 591 0 c 2
 573 0 l 2
EndSplineSet
EndChar

StartChar: E
Encoding: 69 69 31
Width: 738
VWidth: 0
Flags: HW
PickledData: "(dp1
S'lstem'
p2
I0
sS'com.fontlab.hintData'
p3
(dp4
S'vhints'
p5
((dp6
S'position'
p7
I182
sS'width'
p8
I123
s(dp9
g7
I210
sg8
I110
stp10
sS'hhints'
p11
((dp12
g7
I-12
sg8
I117
s(dp13
g7
I750
sg8
I120
s(dp14
g7
I1423
sg8
I128
stp15
ss."
HStem: -12 117<288 320 320 320 320 376> 750 120<406.5 422 390.5 430> 1423 128<376 403 359.5 407>
VStem: 182 123<1367.5 1461 1367.5 1461> 210 110<105 737 105 1245>
AnchorPoint: "bot" 360 0 basechar 0
AnchorPoint: "ogonek" 406 0 basechar 0
AnchorPoint: "top" 347 1536 basechar 0
LayerCount: 2
Fore
SplineSet
551 50 m 1
 520 -11 435 -12 376 -12 c 2
 312 -12 l 2
 264 -12 210 -10 210 55 c 2
 210 1245 l 2
 210 1316 182 1383 182 1454 c 2
 182 1461 l 1
 197 1486 211 1513 233 1533 c 1
 284 1533 334 1551 385 1551 c 0
 421 1551 479 1527 479 1484 c 0
 479 1432 428 1423 386 1423 c 0
 366 1423 347 1425 327 1425 c 0
 320 1425 312 1425 305 1424 c 1
 305 1311 321 1199 321 1086 c 0
 321 1008 312 930 311 852 c 1
 343 858 374 870 407 870 c 0
 437 870 467 844 467 813 c 0
 467 782 447 750 413 750 c 0
 400 750 381 752 362 752 c 0
 341 752 330 749 320 737 c 1
 320 105 l 1
 355 107 399 111 434 111 c 0
 470 111 551 108 551 57 c 2
 551 50 l 1
EndSplineSet
EndChar

StartChar: Eng
Encoding: 330 330 42
Width: 972
VWidth: 0
Flags: HW
PickledData: "(dp1
S'lstem'
p2
I0
sS'com.fontlab.hintData'
p3
(dp4
S'vhints'
p5
((dp6
S'position'
p7
I182
sS'width'
p8
I104
s(dp9
g7
I198
sg8
I117
s(dp10
g7
I663
sg8
I122
s(dp11
g7
I663
sg8
I97
stp12
sS'hhints'
p13
((dp14
g7
I-2
sg8
I21
s(dp15
g7
I1544
sg8
I20
stp16
ss."
HStem: -2 21<231 259.5> 1544 20<222.5 303>
VStem: 182 104<812 1073 1073 1135.5> 198 117<29 47.5> 663 122<1504 1516 1504 1545 1504 1545> 663 97<939 1444>
LayerCount: 2
Fore
SplineSet
657 -113 m 0
 657 -65 658 -17 658 32 c 1
 565 234 389 887 286 1298 c 1
 286 626 l 2
 286 431 315 237 315 42 c 0
 315 16 276 -2 243 -2 c 0
 219 -2 198 7 198 30 c 0
 198 65 208 109 208 177 c 0
 208 371 182 688 182 812 c 2
 182 1073 l 2
 182 1198 196 1324 196 1449 c 2
 196 1462 l 2
 196 1508 204 1564 241 1564 c 0
 365 1564 654 228 655 225 c 1
 655 463 663 701 663 939 c 2
 663 1545 l 1
 671 1580 697 1596 730 1596 c 0
 775 1596 785 1553 785 1516 c 2
 785 1504 l 1
 776 1485 760 1465 760 1444 c 2
 760 42 l 2
 760 -271 735 -236 549 -388 c 1
 509 -388 475 -369 475 -325 c 0
 475 -226 657 -240 657 -113 c 0
EndSplineSet
EndChar

StartChar: Euro
Encoding: 8364 8364 46
Width: 918
VWidth: 0
Flags: HW
PickledData: "(dp1
S'com.fontlab.hintData'
p2
(dp3
S'vhints'
p4
((dp5
S'position'
p6
I190
sS'width'
p7
I117
stp8
sS'hhints'
p9
((dp10
g6
I-33
sg7
I126
s(dp11
g6
I654
sg7
I70
s(dp12
g6
I808
sg7
I69
s(dp13
g6
I1448
sg7
I117
stp14
ss."
HStem: -33 126<501.5 555 501.5 556> 654 70<181 201> 808 69<147 192 147 193 121 192> 1448 117<435 522>
VStem: 190 117<1011 1217>
LayerCount: 2
Fore
SplineSet
505 700 m 0
 505 657 408 652 347 652 c 0
 330 652 315 653 307 653 c 1
 313 578 342 209 376 160 c 0
 410 111 473 93 530 93 c 0
 580 93 629 113 662 152 c 1
 684 152 706 155 727 162 c 1
 754 135 l 1
 754 4 609 -33 503 -33 c 0
 193 -33 213 450 201 654 c 1
 122 657 l 1
 114 664 109 677 109 687 c 0
 109 721 151 724 181 724 c 2
 197 724 l 1
 193 808 l 1
 121 808 l 1
 107 813 102 833 102 845 c 0
 102 876 121 877 147 877 c 2
 192 877 l 1
 192 930 190 984 190 1038 c 0
 190 1101 193 1164 204 1226 c 1
 200 1248 198 1269 198 1289 c 0
 198 1462 346 1565 524 1565 c 0
 580 1565 667 1531 667 1465 c 0
 667 1434 638 1419 610 1419 c 0
 573 1419 535 1448 509 1448 c 0
 312 1448 307 1294 307 1140 c 0
 307 1047 306 972 296 879 c 1
 305 879 331 880 361 880 c 0
 420 880 498 876 498 852 c 0
 498 841 492 828 484 821 c 1
 422 814 359 813 296 811 c 1
 301 725 l 1
 364 726 428 726 491 731 c 1
 499 724 505 711 505 700 c 0
EndSplineSet
EndChar

StartChar: F
Encoding: 70 70 47
Width: 702
VWidth: 0
Flags: HW
PickledData: "(dp1
S'lstem'
p2
I0
sS'com.fontlab.hintData'
p3
(dp4
S'vhints'
p5
((dp6
S'position'
p7
I236
sS'width'
p8
I128
stp9
sS'hhints'
p10
((dp11
g7
I-2
sg8
I21
s(dp12
g7
I1442
sg8
I112
stp13
ss."
HStem: -2 21<267.5 316> 1442 112<338 362.5>
VStem: 236 128<38.5 206>
AnchorPoint: "top" 347 1536 basechar 0
LayerCount: 2
Fore
SplineSet
360 81 m 0
 363 72 364 64 364 56 c 0
 364 21 337 -2 295 -2 c 0
 240 -2 236 90 236 129 c 0
 236 283 206 1390 174 1440 c 1
 174 1550 289 1554 372 1554 c 0
 424 1554 459 1544 459 1484 c 0
 459 1453 429 1440 402 1440 c 0
 393 1440 373 1442 352 1442 c 0
 324 1442 295 1438 295 1419 c 0
 295 1235 324 1053 326 869 c 1
 364 876 401 891 440 891 c 0
 472 891 496 858 496 828 c 0
 496 762 371 764 326 761 c 1
 326 538 365 317 365 94 c 0
 365 90 361 85 360 81 c 0
EndSplineSet
EndChar

StartChar: G
Encoding: 71 71 49
Width: 914
VWidth: 0
Flags: HW
PickledData: "(dp1
S'lstem'
p2
I0
sS'com.fontlab.hintData'
p3
(dp4
S'vhints'
p5
((dp6
S'position'
p7
I175
sS'width'
p8
I108
s(dp9
g7
I685
sg8
I118
stp10
sS'hhints'
p11
((dp12
g7
I-54
sg8
I105
s(dp13
g7
I363
sg8
I126
s(dp14
g7
I1495
sg8
I96
stp15
ss."
HStem: -54 105<415.5 562> 363 126<549.5 705.5> 1495 96<393 507>
VStem: 175 108<587.5 643.5 508.5 732> 685 118<2 4 4 4>
AnchorPoint: "bot" 530 0 basechar 0
AnchorPoint: "top" 507 1536 basechar 0
LayerCount: 2
Fore
SplineSet
685 2 m 1
 685 4 l 1
 636 -18 590 -54 534 -54 c 0
 184 -54 175 464 175 711 c 0
 175 753 174 805 174 862 c 0
 174 1158 200 1591 525 1591 c 0
 563 1591 610 1580 610 1533 c 0
 610 1503 584 1485 556 1485 c 0
 536 1485 517 1495 497 1495 c 0
 289 1495 284 927 284 744 c 0
 284 709 283 670 283 617 c 0
 283 400 301 51 530 51 c 0
 596 51 644 84 681 137 c 1
 680 190 672 329 648 371 c 1
 626 369 596 363 568 363 c 0
 531 363 498 374 498 421 c 0
 498 477 635 489 675 489 c 0
 736 489 762 434 762 380 c 0
 762 257 803 138 803 15 c 0
 803 -14 784 -41 753 -41 c 0
 724 -41 696 -26 685 2 c 1
EndSplineSet
EndChar

StartChar: H
Encoding: 72 72 56
Width: 810
VWidth: 0
Flags: HW
PickledData: "(dp1
S'lstem'
p2
I0
sS'com.fontlab.hintData'
p3
(dp4
S'vhints'
p5
((dp6
S'position'
p7
I174
sS'width'
p8
I127
s(dp9
g7
I174
sg8
I112
s(dp10
g7
I481
sg8
I100
s(dp11
g7
I508
sg8
I112
stp12
sS'hhints'
p13
((dp14
g7
I-31
sg8
I21
s(dp15
g7
I769
sg8
I55
s(dp16
g7
I1530
sg8
I20
stp17
ss."
HStem: -31 21<540.5 578.5> 769 55 1530 20<481 530>
VStem: 174 127 174 112 481 100<1168 1550> 508 112<26.5 157.5>
AnchorPoint: "top" 387 1536 basechar 0
LayerCount: 2
Fore
SplineSet
174 1510 m 0
 174 1537 189 1547 209 1547 c 0
 236 1547 270 1529 281 1514 c 1
 276 1462 274 1411 274 1360 c 0
 274 1220 288 1079 288 939 c 0
 288 914 286 888 286 862 c 0
 286 844 287 827 290 809 c 1
 357 811 422 822 489 824 c 1
 488 1048 481 1272 481 1496 c 2
 481 1550 l 1
 579 1550 581 1469 581 1393 c 0
 581 943 620 491 620 43 c 0
 620 10 597 -31 560 -31 c 0
 521 -31 508 4 508 37 c 0
 508 278 503 519 490 759 c 1
 468 763 445 769 422 769 c 0
 381 769 339 769 301 753 c 1
 302 521 335 291 335 59 c 0
 335 34 319 5 291 5 c 0
 176 5 174 1319 174 1510 c 0
EndSplineSet
EndChar

StartChar: I
Encoding: 73 73 59
Width: 702
VWidth: 0
Flags: HW
PickledData: "(dp1
S'lstem'
p2
I0
sS'com.fontlab.hintData'
p3
(dp4
S'vhints'
p5
((dp6
S'position'
p7
I247
sS'width'
p8
I93
s(dp9
g7
I285
sg8
I105
stp10
sS'hhints'
p11
((dp12
g7
I3
sg8
I110
s(dp13
g7
I1442
sg8
I111
stp14
ss."
HStem: 3 110<196 357.5> 1442 111<408 418.5 377 430>
VStem: 247 93<947 1419> 285 105<138 203 124 316>
AnchorPoint: "ogonek" 346 0 basechar 0
AnchorPoint: "top" 317 1536 basechar 0
LayerCount: 2
Fore
SplineSet
466 8 m 1
 446 8 388 3 327 3 c 0
 241 3 150 13 150 64 c 0
 150 101 180 113 212 113 c 0
 229 113 243 110 255 110 c 0
 274 110 285 118 285 158 c 0
 285 474 247 789 247 1105 c 0
 247 1175 251 1244 251 1314 c 0
 251 1352 250 1390 246 1428 c 1
 231 1423 213 1419 198 1419 c 0
 171 1419 150 1430 150 1468 c 0
 150 1540 351 1553 403 1553 c 0
 434 1553 463 1529 463 1497 c 0
 463 1470 445 1442 415 1442 c 0
 401 1442 389 1443 379 1443 c 0
 355 1443 340 1437 340 1401 c 0
 340 1001 390 603 390 203 c 2
 390 124 l 1
 404 126 418 127 432 127 c 0
 477 127 517 113 517 55 c 2
 517 43 l 1
 466 8 l 1
EndSplineSet
EndChar

StartChar: J
Encoding: 74 74 73
Width: 720
VWidth: 0
Flags: HW
PickledData: "(dp1
S'lstem'
p2
I55
sS'com.fontlab.hintData'
p3
(dp4
S'vhints'
p5
((dp6
S'position'
p7
I394
sS'width'
p8
I110
stp9
sS'hhints'
p10
((dp11
g7
I1445
sg8
I108
stp12
ss."
HStem: 1445 108<444 470 470 471 443 470>
VStem: 394 110
AnchorPoint: "top" 407 1536 basechar 0
LayerCount: 2
Fore
SplineSet
340 1445 m 1
 311 1439 281 1429 251 1429 c 0
 223 1429 199 1453 199 1481 c 0
 199 1553 395 1553 444 1553 c 2
 470 1553 l 2
 512 1553 562 1548 562 1497 c 0
 562 1453 512 1444 477 1444 c 0
 475 1444 473 1445 471 1445 c 2
 443 1445 l 1
 443 1429 l 2
 443 1323 467 1218 467 1112 c 0
 467 846 504 581 504 315 c 0
 504 260 503 207 503 152 c 0
 503 0 440 -147 305 -194 c 1
 265 -194 231 -175 231 -131 c 0
 231 -94 281 -61 311 -48 c 1
 339 -12 393 102 393 241 c 0
 393 307 396 374 396 441 c 0
 396 469 395 497 394 525 c 0
 384 706 378 1025 340 1445 c 1
EndSplineSet
EndChar

StartChar: Jcircumflex
Encoding: 308 308 74
Width: 1098
VWidth: 0
Flags: HW
PickledData: "(dp1
S'lstem'
p2
I0
sS'com.fontlab.hintData'
p3
(dp4
S'vhints'
p5
((dp6
S'position'
p7
I809
sS'width'
p8
I93
stp9
sS'hhints'
p10
((dp11
g7
I711
sg8
I124
s(dp12
g7
I733
sg8
I115
stp13
ss."
HStem: 711 124<155 375.5> 733 115<636.5 870>
VStem: 809 93<564 720>
LayerCount: 2
Fore
SplineSet
169 711 m 0
 141 711 118 735 118 763 c 0
 118 822 229 835 336 835 c 0
 415 835 491 828 519 828 c 0
 631 828 742 848 854 848 c 0
 886 848 921 824 921 790 c 0
 921 766 914 741 902 720 c 1
 902 658 907 596 926 537 c 1
 922 509 904 475 872 475 c 0
 818 475 809 536 809 592 c 0
 809 618 811 643 811 659 c 0
 811 682 810 705 806 727 c 1
 781 728 755 733 730 733 c 0
 543 733 356 711 169 711 c 0
EndSplineSet
EndChar

StartChar: K
Encoding: 75 75 75
Width: 864
VWidth: 0
Flags: HW
PickledData: "(dp1
S'lstem'
p2
I0
sS'com.fontlab.hintData'
p3
(dp4
S'vhints'
p5
((dp6
S'position'
p7
I174
sS'width'
p8
I130
s(dp9
g7
I201
sg8
I90
s(dp10
g7
I611
sg8
I113
stp11
sS'hhints'
p12
((dp13
g7
I-27
sg8
I20
stp14
ss."
HStem: -27 20<205 268>
VStem: 174 130<90 102 102 200> 201 90<586.5 707> 611 113
AnchorPoint: "bot" 430 0 basechar 0
AnchorPoint: "top" 417 1536 basechar 0
LayerCount: 2
Fore
SplineSet
174 1476 m 0
 174 1509 197 1541 232 1541 c 0
 306 1541 308 1426 308 1375 c 0
 308 1235 302 1094 299 954 c 1
 338 1045 536 1596 606 1596 c 0
 636 1596 664 1574 664 1542 c 0
 664 1497 453 1108 427 991 c 1
 427 955 l 1
 463 864 724 48 724 11 c 0
 724 -23 691 -48 659 -48 c 0
 643 -48 627 -41 611 -40 c 1
 556 272 493 590 361 880 c 1
 307 776 291 769 291 650 c 0
 291 523 304 397 304 270 c 2
 304 102 l 2
 304 78 302 -7 234 -7 c 0
 176 -7 174 67 174 108 c 0
 174 292 201 476 201 660 c 0
 201 754 204 905 204 1049 c 0
 204 1238 174 1347 174 1476 c 0
EndSplineSet
EndChar

StartChar: L
Encoding: 76 76 78
Width: 622
VWidth: 0
Flags: HW
PickledData: "(dp1
S'lstem'
p2
I0
sS'com.fontlab.hintData'
p3
(dp4
S'vhints'
p5
((dp6
S'position'
p7
I182
sS'width'
p8
I112
s(dp9
g7
I210
sg8
I315
s(dp10
g7
I223
sg8
I102
stp11
sS'hhints'
p12
((dp13
g7
I-23
sg8
I21
s(dp14
g7
I-4
sg8
I119
s(dp15
g7
I1551
sg8
I20
stp16
ss."
HStem: -23 21<262 289.5> -4 119<468 481 325 488.5> 1551 20<219.5 248.5>
VStem: 182 112<1389 1529 1389 1542.5> 210 315<39.5 57.5> 223 102<116.5 167 115 365>
AnchorPoint: "bot" 370 0 basechar 0
AnchorPoint: "top" 237 1536 basechar 0
LayerCount: 2
Fore
SplineSet
325 115 m 1
 481 115 l 1
 503 100 525 83 525 54 c 0
 525 25 504 -4 473 -4 c 0
 463 -4 451 1 442 3 c 0
 429 0 416 -1 403 -1 c 0
 381 -1 359 2 337 2 c 1
 323 -15 300 -23 279 -23 c 0
 245 -23 210 7 210 42 c 0
 210 73 223 101 223 132 c 0
 223 598 182 1063 182 1529 c 0
 182 1556 207 1571 232 1571 c 0
 265 1571 294 1546 294 1512 c 0
 294 1266 315 1019 315 775 c 0
 315 758 318 742 318 725 c 0
 318 720 318 715 317 710 c 2
 317 701 l 1
 325 523 325 345 325 167 c 2
 325 115 l 1
EndSplineSet
EndChar

StartChar: Lslash
Encoding: 321 321 84
Width: 756
VWidth: 0
Flags: HW
PickledData: "(dp1
S'lstem'
p2
I0
sS'com.fontlab.hintData'
p3
(dp4
S'vhints'
p5
((dp6
S'position'
p7
I230
sS'width'
p8
I112
s(dp9
g7
I253
sg8
I113
s(dp10
g7
I271
sg8
I102
stp11
sS'hhints'
p12
((dp13
g7
I2
sg8
I113
s(dp14
g7
I754
sg8
I119
s(dp15
g7
I1551
sg8
I20
stp16
ss."
HStem: 2 113<376.5 396> 754 119 1551 20<267.5 296.5>
VStem: 230 112<1419.5 1529 1410.5 1542.5> 253 113 271 102<116.5 167 115 238>
LayerCount: 2
Fore
SplineSet
576 897 m 0
 576 842 471 813 363 797 c 1
 363 795 l 2
 363 773 366 752 366 730 c 0
 366 723 366 717 365 710 c 2
 365 701 l 1
 373 523 373 345 373 167 c 2
 373 115 l 1
 529 115 l 1
 551 100 573 83 573 54 c 0
 573 25 552 -4 521 -4 c 0
 511 -4 499 1 490 3 c 0
 477 0 464 -1 451 -1 c 0
 429 -1 407 2 385 2 c 0
 368 2 342 5 317 5 c 0
 288 5 258 22 258 42 c 0
 258 73 271 101 271 132 c 0
 271 344 262 556 253 768 c 1
 229 757 210 754 201 754 c 0
 168 754 134 774 134 803 c 0
 134 838 187 860 248 873 c 1
 239 1092 230 1310 230 1529 c 0
 230 1556 255 1571 280 1571 c 0
 313 1571 342 1546 342 1512 c 0
 342 1309 357 1106 362 904 c 1
 442 939 510 949 538 949 c 0
 556 949 576 929 576 897 c 0
EndSplineSet
EndChar

StartChar: M
Encoding: 77 77 85
Width: 1044
VWidth: 0
Flags: HW
PickledData: "(dp1
S'lstem'
p2
I0
sS'com.fontlab.hintData'
p3
(dp4
S'vhints'
p5
((dp6
S'position'
p7
I182
sS'width'
p8
I121
s(dp9
g7
I185
sg8
I101
s(dp10
g7
I441
sg8
I164
s(dp11
g7
I707
sg8
I121
s(dp12
g7
I739
sg8
I126
stp13
sS'hhints'
p14
((dp15
g7
I-54
sg8
I21
s(dp16
g7
I1534
sg8
I20
stp17
ss."
HStem: -54 21<772 802> 1534 20<245 245>
VStem: 182 121<100 187.5> 185 101 441 164<401 414 401 536.5> 707 121<1517 1529 1529 1529> 739 126<32.5 170.5>
AnchorPoint: "top" 517 1536 basechar 0
LayerCount: 2
Fore
SplineSet
707 1517 m 1
 707 1529 l 1
 713 1565 745 1587 780 1587 c 0
 806 1587 828 1560 828 1535 c 0
 828 1045 865 557 865 67 c 0
 865 -2 820 -54 784 -54 c 0
 760 -54 739 -30 739 27 c 0
 739 314 731 602 731 889 c 2
 731 993 l 1
 696 801 631 605 605 414 c 1
 605 401 l 1
 594 347 592 222 514 222 c 0
 441 222 441 364 441 413 c 0
 441 660 344 931 290 1172 c 1
 288 1090 286 1007 286 925 c 0
 286 644 303 364 303 83 c 0
 303 54 292 27 272 6 c 1
 194 6 182 68 182 132 c 0
 182 243 192 353 192 464 c 0
 192 729 185 993 185 1257 c 0
 185 1346 186 1434 188 1522 c 1
 245 1554 l 1
 354 1546 498 674 529 528 c 1
 597 850 688 1188 707 1517 c 1
EndSplineSet
EndChar

StartChar: N
Encoding: 78 78 87
Width: 972
VWidth: 0
Flags: HW
PickledData: "(dp1
S'lstem'
p2
I0
sS'com.fontlab.hintData'
p3
(dp4
S'vhints'
p5
((dp6
S'position'
p7
I182
sS'width'
p8
I104
s(dp9
g7
I198
sg8
I117
s(dp10
g7
I663
sg8
I122
s(dp11
g7
I663
sg8
I97
stp12
sS'hhints'
p13
((dp14
g7
I-9
sg8
I7
s(dp15
g7
I1544
sg8
I20
stp16
ss."
HStem: -9 7 1544 20<222.5 303>
VStem: 182 104<812 1073 1073 1135.5> 198 117<29 47.5> 663 122<1504 1516 1504 1545 1504 1545> 663 97
AnchorPoint: "bot" 490 0 basechar 0
AnchorPoint: "top" 489 1536 basechar 0
LayerCount: 2
Fore
SplineSet
655 225 m 1
 655 463 663 701 663 939 c 2
 663 1545 l 1
 671 1580 697 1596 730 1596 c 0
 775 1596 785 1553 785 1516 c 2
 785 1504 l 1
 776 1485 773 1465 773 1444 c 0
 773 1193 760 939 760 687 c 2
 760 61 l 2
 760 25 737 -30 701 -30 c 0
 636 -30 409 808 286 1298 c 1
 286 626 l 2
 286 431 315 237 315 42 c 0
 315 16 276 -2 243 -2 c 0
 219 -2 198 7 198 30 c 0
 198 65 208 109 208 177 c 0
 208 371 182 688 182 812 c 2
 182 1073 l 2
 182 1198 196 1324 196 1449 c 2
 196 1462 l 2
 196 1508 204 1564 241 1564 c 0
 365 1564 654 228 655 225 c 1
EndSplineSet
EndChar

StartChar: O
Encoding: 79 79 93
Width: 900
VWidth: 0
Flags: HW
PickledData: "(dp1
S'lstem'
p2
I0
sS'com.fontlab.hintData'
p3
(dp4
S'vhints'
p5
((dp6
S'position'
p7
I186
sS'width'
p8
I95
s(dp9
g7
I621
sg8
I93
stp10
sS'hhints'
p11
((dp12
g7
I-57
sg8
I112
s(dp13
g7
I1477
sg8
I108
stp14
ss."
HStem: -57 112<408.5 547> 1477 108<349 515.5>
VStem: 186 95 621 93<607 618 618 725>
AnchorPoint: "ogonek" 526 0 basechar 0
AnchorPoint: "top" 417 1536 basechar 0
LayerCount: 2
Fore
SplineSet
415 1477 m 0
 283 1477 281 979 281 861 c 2
 281 852 l 2
 281 720 326 55 491 55 c 0
 609 55 621 561 621 653 c 0
 621 797 616 1477 415 1477 c 0
405 1585 m 0
 698 1585 714 1071 714 736 c 2
 714 618 l 2
 714 531 697 446 696 359 c 2
 696 350 l 1
 686 306 683 261 683 215 c 0
 683 113 607 -57 487 -57 c 0
 215 -57 189 609 189 799 c 0
 189 863 186 948 186 1038 c 0
 186 1290 211 1585 405 1585 c 0
EndSplineSet
EndChar

StartChar: OE
Encoding: 338 338 94
Width: 1260
VWidth: 0
Flags: HW
PickledData: "(dp1
S'com.fontlab.hintData'
p2
(dp3
S'vhints'
p4
((dp5
S'position'
p6
I174
sS'width'
p7
I94
s(dp8
g6
I770
sg7
I96
s(dp9
g6
I811
sg7
I100
stp10
sS'hhints'
p11
((dp12
g6
I-16
sg7
I101
s(dp13
g6
I9
sg7
I103
s(dp14
g6
I758
sg7
I96
s(dp15
g6
I1433
sg7
I92
s(dp16
g6
I1449
sg7
I102
stp17
ss."
HStem: -16 101<1048 1190> 9 103<582.5 647.5 582.5 703> 758 96<920.5 966> 1433 92 1449 102<411 541.5 335.5 568>
VStem: 174 94<623.5 1042> 770 96 811 100
LayerCount: 2
Fore
SplineSet
268 751 m 1
 300 689 280 241 380 232 c 1
 442 158 534 112 631 112 c 0
 664 112 811 122 811 168 c 0
 811 569 776 970 770 1371 c 1
 712 1436 609 1449 527 1449 c 0
 295 1449 268 1127 268 957 c 0
 268 911 269 865 269 820 c 0
 269 797 269 774 268 751 c 1
1044 87 m 1
 1048 85 l 1
 1077 85 l 2
 1131 85 1213 80 1213 25 c 2
 1213 18 l 1
 1190 -16 l 1
 1082 -16 974 -22 866 -22 c 0
 840 -22 792 -6 792 26 c 1
 793 33 l 1
 758 22 722 9 684 9 c 0
 206 9 174 438 174 809 c 0
 174 1032 176 1551 495 1551 c 0
 588 1551 691 1546 772 1494 c 1
 802 1537 l 1
 833 1537 863 1525 894 1525 c 2
 1046 1525 l 2
 1063 1525 1080 1528 1097 1529 c 1
 1119 1517 1144 1498 1144 1470 c 0
 1144 1439 1110 1426 1084 1426 c 0
 1011 1426 939 1432 866 1433 c 1
 866 1294 894 1157 894 1018 c 0
 894 983 890 948 890 913 c 0
 890 894 891 875 895 856 c 1
 957 854 l 1
 966 854 l 2
 983 854 998 855 1011 855 c 0
 1036 855 1056 850 1081 818 c 1
 1081 780 1067 754 1025 754 c 0
 991 754 959 758 925 758 c 0
 916 758 906 758 897 757 c 1
 897 531 910 306 911 80 c 1
 955 83 1000 87 1044 87 c 1
EndSplineSet
EndChar

StartChar: Omega
Encoding: 937 937 105
Width: 840
VWidth: 0
Flags: HW
LayerCount: 2
Fore
SplineSet
543 73 m 1
 614 220 664 491 664 682 c 2
 664 688 l 2
 664 1005 663 1501 371 1501 c 0
 192 1501 169 1202 169 955 c 2
 169 872 l 2
 169 666 215 290 302 67 c 1
 203 69 l 2
 125 69 75 65 75 48 c 0
 75 25 100 13 118 13 c 0
 158 13 260 11 329 11 c 0
 362 11 379 19 379 34 c 0
 379 37 378 41 376 45 c 0
 284 239 230 654 230 761 c 2
 230 861 l 2
 230 989 234 1448 381 1448 c 0
 602 1448 604 904 604 732 c 2
 604 723 l 2
 604 621 549 241 487 41 c 0
 486 38 485 35 485 33 c 0
 485 17 513 13 549 13 c 0
 573 13 601 15 627 15 c 0
 665 15 748 19 748 36 c 0
 748 56 721 71 703 71 c 0
 644 71 598 72 543 73 c 1
EndSplineSet
EndChar

StartChar: Oslash
Encoding: 216 216 107
Width: 900
VWidth: 0
Flags: HW
PickledData: "(dp1
S'com.fontlab.hintData'
p2
(dp3
S'vhints'
p4
((dp5
S'position'
p6
I174
sS'width'
p7
I95
s(dp8
g6
I609
sg7
I94
stp9
sS'hhints'
p10
((dp11
g6
I-57
sg7
I112
s(dp12
g6
I1477
sg7
I108
stp13
ss."
HStem: -57 112<451 535> 1477 108<337 417.5 296 421.5>
VStem: 174 95 609 94<607 855>
LayerCount: 2
Fore
SplineSet
324 47 m 1
 252 -280 l 1
 207 -224 l 1
 269 143 l 1
 188 355 177 676 177 799 c 0
 177 863 174 948 174 1039 c 0
 174 1291 199 1585 393 1585 c 0
 442 1585 484 1571 519 1545 c 1
 564 1799 l 1
 643 1799 l 1
 579 1481 l 1
 694 1313 703 976 703 734 c 0
 703 692 702 653 702 618 c 0
 702 531 685 446 684 359 c 2
 684 350 l 1
 674 306 671 261 671 215 c 0
 671 113 595 -57 475 -57 c 0
 407 -57 365 -18 324 47 c 1
545 1299 m 1
 350 239 l 1
 381 132 423 55 479 55 c 0
 597 55 609 561 609 653 c 0
 609 749 607 1087 545 1299 c 1
403 1477 m 0
 271 1477 269 979 269 861 c 2
 269 852 l 2
 269 785 281 581 314 396 c 1
 496 1415 l 1
 471 1454 440 1477 403 1477 c 0
EndSplineSet
EndChar

StartChar: P
Encoding: 80 80 110
Width: 738
VWidth: 0
Flags: HW
PickledData: "(dp1
S'lstem'
p2
I0
sS'com.fontlab.hintData'
p3
(dp4
S'vhints'
p5
((dp6
S'position'
p7
I209
sS'width'
p8
I117
s(dp9
g7
I461
sg8
I105
stp10
sS'hhints'
p11
((dp12
g7
I-11
sg8
I21
s(dp13
g7
I1546
sg8
I20
stp14
ss."
HStem: -11 21<240 283.5> 1546 20<229 350.5>
VStem: 209 117<52 159> 461 105<1158 1159 1159 1246.5>
AnchorPoint: "top" 367 1536 basechar 0
LayerCount: 2
Fore
SplineSet
461 1158 m 2
 461 1159 l 2
 461 1334 418 1362 281 1459 c 1
 282 1243 304 1027 305 811 c 1
 409 909 461 1014 461 1158 c 2
219 789 m 0
 219 1059 207 1327 166 1520 c 1
 184 1546 213 1566 245 1566 c 0
 456 1566 566 1365 566 1175 c 0
 566 983 484 805 310 712 c 1
 311 499 326 287 326 74 c 0
 326 30 309 -11 258 -11 c 0
 222 -11 209 29 209 58 c 0
 209 260 219 526 219 789 c 0
EndSplineSet
EndChar

StartChar: Q
Encoding: 81 81 112
Width: 918
VWidth: 0
Flags: HW
PickledData: "(dp1
S'lstem'
p2
I0
sS'com.fontlab.hintData'
p3
(dp4
S'vhints'
p5
((dp6
S'position'
p7
I182
sS'width'
p8
I101
s(dp9
g7
I607
sg8
I112
stp10
sS'hhints'
p11
((dp12
g7
I-282
sg8
I113
s(dp13
g7
I1474
sg8
I102
stp14
ss."
HStem: -282 113<680 688 688 705.5> 1474 102<345.5 497.5>
VStem: 182 101<587.5 629.5> 607 112<468 567 567 659 468 793>
LayerCount: 2
Fore
SplineSet
719 659 m 2
 719 567 l 2
 719 369 712 236 593 70 c 1
 603 27 624 -169 680 -169 c 2
 688 -169 l 2
 724 -169 776 -171 776 -219 c 0
 776 -270 726 -282 685 -282 c 0
 654 -282 626 -268 600 -253 c 1
 600 -252 l 1
 502 -207 505 -69 486 20 c 1
 402 20 l 1
 208 149 182 359 182 574 c 0
 182 685 192 797 192 908 c 0
 192 943 190 994 190 1052 c 0
 190 1265 212 1576 416 1576 c 0
 694 1576 721 1186 721 868 c 0
 721 792 719 721 719 659 c 2
399 1474 m 0
 292 1474 283 775 283 653 c 0
 283 522 297 95 474 80 c 1
 474 82 l 1
 484 99 510 108 530 108 c 1
 530 107 l 1
 590 162 607 252 607 327 c 0
 607 511 607 694 607 878 c 0
 607 1109 596 1474 399 1474 c 0
EndSplineSet
EndChar

StartChar: R
Encoding: 82 82 113
Width: 756
VWidth: 0
Flags: HW
PickledData: "(dp1
S'lstem'
p2
I0
sS'com.fontlab.hintData'
p3
(dp4
S'vhints'
p5
((dp6
S'position'
p7
I198
sS'width'
p8
I101
s(dp9
g7
I397
sg8
I113
s(dp10
g7
I502
sg8
I124
stp11
sS'hhints'
p12
((dp13
g7
I-13
sg8
I21
s(dp14
g7
I1537
sg8
I20
stp15
ss."
HStem: -13 21<226.5 267.5> 1537 20<227.5 340.5>
VStem: 198 101 397 113<1228.5 1271> 502 124<34 71 41 71>
AnchorPoint: "bot" 390 0 basechar 0
AnchorPoint: "top" 347 1536 basechar 0
LayerCount: 2
Fore
SplineSet
395 1207 m 2
 396 1214 397 1223 397 1234 c 0
 397 1308 364 1451 303 1463 c 1
 302 1324 292 1184 292 1045 c 0
 292 1014 292 982 294 951 c 1
 319 975 342 1002 363 1030 c 1
 395 1207 l 2
299 859 m 1
 299 52 l 2
 299 17 293 -13 242 -13 c 0
 211 -13 190 12 190 44 c 2
 190 60 l 2
 190 460 198 861 198 1261 c 2
 198 1513 l 2
 198 1541 203 1557 252 1557 c 0
 429 1557 510 1370 510 1217 c 0
 510 1097 458 985 415 876 c 1
 418 648 555 299 626 76 c 1
 626 71 l 2
 626 35 627 -21 576 -21 c 0
 542 -21 519 8 502 34 c 1
 502 41 l 1
 486 299 365 598 299 859 c 1
EndSplineSet
EndChar

StartChar: S
Encoding: 83 83 119
Width: 774
VWidth: 0
Flags: HW
PickledData: "(dp1
S'lstem'
p2
I0
sS'com.fontlab.hintData'
p3
(dp4
S'vhints'
p5
((dp6
S'position'
p7
I183
sS'width'
p8
I117
s(dp9
g7
I476
sg8
I121
stp10
sS'hhints'
p11
((dp12
g7
I-45
sg8
I93
s(dp13
g7
I1456
sg8
I118
stp14
ss."
HStem: -45 93<301 373.5 301 413> 1456 118<334 497>
VStem: 183 117<1114.5 1325 1114.5 1341.5> 476 121<311.5 522.5>
AnchorPoint: "bot" 360 0 basechar 0
AnchorPoint: "top" 417 1536 basechar 0
LayerCount: 2
Fore
SplineSet
300 1290 m 0
 300 939 597 751 597 342 c 0
 597 179 509 -45 317 -45 c 0
 277 -45 158 -31 158 24 c 0
 158 52 172 79 204 79 c 0
 248 79 285 48 317 48 c 0
 430 48 476 268 476 355 c 0
 476 690 183 940 183 1275 c 0
 183 1408 257 1574 411 1574 c 0
 459 1574 513 1545 532 1500 c 1
 497 1456 l 1
 469 1456 440 1460 417 1476 c 1
 335 1468 300 1360 300 1290 c 0
EndSplineSet
EndChar

StartChar: T
Encoding: 84 84 127
Width: 720
VWidth: 0
Flags: HW
PickledData: "(dp1
S'lstem'
p2
I109
sS'com.fontlab.hintData'
p3
(dp4
S'vhints'
p5
((dp6
S'position'
p7
I339
sS'width'
p8
I102
s(dp9
g7
I351
sg8
I125
s(dp10
g7
I367
sg8
I92
stp11
sS'hhints'
p12
((dp13
g7
I-14
sg8
I21
s(dp14
g7
I1438
sg8
I112
stp15
ss."
HStem: -14 21<391.5 443.5> 1438 112<512.5 537 492.5 541>
VStem: 339 102<947.5 969 845 1073.5> 351 125<68.5 143.5> 367 92<392.5 522.5>
AnchorPoint: "mid" 394 857 basechar 0
AnchorPoint: "bot" 418 0 basechar 0
AnchorPoint: "top" 397 1536 basechar 0
LayerCount: 2
Fore
SplineSet
441 925 m 0
 441 765 459 615 459 454 c 0
 459 331 476 209 476 86 c 0
 476 46 470 -14 417 -14 c 0
 366 -14 351 48 351 89 c 0
 351 198 367 307 367 416 c 0
 367 629 339 841 339 1054 c 0
 339 1093 342 1163 342 1233 c 0
 342 1311 338 1389 323 1424 c 1
 286 1422 249 1413 212 1413 c 0
 180 1413 145 1433 145 1469 c 0
 145 1539 464 1550 521 1550 c 0
 553 1550 587 1526 587 1492 c 0
 587 1457 557 1438 525 1438 c 0
 500 1438 476 1442 452 1442 c 0
 445 1442 438 1442 431 1441 c 1
 441 1357 445 1273 445 1189 c 0
 445 1102 441 1013 441 925 c 0
EndSplineSet
EndChar

StartChar: Thorn
Encoding: 222 222 131
Width: 756
VWidth: 0
Flags: HW
PickledData: "(dp1
S'com.fontlab.hintData'
p2
(dp3
S'vhints'
p4
((dp5
S'position'
p6
I182
sS'width'
p7
I121
s(dp8
g6
I206
sg7
I117
s(dp9
g6
I457
sg7
I106
stp10
sS'hhints'
p11
((dp12
g6
I-11
sg7
I21
s(dp13
g6
I1528
sg7
I20
stp14
ss."
HStem: -11 21<237 280.5> 1528 20<213.5 263>
VStem: 182 121<1410 1504.5> 206 117<51.5 145.5 51.5 264.5> 457 106<876 1032.5>
LayerCount: 2
Fore
SplineSet
184 1297 m 1
 182 1487 l 2
 182 1522 194 1548 233 1548 c 0
 293 1548 303 1483 303 1424 c 0
 303 1396 301 1370 301 1353 c 1
 482 1327 563 1128 563 965 c 0
 563 773 481 595 307 502 c 1
 308 359 323 217 323 74 c 0
 323 29 306 -11 255 -11 c 0
 219 -11 206 29 206 58 c 0
 206 471 184 884 184 1297 c 1
457 948 m 0
 457 1117 433 1147 304 1249 c 1
 298 1249 l 1
 298 1033 302 817 302 601 c 1
 406 699 457 804 457 948 c 0
EndSplineSet
EndChar

StartChar: U
Encoding: 85 85 132
Width: 936
VWidth: 0
Flags: HW
PickledData: "(dp1
S'lstem'
p2
I0
sS'com.fontlab.hintData'
p3
(dp4
S'vhints'
p5
((dp6
S'position'
p7
I171
sS'width'
p8
I120
s(dp9
g7
I595
sg8
I127
s(dp10
g7
I640
sg8
I104
stp11
sS'hhints'
p12
((dp13
g7
I-37
sg8
I72
stp14
ss."
HStem: -37 72<484.5 597 484.5 633>
VStem: 171 120<861 1418.5> 595 127<1463 1497 1463 1507> 640 104<219 475.5 212.5 619>
AnchorPoint: "ogonek" 606 0 basechar 0
AnchorPoint: "top" 447 1536 basechar 0
LayerCount: 2
Fore
SplineSet
173 1435 m 1
 163 1446 158 1462 158 1477 c 0
 158 1509 184 1540 217 1540 c 0
 285 1540 291 1443 291 1394 c 0
 291 1157 310 919 310 682 c 1
 328 641 339 492 339 444 c 0
 339 335 414 35 555 35 c 0
 639 35 640 160 640 219 c 2
 640 619 l 2
 640 748 614 876 614 1005 c 2
 614 1019 l 2
 614 1059 610 1098 610 1138 c 0
 610 1255 595 1372 595 1489 c 0
 595 1525 640 1545 672 1545 c 1
 722 1497 l 1
 722 1463 l 2
 721 1421 707 1380 707 1338 c 0
 707 989 744 663 744 288 c 0
 744 137 724 -37 542 -37 c 0
 203 -37 171 607 171 1115 c 0
 171 1232 173 1342 173 1435 c 1
EndSplineSet
EndChar

StartChar: V
Encoding: 86 86 146
Width: 810
VWidth: 0
Flags: HW
PickledData: "(dp1
S'lstem'
p2
I0
sS'com.fontlab.hintData'
p3
(dp4
S'hhints'
p5
((dp6
S'position'
p7
I-34
sS'width'
p8
I21
s(dp9
g7
I1543
sg8
I20
stp10
ss."
HStem: -34 21<436 476.5> 1543 20<170 219>
LayerCount: 2
Fore
SplineSet
183 1563 m 0
 255 1563 398 490 429 339 c 1
 474 733 554 1130 554 1528 c 1
 573 1552 598 1569 629 1569 c 1
 672 1546 l 1
 651 1356 508 -34 445 -34 c 0
 427 -34 409 -26 397 -12 c 1
 307 359 200 1167 126 1523 c 1
 134 1549 157 1563 183 1563 c 0
EndSplineSet
EndChar

StartChar: W
Encoding: 87 87 147
Width: 1026
VWidth: 0
Flags: HW
PickledData: "(dp1
S'lstem'
p2
I0
sS'com.fontlab.hintData'
p3
(dp4
S'vhints'
p5
((dp6
S'position'
p7
I270
sS'width'
p8
I134
s(dp9
g7
I409
sg8
I127
s(dp10
g7
I788
sg8
I116
stp11
sS'hhints'
p12
((dp13
g7
I-29
sg8
I22
stp14
ss."
HStem: -29 22
VStem: 270 134<101.5 173 13 188.5> 409 127<1297 1325 1325 1328 1297 1339> 788 116<1330.5 1489 1250 1533.5>
AnchorPoint: "top" 507 1536 basechar 0
LayerCount: 2
Fore
SplineSet
749 43 m 0
 749 5 731 -28 688 -28 c 0
 599 -28 501 788 482 893 c 1
 442 606 404 318 404 28 c 0
 404 -2 374 -29 345 -29 c 0
 273 -29 270 76 270 127 c 0
 270 250 110 1413 78 1491 c 1
 92 1517 118 1540 149 1540 c 0
 259 1540 310 645 331 503 c 1
 353 694 409 1115 409 1286 c 2
 409 1325 l 2
 409 1353 434 1388 463 1388 c 0
 502 1388 536 1374 536 1328 c 2
 536 1297 l 2
 537 1011 639 740 685 461 c 1
 720 809 788 1155 788 1506 c 0
 788 1561 799 1592 862 1592 c 0
 892 1592 925 1569 925 1536 c 0
 925 1519 916 1501 904 1489 c 1
 904 1011 749 523 749 43 c 0
EndSplineSet
EndChar

StartChar: X
Encoding: 88 88 152
Width: 756
VWidth: 0
Flags: HW
PickledData: "(dp1
S'lstem'
p2
I0
sS'com.fontlab.hintData'
p3
(dp4
S'vhints'
p5
((dp6
S'position'
p7
I323
sS'width'
p8
I116
stp9
sS'hhints'
p10
((dp11
g7
I-13
sg8
I21
s(dp12
g7
I1530
sg8
I20
stp13
ss."
HStem: -13 21<194.5 213.5> 1530 20<528.5 555>
VStem: 323 116<797 843.5>
LayerCount: 2
Fore
SplineSet
389 987 m 1
 433 1194 458 1329 478 1415 c 0
 501 1518 515 1550 542 1550 c 0
 568 1550 592 1536 592 1505 c 0
 592 1481 584 1439 572 1386 c 0
 531 1204 439 899 439 796 c 0
 439 765 529 323 545 248 c 0
 559 182 579 134 579 80 c 0
 579 50 573 26 543 26 c 0
 512 26 490 40 483 75 c 0
 451 238 414 481 380 628 c 1
 321 367 283 195 256 97 c 0
 236 21 221 -13 206 -13 c 0
 183 -13 150 2 150 26 c 0
 150 28 150 31 151 33 c 0
 203 237 251 430 283 578 c 0
 308 690 323 775 323 819 c 0
 323 868 319 900 280 1078 c 0
 262 1159 237 1271 202 1428 c 0
 199 1442 197 1455 197 1465 c 0
 197 1508 222 1520 243 1520 c 0
 293 1520 302 1428 360 1134 c 0
 368 1089 378 1041 389 987 c 1
EndSplineSet
EndChar

StartChar: Y
Encoding: 89 89 153
Width: 702
VWidth: 0
Flags: HW
PickledData: "(dp1
S'lstem'
p2
I0
sS'com.fontlab.hintData'
p3
(dp4
S'vhints'
p5
((dp6
S'position'
p7
I158
sS'width'
p8
I393
s(dp9
g7
I316
sg8
I131
s(dp10
g7
I345
sg8
I120
stp11
sS'hhints'
p12
((dp13
g7
I-25
sg8
I21
s(dp14
g7
I1529
sg8
I20
stp15
ss."
HStem: -25 21<383.5 414> 1529 20<199.5 246.5>
VStem: 158 393<1402 1523.5> 316 131<716 726 726 757 635.5 900.5> 345 120<16.5 35 35 81 81 87 16.5 91>
AnchorPoint: "top" 367 1536 basechar 0
LayerCount: 2
Fore
SplineSet
373 1006 m 1
 389 1088 399 1539 497 1539 c 0
 511 1539 551 1539 551 1517 c 0
 551 1287 453 1062 453 828 c 0
 453 804 446 781 447 757 c 2
 447 726 l 2
 447 545 458 364 458 183 c 0
 458 151 465 119 465 87 c 0
 465 70 465 52 465 35 c 0
 465 -2 431 -25 397 -25 c 0
 370 -25 345 -3 345 25 c 0
 345 157 355 289 355 421 c 0
 355 541 316 656 316 776 c 0
 316 1025 158 1267 158 1513 c 0
 158 1534 189 1549 210 1549 c 0
 283 1549 348 1093 373 1006 c 1
EndSplineSet
EndChar

StartChar: Z
Encoding: 90 90 160
Width: 702
VWidth: 0
Flags: HW
PickledData: "(dp1
S'lstem'
p2
I0
sS'com.fontlab.hintData'
p3
(dp4
S'vhints'
p5
((dp6
S'position'
p7
I166
sS'width'
p8
I354
stp9
sS'hhints'
p10
((dp11
g7
I-19
sg8
I104
s(dp12
g7
I1441
sg8
I102
s(dp13
g7
I1530
sg8
I34
stp14
ss."
HStem: -19 104 1441 102<267.5 303 261 318.5> 1530 34
VStem: 166 354
AnchorPoint: "top" 397 1536 basechar 0
LayerCount: 2
Fore
SplineSet
293 85 m 1
 316 86 359 93 401 93 c 0
 456 93 509 81 509 30 c 2
 509 21 l 1
 477 -11 l 1
 393 -11 308 -19 224 -19 c 0
 193 -19 176 5 166 31 c 1
 269 197 399 1235 413 1451 c 1
 388 1449 341 1441 296 1441 c 0
 239 1441 185 1453 185 1506 c 2
 185 1515 l 1
 213 1549 l 1
 213 1550 l 1
 232 1545 251 1543 271 1543 c 0
 335 1543 400 1564 464 1564 c 0
 496 1564 520 1536 520 1505 c 0
 520 1051 398 494 293 85 c 1
EndSplineSet
EndChar

StartChar: a
Encoding: 97 97 164
Width: 810
VWidth: 0
Flags: HW
PickledData: "(dp1
S'lstem'
p2
I0
sS'com.fontlab.hintData'
p3
(dp4
S'vhints'
p5
((dp6
S'position'
p7
I497
sS'width'
p8
I113
s(dp9
g7
I546
sg8
I125
stp10
sS'hhints'
p11
((dp12
g7
I-11
sg8
I21
s(dp13
g7
I1353
sg8
I20
s(dp14
g7
I1353
sg8
I20
stp15
ss."
HStem: -11 21<184 244> 1353 20<388 457 457 473> 1353 20<388 457 457 473>
VStem: 497 113<438 554.5 396 565.5> 546 125<27 39 39 41 27 92.5>
AnchorPoint: "ogonek" 616 0 basechar 0
AnchorPoint: "top" 447 1365 basechar 0
LayerCount: 2
Fore
SplineSet
516 302 m 1
 314 332 l 1
 270 174 289 -11 199 -11 c 0
 169 -11 134 11 134 44 c 0
 134 49 138 57 139 62 c 0
 226 397 299 759 344 1100 c 0
 353 1169 351 1317 388 1373 c 1
 457 1373 l 2
 489 1373 527 1359 527 1321 c 0
 527 1016 610 693 610 416 c 0
 610 376 632 330 632 290 c 0
 632 239 671 99 671 41 c 2
 671 39 l 2
 671 15 660 -10 637 -19 c 1
 588 -19 546 -10 546 49 c 0
 546 136 516 302 516 302 c 1
503 375 m 1
 498 400 497 425 497 451 c 0
 497 680 462 907 442 1134 c 1
 399 897 340 551 322 408 c 1
 357 385 459 378 503 375 c 1
EndSplineSet
EndChar

StartChar: acute
Encoding: 180 180 169
Width: 702
VWidth: 0
Flags: HW
PickledData: "(dp1
S'lstem'
p2
I0
sS'com.fontlab.hintData'
p3
(dp4
S'vhints'
p5
((dp6
S'position'
p7
I198
sS'width'
p8
I363
stp9
sS'hhints'
p10
((dp11
g7
I1291
sg8
I286
stp12
ss."
HStem: 1291 286
VStem: 198 363
AnchorPoint: "top" 233 1190 mark 0
LayerCount: 2
Fore
SplineSet
220 1360 m 0
 304 1438 440 1549 488 1594 c 0
 494 1596 499 1598 505 1598 c 0
 539 1598 572 1555 572 1521 c 0
 572 1508 567 1496 557 1489 c 0
 497 1445 335 1356 259 1316 c 0
 253 1313 248 1312 242 1312 c 0
 225 1312 209 1324 209 1339 c 0
 209 1346 212 1353 220 1360 c 0
EndSplineSet
EndChar

StartChar: ae
Encoding: 230 230 173
Width: 918
VWidth: 0
Flags: HW
PickledData: "(dp1
S'com.fontlab.hintData'
p2
(dp3
S'vhints'
p4
((dp5
S'position'
p6
I535
sS'width'
p7
I95
stp8
sS'hhints'
p9
((dp10
g6
I-43
sg7
I21
s(dp11
g6
I-12
sg7
I94
s(dp12
g6
I621
sg7
I114
s(dp13
g6
I621
sg7
I95
s(dp14
g6
I1450
sg7
I104
stp15
ss."
HStem: -43 21<567 567> -12 94 621 114<702 782 702 782> 621 95 1450 104<717.5 810>
VStem: 535 95<1091 1174.5>
LayerCount: 2
Fore
SplineSet
522 2 m 1
 524 3 l 1
 532 86 541 169 541 253 c 0
 541 380 531 506 531 633 c 1
 472 628 411 630 354 611 c 1
 253 226 l 2
 240 178 225 1 158 1 c 0
 135 1 118 27 118 48 c 0
 118 288 384 1103 470 1380 c 0
 487 1437 509 1544 586 1544 c 0
 639 1544 691 1554 744 1554 c 0
 781 1554 831 1546 831 1498 c 2
 831 1492 l 1
 810 1450 l 1
 745 1450 680 1447 616 1440 c 1
 618 1349 630 1258 630 1166 c 0
 630 1016 624 866 624 716 c 1
 674 720 722 735 772 735 c 2
 782 735 l 1
 824 687 l 1
 824 629 757 621 711 621 c 2
 702 621 l 1
 623 622 l 1
 624 442 629 262 629 82 c 1
 705 83 780 103 856 103 c 0
 885 103 924 87 924 53 c 0
 924 -8 760 -12 680 -12 c 2
 648 -12 l 2
 618 -12 596 -38 567 -43 c 1
 522 2 l 1
527 706 m 1
 529 855 535 1004 535 1153 c 0
 535 1196 535 1240 533 1283 c 1
 474 1087 416 889 374 688 c 1
 425 691 477 695 527 706 c 1
EndSplineSet
EndChar

StartChar: ampersand
Encoding: 38 38 179
Width: 990
VWidth: 0
Flags: HW
PickledData: "(dp1
S'lstem'
p2
I0
sS'com.fontlab.hintData'
p3
(dp4
S'vhints'
p5
((dp6
S'position'
p7
I102
sS'width'
p8
I95
s(dp9
g7
I270
sg8
I93
s(dp10
g7
I516
sg8
I92
s(dp11
g7
I659
sg8
I92
stp12
sS'hhints'
p13
((dp14
g7
I18
sg8
I85
s(dp15
g7
I19
sg8
I93
s(dp16
g7
I613
sg8
I83
s(dp17
g7
I1450
sg8
I94
stp18
ss."
HStem: 18 85<327 423.5 327 429> 19 93<777 811 772 838.5> 613 83 1450 94<406 440.5>
VStem: 102 95<325.5 458.5 325.5 477> 270 93<1245 1291 1291 1396 1396 1400> 516 92<1274 1312.5> 659 92<600 609 609 609>
LayerCount: 2
Fore
SplineSet
305 789 m 1
 230 671 197 528 197 389 c 0
 197 262 251 103 403 103 c 0
 444 103 524 128 553 158 c 1
 422 347 345 546 305 789 c 1
857 722 m 1
 885 716 915 701 915 668 c 0
 915 621 846 612 808 612 c 0
 806 612 804 613 802 613 c 2
 751 613 l 1
 751 516 750 285 667 175 c 1
 701 140 747 112 797 112 c 0
 825 112 852 118 880 118 c 1
 918 87 l 1
 918 26 863 19 814 19 c 0
 740 19 675 53 616 96 c 1
 544 47 473 18 385 18 c 0
 219 18 102 202 102 354 c 0
 102 600 175 733 284 945 c 1
 283 1039 270 1132 270 1226 c 2
 270 1396 l 2
 270 1502 329 1544 398 1544 c 0
 494 1544 608 1463 608 1360 c 0
 608 1188 546 1065 442 944 c 1
 427 917 390 876 390 846 c 0
 390 734 519 318 595 238 c 1
 645 352 659 477 659 600 c 2
 659 609 l 1
 636 609 634 624 625 644 c 1
 625 696 l 1
 681 696 806 705 857 722 c 1
363 1291 m 2
 363 1199 366 1108 366 1016 c 2
 366 993 l 1
 424 1065 516 1213 516 1291 c 0
 516 1334 466 1450 415 1450 c 0
 397 1450 379 1436 363 1400 c 1
 363 1291 l 2
EndSplineSet
EndChar

StartChar: approxequal
Encoding: 8776 8776 181
Width: 790
VWidth: 0
Flags: HW
LayerCount: 2
Fore
SplineSet
198 865 m 0
 182 865 178 891 178 917 c 0
 178 992 225 1040 304 1040 c 0
 380 1040 422 913 494 913 c 0
 530 913 555 939 555 989 c 0
 555 1003 545 1014 543 1028 c 1
 547 1036 556 1040 564 1040 c 0
 599 1040 611 999 611 970 c 0
 611 913 559 862 502 862 c 0
 422 862 367 928 320 983 c 0
 312 989 304 991 296 991 c 0
 264 991 230 955 230 934 c 0
 230 920 240 906 240 891 c 1
 232 880 213 865 198 865 c 0
179 655 m 0
 179 733 218 800 304 800 c 0
 372 800 423 675 478 675 c 0
 484 675 488 675 494 677 c 2
 508 673 l 1
 518 700 555 694 555 749 c 0
 555 763 545 774 543 788 c 1
 547 796 556 800 564 800 c 0
 599 800 611 759 611 730 c 0
 611 673 559 622 502 622 c 0
 422 622 367 688 320 743 c 0
 312 749 304 751 296 751 c 0
 264 751 230 715 230 694 c 0
 230 680 240 666 240 651 c 1
 232 640 213 625 198 625 c 0
 187 625 179 632 179 655 c 0
EndSplineSet
EndChar

StartChar: asciicircum
Encoding: 94 94 184
Width: 594
VWidth: 0
Flags: HW
PickledData: "(dp1
S'lstem'
p2
I0
sS'com.fontlab.hintData'
p3
(dp4
S'vhints'
p5
((dp6
S'position'
p7
I254
sS'width'
p8
I137
stp9
sS'hhints'
p10
((dp11
g7
I1515
sg8
I141
stp12
ss."
HStem: 1515 141<308.5 337 295.5 346>
VStem: 254 137<1564.5 1593.5>
LayerCount: 2
Fore
SplineSet
254 1575 m 0
 254 1612 274 1656 317 1656 c 0
 357 1656 391 1623 391 1583 c 0
 391 1546 365 1515 327 1515 c 0
 290 1515 254 1534 254 1575 c 0
EndSplineSet
EndChar

StartChar: asciitilde
Encoding: 126 126 185
Width: 972
VWidth: 0
Flags: HW
PickledData: "(dp1
S'lstem'
p2
I0
sS'com.fontlab.hintData'
p3
(dp4
S'vhints'
p5
((dp6
S'position'
p7
I158
sS'width'
p8
I647
stp9
sS'hhints'
p10
((dp11
g7
I1038
sg8
I103
s(dp12
g7
I1125
sg8
I99
stp13
ss."
HStem: 1038 103<607 678.5 607 708.5> 1125 99
VStem: 158 647<1134.5 1136>
LayerCount: 2
Fore
SplineSet
738 1223 m 0
 785 1223 805 1194 805 1170 c 0
 805 1099 744 1038 673 1038 c 0
 389 1038 365 1121 285 1125 c 1
 237 1107 286 1065 232 1046 c 1
 195 1046 158 1063 158 1105 c 0
 158 1167 211 1224 306 1224 c 0
 404 1224 565 1141 649 1141 c 0
 708 1141 678 1223 738 1223 c 0
EndSplineSet
EndChar

StartChar: asterisk
Encoding: 42 42 186
Width: 954
VWidth: 0
Flags: HW
PickledData: "(dp1
S'lstem'
p2
I0
sS'com.fontlab.hintData'
p3
(dp4
S'vhints'
p5
((dp6
S'position'
p7
I531
sS'width'
p8
I130
stp9
sS'hhints'
p10
((dp11
g7
I1096
sg8
I100
s(dp12
g7
I1547
sg8
I20
stp13
ss."
HStem: 1096 100<115 131 131 147 147 358 115 372> 1547 20
VStem: 531 130<737.5 821>
LayerCount: 2
Fore
SplineSet
516 1194 m 1
 547 1190 577 1189 608 1189 c 0
 635 1189 692 1199 743 1199 c 0
 798 1199 847 1187 847 1137 c 0
 847 1096 811 1085 776 1085 c 0
 687 1085 598 1094 509 1094 c 1
 539 1015 661 819 661 752 c 0
 661 723 638 700 609 700 c 0
 552 700 533 776 531 821 c 1
 444 1011 l 1
 404 910 367 782 310 690 c 1
 261 690 l 1
 217 736 l 1
 216 745 l 1
 221 817 343 1012 372 1096 c 1
 292 1096 211 1096 131 1096 c 0
 94 1096 69 1099 69 1150 c 0
 69 1175 89 1196 115 1196 c 2
 358 1196 l 1
 331 1250 222 1455 222 1501 c 0
 222 1531 251 1547 278 1547 c 0
 334 1547 404 1307 429 1258 c 1
 449 1317 510 1567 582 1567 c 0
 611 1567 639 1542 639 1512 c 0
 639 1444 546 1268 516 1194 c 1
EndSplineSet
EndChar

StartChar: at
Encoding: 64 64 187
Width: 1260
VWidth: 0
Flags: HW
PickledData: "(dp1
S'lstem'
p2
I0
sS'com.fontlab.hintData'
p3
(dp4
S'vhints'
p5
((dp6
S'position'
p7
I150
sS'width'
p8
I121
s(dp9
g7
I393
sg8
I107
s(dp10
g7
I773
sg8
I150
s(dp11
g7
I1005
sg8
I115
stp12
sS'hhints'
p13
((dp14
g7
I-120
sg8
I89
s(dp15
g7
I306
sg8
I104
s(dp16
g7
I1246
sg8
I105
s(dp17
g7
I1612
sg8
I107
stp18
ss."
HStem: -120 89<424 717 424 722> 306 104<591 667.5> 1246 105<585 686.5> 1612 107<445 775.5>
VStem: 150 121<820.5 930 930 1050 809 1109> 393 107<756 930 721 949> 773 150<556 759> 1005 115<749.5 934>
LayerCount: 2
Fore
SplineSet
626 1246 m 0
 544 1246 500 1035 500 825 c 0
 500 617 544 410 638 410 c 0
 700 410 773 550 773 605 c 2
 773 759 l 2
 773 875 747 1246 626 1246 c 0
565 -120 m 0
 152 -120 150 685 150 956 c 0
 150 1262 158 1719 613 1719 c 0
 1041 1719 1120 1150 1120 767 c 0
 1120 645 1116 406 944 406 c 0
 905 406 869 459 841 519 c 1
 797 398 713 306 622 306 c 0
 395 306 393 661 393 851 c 0
 393 1047 397 1351 626 1351 c 0
 894 1351 894 818 923 565 c 1
 923 556 l 1
 952 510 l 1
 1000 536 1005 723 1005 776 c 0
 1005 1092 948 1612 603 1612 c 0
 287 1612 271 1300 271 1050 c 2
 271 930 l 2
 271 688 279 -31 569 -31 c 0
 865 -31 929 150 1011 150 c 0
 1023 150 1029 142 1029 130 c 0
 1029 72 879 -120 565 -120 c 0
EndSplineSet
EndChar

StartChar: b
Encoding: 98 98 189
Width: 702
VWidth: 0
Flags: HW
PickledData: "(dp1
S'lstem'
p2
I0
sS'com.fontlab.hintData'
p3
(dp4
S'vhints'
p5
((dp6
S'position'
p7
I182
sS'width'
p8
I116
s(dp9
g7
I200
sg8
I111
s(dp10
g7
I419
sg8
I117
s(dp11
g7
I438
sg8
I110
stp12
sS'hhints'
p13
((dp14
g7
I-20
sg8
I21
s(dp15
g7
I1363
sg8
I20
stp16
ss."
HStem: -20 21<215 356> 1363 20<238 364.5>
VStem: 182 116<65 208.5> 200 111 419 117<975.5 1044> 438 110<263.5 354>
AnchorPoint: "top" 367 1365 basechar 0
LayerCount: 2
Fore
SplineSet
453 705 m 1
 542 620 548 475 548 360 c 0
 548 167 466 -20 246 -20 c 0
 184 -20 182 42 182 88 c 0
 182 234 202 378 202 524 c 0
 202 740 211 957 211 1173 c 0
 211 1208 202 1244 200 1279 c 2
 200 1290 l 2
 200 1338 209 1383 267 1383 c 0
 462 1383 536 1212 536 1028 c 0
 536 883 514 791 453 705 c 1
305 333 m 0
 305 278 298 231 298 186 c 0
 298 183 300 179 300 176 c 2
 300 84 l 1
 399 107 438 217 438 308 c 0
 438 400 429 619 314 643 c 1
 307 540 305 436 305 333 c 0
311 1068 m 2
 311 763 l 1
 413 766 419 939 419 1012 c 0
 419 1076 420 1278 335 1288 c 1
 316 1247 311 1128 311 1068 c 2
EndSplineSet
EndChar

StartChar: backslash
Encoding: 92 92 190
Width: 756
VWidth: 0
Flags: HW
PickledData: "(dp1
S'lstem'
p2
I0
sS'com.fontlab.hintData'
p3
(dp4
S'vhints'
p5
((dp6
S'position'
p7
I142
sS'width'
p8
I441
stp9
sS'hhints'
p10
((dp11
g7
I1535
sg8
I20
stp12
ss."
HStem: 1535 20<183 256.5>
VStem: 142 441
LayerCount: 2
Fore
SplineSet
583 31 m 0
 583 6 558 -17 537 -30 c 1
 537 -31 l 1
 415 -31 221 1145 184 1312 c 0
 170 1376 142 1439 142 1505 c 0
 142 1535 169 1555 197 1555 c 0
 316 1555 583 127 583 31 c 0
EndSplineSet
EndChar

StartChar: bar
Encoding: 124 124 191
Width: 576
VWidth: 0
Flags: HW
PickledData: "(dp1
S'lstem'
p2
I0
sS'com.fontlab.hintData'
p3
(dp4
S'vhints'
p5
((dp6
S'position'
p7
I236
sS'width'
p8
I103
stp9
sS'hhints'
p10
((dp11
g7
I1564
sg8
I20
stp12
ss."
HStem: 1564 20<269 306>
VStem: 236 103<98 347>
LayerCount: 2
Fore
SplineSet
236 114 m 0
 236 580 222 1045 222 1510 c 0
 222 1556 245 1584 293 1584 c 0
 319 1584 335 1556 335 1533 c 0
 335 1148 339 763 339 379 c 2
 339 -29 l 2
 339 -57 315 -80 287 -80 c 0
 235 -80 236 82 236 114 c 0
EndSplineSet
EndChar

StartChar: braceleft
Encoding: 123 123 193
Width: 774
VWidth: 0
Flags: HW
PickledData: "(dp1
S'lstem'
p2
I0
sS'com.fontlab.hintData'
p3
(dp4
S'vhints'
p5
((dp6
S'position'
p7
I249
sS'width'
p8
I96
stp9
sS'hhints'
p10
((dp11
g7
I-48
sg8
I87
s(dp12
g7
I1408
sg8
I87
stp13
ss."
HStem: -48 87<396 458 396 471> 1408 87<388 454.5>
VStem: 249 96<198 621 621 622>
LayerCount: 2
Fore
SplineSet
452 -48 m 0
 287 -48 249 52 249 198 c 2
 249 621 l 2
 249 785 110 673 110 766 c 0
 110 866 249 754 249 916 c 0
 249 958 239 1054 239 1130 c 0
 239 1173 242 1209 252 1226 c 1
 249 1244 247 1262 247 1280 c 0
 247 1399 315 1495 452 1495 c 0
 486 1495 595 1482 595 1435 c 0
 595 1404 565 1389 538 1389 c 0
 503 1389 472 1408 437 1408 c 0
 339 1408 339 1222 339 1157 c 0
 339 1106 347 1024 347 947 c 0
 347 875 340 806 311 768 c 1
 343 728 345 672 345 622 c 2
 345 182 l 2
 345 118 355 39 437 39 c 0
 479 39 516 62 558 62 c 0
 570 62 575 25 575 16 c 0
 575 -36 490 -48 452 -48 c 0
EndSplineSet
EndChar

StartChar: braceright
Encoding: 125 125 194
Width: 774
VWidth: 0
Flags: HW
PickledData: "(dp1
S'lstem'
p2
I0
sS'com.fontlab.hintData'
p3
(dp4
S'vhints'
p5
((dp6
S'position'
p7
I428
sS'width'
p8
I100
stp9
sS'hhints'
p10
((dp11
g7
I-48
sg8
I87
s(dp12
g7
I1408
sg8
I87
stp13
ss."
HStem: -48 87<322.5 388.5 322.5 393.5> 1408 87<319 381>
VStem: 428 100<559.5 574.5>
LayerCount: 2
Fore
SplineSet
325 1495 m 0
 488 1495 526 1394 527 1249 c 2
 528 876 l 2
 528 712 657 821 657 731 c 0
 657 630 528 745 528 581 c 0
 528 538 536 421 536 330 c 0
 536 279 534 236 525 221 c 1
 528 202 529 184 529 166 c 0
 529 47 462 -48 325 -48 c 0
 291 -48 182 -35 182 12 c 0
 182 43 212 58 239 58 c 0
 274 58 305 39 340 39 c 0
 437 39 438 224 438 289 c 0
 438 346 428 443 428 534 c 0
 428 615 436 691 466 729 c 1
 434 770 429 825 429 875 c 0
 429 915 439 1021 439 1127 c 0
 439 1267 422 1408 340 1408 c 0
 298 1408 261 1385 219 1385 c 0
 207 1385 202 1422 202 1431 c 0
 202 1483 287 1495 325 1495 c 0
EndSplineSet
EndChar

StartChar: bracketleft
Encoding: 91 91 195
Width: 702
VWidth: 0
Flags: HW
PickledData: "(dp1
S'lstem'
p2
I0
sS'com.fontlab.hintData'
p3
(dp4
S'vhints'
p5
((dp6
S'position'
p7
I166
sS'width'
p8
I110
s(dp9
g7
I262
sg8
I94
stp10
sS'hhints'
p11
((dp12
g7
I-112
sg8
I118
s(dp13
g7
I1478
sg8
I99
stp14
ss."
HStem: -112 118<276 426.5> 1478 99<387.5 400 301 413.5>
VStem: 166 110<6 48 6 49.5> 262 94<1311 1468 1222.5 1487.5>
LayerCount: 2
Fore
SplineSet
276 48 m 2
 276 6 l 1
 297 6 l 2
 361 6 479 2 479 -68 c 0
 479 -103 440 -112 413 -112 c 0
 362 -112 166 -108 166 -35 c 0
 166 134 209 301 209 470 c 0
 209 808 262 1142 262 1480 c 0
 262 1495 260 1508 260 1519 c 0
 260 1548 267 1563 301 1577 c 1
 379 1577 l 2
 421 1577 565 1572 565 1511 c 0
 565 1481 535 1465 509 1465 c 0
 470 1465 433 1478 394 1478 c 0
 381 1478 356 1478 356 1458 c 0
 356 987 276 502 276 48 c 2
EndSplineSet
EndChar

StartChar: bracketright
Encoding: 93 93 196
Width: 828
VWidth: 0
Flags: HW
PickledData: "(dp1
S'lstem'
p2
I0
sS'com.fontlab.hintData'
p3
(dp4
S'vhints'
p5
((dp6
S'position'
p7
I462
sS'width'
p8
I96
s(dp9
g7
I543
sg8
I112
stp10
sS'hhints'
p11
((dp12
g7
I-112
sg8
I118
s(dp13
g7
I1465
sg8
I112
stp14
ss."
HStem: -112 118<392.5 543> 1465 112<312.5 455>
VStem: 462 96<1458 1476 1476 1476> 543 112<6 48 48 48>
LayerCount: 2
Fore
SplineSet
407 -112 m 0
 378 -112 340 -103 340 -68 c 0
 340 11 491 5 543 6 c 1
 543 48 l 1
 530 519 462 986 462 1458 c 2
 462 1476 l 1
 417 1475 373 1465 328 1465 c 0
 297 1465 254 1471 254 1511 c 0
 254 1573 404 1577 447 1577 c 0
 463 1577 477 1578 489 1578 c 0
 538 1578 558 1569 558 1481 c 0
 558 1156 614 835 614 510 c 0
 614 327 655 148 655 -35 c 0
 655 -108 458 -112 407 -112 c 0
EndSplineSet
EndChar

StartChar: breve
Encoding: 728 728 197
Width: 680
VWidth: 0
Flags: HW
PickledData: "(dp1
S'lstem'
p2
I0
sS'com.fontlab.hintData'
p3
(dp4
S'vhints'
p5
((dp6
S'position'
p7
I344
sS'width'
p8
I68
stp9
sS'hhints'
p10
((dp11
g7
I891
sg8
I47
stp12
ss."
HStem: 891 47
VStem: 344 68
AnchorPoint: "top" 363 1190 mark 0
LayerCount: 2
Fore
SplineSet
536 1522 m 0
 519 1447 473 1358 364 1358 c 0
 230 1358 191 1490 191 1601 c 0
 191 1618 206 1633 229 1633 c 0
 300 1633 302 1453 358 1453 c 0
 415 1453 428 1525 428 1547 c 0
 428 1590 435 1624 486 1624 c 0
 514 1624 540 1601 540 1572 c 0
 540 1566 540 1540 536 1522 c 0
EndSplineSet
EndChar

StartChar: brokenbar
Encoding: 166 166 198
Width: 576
VWidth: 0
Flags: HW
PickledData: "(dp1
S'lstem'
p2
I0
sS'com.fontlab.hintData'
p3
(dp4
S'vhints'
p5
((dp6
S'position'
p7
I222
sS'width'
p8
I116
stp9
sS'hhints'
p10
((dp11
g7
I1564
sg8
I20
stp12
ss."
HStem: 1564 20<269 312>
VStem: 222 116<1429 1437>
LayerCount: 2
Fore
SplineSet
275 695 m 0
 321 695 336 662 336 621 c 2
 338 -16 l 2
 338 -50 326 -80 287 -80 c 0
 259 -80 235 -57 235 -29 c 2
 232 339 l 1
 233 644 l 2
 233 668 249 695 275 695 c 0
230 1020 m 0
 230 1183 222 1348 222 1510 c 0
 222 1556 245 1584 293 1584 c 0
 331 1584 338 1481 338 1393 c 0
 338 1346 336 1304 336 1285 c 2
 333 877 l 2
 333 849 309 826 281 826 c 0
 229 826 230 988 230 1020 c 0
EndSplineSet
EndChar

StartChar: bullet
Encoding: 8226 8226 199
Width: 774
VWidth: 0
Flags: HW
PickledData: "(dp1
S'lstem'
p2
I0
sS'com.fontlab.hintData'
p3
(dp4
S'vhints'
p5
((dp6
S'position'
p7
I166
sS'width'
p8
I432
stp9
sS'hhints'
p10
((dp11
g7
I485
sg8
I526
stp12
ss."
HStem: 485 526<347 457 347 466>
VStem: 166 432<736.5 770.5>
LayerCount: 2
Fore
SplineSet
166 727 m 0
 166 814 205 878 235 920 c 1
 248 947 332 1011 362 1011 c 0
 552 1011 598 866 598 779 c 0
 598 694 561 485 371 485 c 0
 257 485 167 595 167 665 c 0
 167 687 166 705 166 727 c 0
EndSplineSet
EndChar

StartChar: c
Encoding: 99 99 201
Width: 774
VWidth: 0
Flags: HW
PickledData: "(dp1
S'lstem'
p2
I0
sS'com.fontlab.hintData'
p3
(dp4
S'vhints'
p5
((dp6
S'position'
p7
I174
sS'width'
p8
I131
stp9
sS'hhints'
p10
((dp11
g7
I-29
sg8
I108
s(dp12
g7
I1258
sg8
I106
stp13
ss."
HStem: -29 108<450.5 498 399 513.5> 1258 106<387 447 447 543>
VStem: 174 131<615 817 751 817 817 827 751 834.5>
AnchorPoint: "bot" 440 0 basechar 0
AnchorPoint: "top" 467 1365 basechar 0
LayerCount: 2
Fore
SplineSet
524 1364 m 0
 569 1364 587 1338 587 1312 c 0
 587 1286 569 1260 543 1258 c 2
 447 1258 l 2
 327 1258 305 913 305 827 c 2
 305 817 l 2
 305 685 296 554 296 422 c 0
 296 286 308 79 490 79 c 0
 506 79 522 86 534 97 c 1
 562 97 596 85 596 52 c 0
 596 -9 544 -29 483 -29 c 0
 418 -29 342 -6 311 14 c 0
 183 97 175 359 175 495 c 0
 175 527 174 569 174 615 c 2
 174 664 l 2
 174 1005 182 1364 524 1364 c 0
EndSplineSet
EndChar

StartChar: caron
Encoding: 711 711 203
Width: 702
VWidth: 0
Flags: HW
PickledData: "(dp1
S'lstem'
p2
I0
sS'com.fontlab.hintData'
p3
(dp4
S'vhints'
p5
((dp6
S'position'
p7
I190
sS'width'
p8
I310
stp9
sS'hhints'
p10
((dp11
g7
I928
sg8
I428
s(dp12
g7
I1336
sg8
I20
stp13
ss."
HStem: 928 428 1336 20
VStem: 190 310
AnchorPoint: "top" 363 1190 mark 0
LayerCount: 2
Fore
SplineSet
181 1707 m 0
 181 1729 205 1746 230 1746 c 0
 283 1746 339 1495 358 1441 c 1
 375 1538 378 1753 448 1753 c 0
 471 1753 491 1737 491 1710 c 0
 491 1700 478 1688 476 1679 c 2
 476 1642 l 2
 476 1630 418 1440 418 1384 c 0
 418 1350 405 1318 366 1318 c 0
 307 1318 181 1643 181 1707 c 0
EndSplineSet
EndChar

StartChar: cedilla
Encoding: 184 184 208
Width: 774
VWidth: 0
Flags: HW
PickledData: "(dp1
S'lstem'
p2
I0
sS'com.fontlab.hintData'
p3
(dp4
S'vhints'
p5
((dp6
S'position'
p7
I-12
sS'width'
p8
I49
s(dp9
g7
I159
sg8
I87
stp10
sS'hhints'
p11
((dp12
g7
I-485
sg8
I81
s(dp13
g7
I-220
sg8
I128
stp14
ss."
HStem: -485 81 -220 128
VStem: -12 49 159 87
AnchorPoint: "bot" 304 0 mark 0
LayerCount: 2
Fore
SplineSet
367 -160 m 1
 349 -160 330 -167 312 -167 c 0
 285 -167 268 -146 256 -126 c 1
 272 -89 273 -50 273 -9 c 2
 273 14 l 1
 332 22 l 1
 326 -13 324 -48 324 -81 c 1
 441 -89 473 -187 473 -287 c 0
 473 -342 408 -449 318 -449 c 0
 287 -449 230 -433 230 -394 c 0
 230 -380 236 -373 252 -373 c 0
 277 -373 293 -394 318 -394 c 0
 369 -394 398 -318 398 -251 c 0
 398 -212 388 -176 367 -160 c 1
EndSplineSet
EndChar

StartChar: cent
Encoding: 162 162 209
Width: 846
VWidth: 0
Flags: HW
PickledData: "(dp1
S'com.fontlab.hintData'
p2
(dp3
S'vhints'
p4
((dp5
S'position'
p6
I174
sS'width'
p7
I99
s(dp8
g6
I326
sg7
I84
s(dp9
g6
I408
sg7
I95
stp10
sS'hhints'
p11
((dp12
g6
I-20
sg7
I21
stp13
ss."
HStem: -20 21<446 455 446 446>
VStem: 174 99<744.5 836 744.5 860> 326 84<1351.5 1382 1351.5 1385.5> 408 95<15 60.5>
LayerCount: 2
Fore
SplineSet
404 203 m 1
 401 202 l 1
 401 239 409 276 409 313 c 1
 177 402 174 560 174 777 c 0
 174 943 179 1156 337 1254 c 1
 333 1292 326 1330 326 1368 c 0
 326 1403 332 1456 378 1456 c 2
 385 1456 l 1
 415 1436 l 1
 412 1414 410 1393 410 1371 c 0
 410 1332 415 1293 420 1254 c 1
 479 1236 597 1218 604 1140 c 1
 602 1140 l 1
 602 1135 l 2
 602 1114 584 1084 560 1084 c 0
 528 1084 503 1112 492 1140 c 1
 434 1169 l 1
 429 1169 l 1
 434 921 490 676 490 428 c 0
 490 420 488 411 488 403 c 0
 488 399 489 395 490 391 c 1
 568 395 603 452 642 511 c 1
 683 511 701 492 701 451 c 0
 701 373 563 307 497 301 c 1
 493 275 489 249 489 222 c 0
 489 157 503 93 503 28 c 0
 503 2 481 -20 455 -20 c 2
 446 -20 l 1
 408 15 l 1
 411 32 412 49 412 65 c 0
 412 111 404 157 404 203 c 1
338 1125 m 1
 286 1049 273 882 273 790 c 0
 273 699 277 444 396 424 c 1
 395 656 383 897 338 1125 c 1
EndSplineSet
EndChar

StartChar: circumflex
Encoding: 710 710 210
Width: 702
VWidth: 0
Flags: HW
PickledData: "(dp1
S'lstem'
p2
I0
sS'com.fontlab.hintData'
p3
(dp4
S'vhints'
p5
((dp6
S'position'
p7
I182
sS'width'
p8
I337
stp9
sS'hhints'
p10
((dp11
g7
I903
sg8
I416
stp12
ss."
HStem: 903 416
VStem: 182 337
AnchorPoint: "top" 373 1190 mark 0
LayerCount: 2
Fore
SplineSet
273 1378 m 2
 269 1369 258 1364 244 1364 c 0
 221 1364 192 1377 192 1404 c 0
 192 1410 193 1416 196 1423 c 0
 303 1679 318 1766 393 1766 c 0
 445 1766 479 1573 526 1411 c 0
 528 1404 529 1398 529 1393 c 0
 529 1363 503 1350 482 1350 c 0
 469 1350 459 1355 456 1364 c 2
 376 1640 l 1
 273 1378 l 2
EndSplineSet
EndChar

StartChar: colon
Encoding: 58 58 211
Width: 612
VWidth: 0
Flags: HW
PickledData: "(dp1
S'lstem'
p2
I0
sS'com.fontlab.hintData'
p3
(dp4
S'vhints'
p5
((dp6
S'position'
p7
I214
sS'width'
p8
I149
s(dp9
g7
I235
sg8
I149
stp10
sS'hhints'
p11
((dp12
g7
I177
sg8
I152
s(dp13
g7
I951
sg8
I152
stp14
ss."
HStem: 177 152<270.5 305.5> 951 152<290.5 325.5>
VStem: 214 149<231.5 270.5> 235 149<1005.5 1044>
LayerCount: 2
Fore
SplineSet
235 1024 m 0
 235 1064 270 1103 311 1103 c 0
 350 1103 384 1064 384 1026 c 0
 384 979 348 951 303 951 c 0
 265 951 235 987 235 1024 c 0
214 250 m 0
 214 291 250 329 291 329 c 0
 330 329 363 290 363 252 c 0
 363 206 328 177 283 177 c 0
 245 177 214 213 214 250 c 0
EndSplineSet
EndChar

StartChar: comma
Encoding: 44 44 212
Width: 702
VWidth: 0
Flags: HW
PickledData: "(dp1
S'lstem'
p2
I0
sS'com.fontlab.hintData'
p3
(dp4
S'vhints'
p5
((dp6
S'position'
p7
I254
sS'width'
p8
I242
stp9
sS'hhints'
p10
((dp11
g7
I-202
sg8
I387
stp12
ss."
HStem: -202 387<276 450>
VStem: 254 242<-183.5 109>
LayerCount: 2
Fore
SplineSet
425 185 m 0
 475 185 496 141 496 77 c 0
 496 -15 389 -202 284 -202 c 0
 268 -202 254 -192 254 -175 c 0
 254 -163 260 -146 279 -130 c 1
 359 -36 326 185 425 185 c 0
EndSplineSet
EndChar

StartChar: copyright
Encoding: 169 169 213
Width: 1296
VWidth: 0
Flags: HW
PickledData: "(dp1
S'com.fontlab.hintData'
p2
(dp3
S'vhints'
p4
((dp5
S'position'
p6
I134
sS'width'
p7
I118
s(dp8
g6
I347
sg7
I120
s(dp9
g6
I1033
sg7
I114
stp10
sS'hhints'
p11
((dp12
g6
I-20
sg7
I101
s(dp13
g6
I225
sg7
I107
s(dp14
g6
I1387
sg7
I112
s(dp15
g6
I1713
sg7
I99
stp16
ss."
HStem: -20 101<447.5 726.5 447.5 844> 225 107<628.5 701> 1387 112<562.5 681 490 684> 1713 99<446 621.5>
VStem: 134 118<882.5 940 882.5 1066> 347 120<693.5 825 693.5 926.5> 1033 114<589 894 894 931 580 932.5>
LayerCount: 2
Fore
SplineSet
477 911 m 1
 476 911 l 1
 468 878 467 844 467 809 c 2
 467 758 l 2
 467 629 480 332 654 332 c 0
 752 332 770 440 836 440 c 0
 873 440 890 404 890 372 c 0
 890 283 738 225 664 225 c 0
 593 225 536 265 472 291 c 1
 360 504 347 570 347 813 c 2
 347 825 l 2
 347 1028 350 1499 630 1499 c 0
 732 1499 871 1380 871 1275 c 0
 871 1247 850 1223 821 1223 c 0
 721 1223 729 1387 639 1387 c 0
 486 1387 485 1026 473 921 c 1
 477 911 l 1
251 940 m 1
 252 940 l 1
 252 825 264 710 271 595 c 0
 285 366 297 81 598 81 c 0
 855 81 957 234 1012 464 c 0
 1010 470 1009 476 1009 483 c 0
 1009 516 1033 558 1033 589 c 2
 1033 894 l 2
 1033 971 1008 1046 994 1121 c 0
 955 1328 896 1528 717 1658 c 0
 683 1683 644 1713 599 1713 c 0
 293 1713 251 1160 251 940 c 1
134 924 m 0
 134 1208 184 1812 575 1812 c 0
 1037 1812 1147 1105 1147 757 c 0
 1147 403 1064 -20 624 -20 c 0
 179 -20 166 311 146 660 c 0
 141 748 134 836 134 924 c 0
EndSplineSet
EndChar

StartChar: currency
Encoding: 164 164 214
Width: 1008
VWidth: 0
Flags: HW
PickledData: "(dp1
S'lstem'
p2
I0
sS'com.fontlab.hintData'
p3
(dp4
S'vhints'
p5
((dp6
S'position'
p7
I180
sS'width'
p8
I110
s(dp9
g7
I721
sg8
I119
stp10
sS'hhints'
p11
((dp12
g7
I205
sg8
I100
s(dp13
g7
I1181
sg8
I104
stp14
ss."
HStem: 205 100<455.5 501.5> 1181 104<472 480.5 420 507>
VStem: 180 110<556 599.5 556 629.5> 721 119<709.5 809.5>
LayerCount: 2
Fore
SplineSet
290 696 m 1
 293 696 l 1
 294 687 295 678 295 669 c 0
 295 641 290 614 290 585 c 0
 290 527 297 462 344 421 c 1
 344 332 417 305 494 305 c 0
 684 305 721 640 721 779 c 0
 721 840 696 1027 660 1071 c 1
 631 1077 611 1103 608 1132 c 1
 578 1165 529 1181 485 1181 c 0
 459 1181 394 1121 378 1100 c 1
 393 1086 l 1
 393 1055 387 1009 346 1009 c 0
 321 1009 290 774 290 696 c 1
722 251 m 1
 722 248 l 1
 697 293 l 1
 632 235 545 205 458 205 c 0
 389 205 324 243 276 290 c 1
 259 253 239 201 190 201 c 0
 146 201 126 236 126 276 c 0
 126 315 191 360 212 392 c 1
 183 446 180 507 180 567 c 0
 180 692 184 977 252 1078 c 1
 229 1119 155 1160 155 1209 c 0
 155 1235 178 1255 203 1255 c 0
 255 1255 284 1209 311 1172 c 1
 338 1202 399 1285 441 1285 c 0
 520 1285 597 1259 663 1216 c 1
 697 1260 724 1351 792 1351 c 2
 802 1351 l 1
 845 1304 l 1
 841 1241 750 1165 750 1141 c 0
 750 1019 840 902 840 772 c 0
 840 643 773 525 773 396 c 0
 773 335 850 308 850 247 c 0
 850 219 828 195 800 195 c 0
 765 195 726 212 722 251 c 1
EndSplineSet
EndChar

StartChar: d
Encoding: 100 100 215
Width: 846
VWidth: 0
Flags: HW
PickledData: "(dp1
S'lstem'
p2
I0
sS'com.fontlab.hintData'
p3
(dp4
S'vhints'
p5
((dp6
S'position'
p7
I184
sS'width'
p8
I143
s(dp9
g7
I190
sg8
I106
s(dp10
g7
I549
sg8
I104
stp11
sS'hhints'
p12
((dp13
g7
I-12
sg8
I104
s(dp14
g7
I1333
sg8
I20
stp15
ss."
HStem: -12 104<211 429 327 384> 1333 20<221 363>
VStem: 184 143<92 363.5> 190 106<894 964> 549 104<546 592 592 698>
AnchorPoint: "top" 427 1365 basechar 0
LayerCount: 2
Fore
SplineSet
327 141 m 2
 327 92 l 1
 531 92 549 480 549 612 c 0
 549 784 543 1231 311 1258 c 1
 298 1188 296 1116 296 1045 c 0
 296 743 327 443 327 141 c 2
166 1286 m 0
 166 1322 204 1353 238 1353 c 0
 488 1353 657 1054 657 808 c 0
 657 778 653 741 653 705 c 2
 653 592 l 2
 653 340 637 119 384 -12 c 1
 236 -12 l 2
 186 -12 184 190 184 256 c 0
 184 471 190 686 190 901 c 0
 190 1027 166 1184 166 1286 c 0
EndSplineSet
EndChar

StartChar: dagger
Encoding: 8224 8224 216
Width: 900
VWidth: 0
Flags: HW
PickledData: "(dp1
S'lstem'
p2
I0
sS'com.fontlab.hintData'
p3
(dp4
S'vhints'
p5
((dp6
S'position'
p7
I359
sS'width'
p8
I127
s(dp9
g7
I385
sg8
I133
stp10
sS'hhints'
p11
((dp12
g7
I590
sg8
I118
stp13
ss."
HStem: 590 118<221.5 224 189.5 265>
VStem: 359 127<584 597 463.5 599 463.5 599> 385 133<-60 24>
LayerCount: 2
Fore
SplineSet
372 385 m 0
 372 451 359 518 359 584 c 2
 359 599 l 1
 331 599 285 590 245 590 c 0
 198 590 158 602 158 655 c 0
 158 682 175 708 204 708 c 0
 244 708 285 701 325 701 c 0
 341 701 356 702 372 705 c 1
 370 755 360 805 360 855 c 0
 360 900 367 968 426 968 c 0
 458 968 478 942 478 909 c 2
 478 884 l 2
 478 853 478 701 484 701 c 0
 513 701 570 709 624 709 c 0
 679 709 730 697 730 647 c 0
 730 615 704 591 672 591 c 0
 631 591 592 602 551 602 c 0
 517 602 486 598 486 596 c 0
 486 331 518 173 518 -42 c 0
 518 -78 483 -98 451 -98 c 0
 422 -98 385 -79 385 -46 c 0
 385 94 372 241 372 385 c 0
EndSplineSet
EndChar

StartChar: daggerdbl
Encoding: 8225 8225 217
Width: 900
VWidth: 0
Flags: HW
PickledData: "(dp1
S'lstem'
p2
I0
sS'com.fontlab.hintData'
p3
(dp4
S'vhints'
p5
((dp6
S'position'
p7
I372
sS'width'
p8
I114
s(dp9
g7
I385
sg8
I133
stp10
sS'hhints'
p11
((dp12
g7
I171
sg8
I99
s(dp13
g7
I602
sg8
I99
stp14
ss."
HStem: 171 99 602 99
VStem: 372 114 385 133<-60 -13>
LayerCount: 2
Fore
SplineSet
372 385 m 0
 372 451 359 518 359 584 c 2
 359 599 l 1
 331 599 285 590 245 590 c 0
 198 590 158 602 158 655 c 0
 158 682 175 708 204 708 c 0
 244 708 285 701 325 701 c 0
 341 701 356 702 372 705 c 1
 370 755 360 805 360 855 c 0
 360 900 367 968 426 968 c 0
 458 968 478 942 478 909 c 2
 478 884 l 2
 479 853 478 701 505 701 c 0
 530 701 578 709 624 709 c 0
 679 709 730 697 730 647 c 0
 730 615 704 591 672 591 c 0
 631 591 592 602 551 602 c 0
 517 602 486 598 486 596 c 0
 486 546 502 270 518 270 c 0
 543 270 591 278 637 278 c 0
 692 278 743 266 743 216 c 0
 743 184 717 160 685 160 c 0
 644 160 605 171 564 171 c 0
 530 171 499 169 499 162 c 0
 499 94 518 26 518 -42 c 0
 518 -78 483 -98 451 -98 c 0
 422 -98 385 -79 385 -46 c 0
 385 20 372 87 372 153 c 2
 372 168 l 1
 344 168 298 159 258 159 c 0
 211 159 171 171 171 224 c 0
 171 251 188 277 217 277 c 0
 257 277 298 270 338 270 c 0
 354 270 369 271 385 274 c 1
 384 310 372 352 372 385 c 0
EndSplineSet
EndChar

StartChar: dcroat
Encoding: 273 273 219
Width: 882
VWidth: 0
Flags: HW
PickledData: "(dp1
S'lstem'
p2
I0
sS'com.fontlab.hintData'
p3
(dp4
S'vhints'
p5
((dp6
S'position'
p7
I226
sS'width'
p8
I143
s(dp9
g7
I232
sg8
I106
s(dp10
g7
I591
sg8
I104
stp11
sS'hhints'
p12
((dp13
g7
I-12
sg8
I104
s(dp14
g7
I673
sg8
I78
s(dp15
g7
I1333
sg8
I20
stp16
ss."
HStem: -12 104<253 471 369 426> 673 78 1333 20<263 405>
VStem: 226 143<92 256.5> 232 106<888 1080.5> 591 104<546 592 592 698>
LayerCount: 2
Fore
SplineSet
346 755 m 1
 415 754 486 743 486 701 c 0
 486 680 450 676 420 676 c 0
 410 676 382 673 349 672 c 1
 358 495 369 318 369 141 c 2
 369 92 l 1
 573 92 591 480 591 612 c 0
 591 784 585 1231 353 1258 c 1
 340 1188 338 1116 338 1045 c 0
 338 948 342 852 346 755 c 1
232 901 m 0
 232 1027 208 1184 208 1286 c 0
 208 1322 246 1353 280 1353 c 0
 530 1353 699 1054 699 808 c 0
 699 778 695 741 695 705 c 2
 695 592 l 2
 695 340 679 119 426 -12 c 1
 278 -12 l 2
 228 -12 226 190 226 256 c 0
 226 257 228 534 230 673 c 1
 156 676 94 685 94 707 c 0
 94 748 155 751 184 751 c 0
 227 751 236 782 236 820 c 0
 236 846 232 875 232 901 c 0
EndSplineSet
EndChar

StartChar: degree
Encoding: 176 176 221
Width: 882
VWidth: 0
Flags: HW
PickledData: "(dp1
S'lstem'
p2
I0
sS'com.fontlab.hintData'
p3
(dp4
S'vhints'
p5
((dp6
S'position'
p7
I174
sS'width'
p8
I77
s(dp9
g7
I632
sg8
I68
stp10
sS'hhints'
p11
((dp12
g7
I438
sg8
I77
s(dp13
g7
I901
sg8
I69
stp14
ss."
HStem: 438 77<370 506 370 529.5> 901 69<351 503>
VStem: 174 77<674 719 636 799> 632 68<698.5 760.5>
LayerCount: 2
Fore
SplineSet
416 901 m 0
 286 901 251 773 251 665 c 0
 251 607 325 515 415 515 c 0
 597 515 632 668 632 729 c 0
 632 792 590 901 416 901 c 0
174 731 m 0
 174 867 265 970 406 970 c 0
 643 970 700 821 700 733 c 0
 700 649 652 438 407 438 c 0
 216 438 174 617 174 731 c 0
EndSplineSet
EndChar

StartChar: dieresis
Encoding: 168 168 222
Width: 720
VWidth: 0
Flags: HW
PickledData: "(dp1
S'lstem'
p2
I0
sS'com.fontlab.hintData'
p3
(dp4
S'vhints'
p5
((dp6
S'position'
p7
I160
sS'width'
p8
I310
s(dp9
g7
I191
sg8
I100
s(dp10
g7
I436
sg8
I100
stp11
sS'hhints'
p12
((dp13
g7
I-23
sg8
I94
s(dp14
g7
I1261
sg8
I120
s(dp15
g7
I1503
sg8
I428
s(dp16
g7
I1911
sg8
I20
stp17
ss."
HStem: -23 94 1261 120 1503 428 1911 20
VStem: 160 310 191 100 436 100
AnchorPoint: "top" 373 1190 mark 0
LayerCount: 2
Fore
SplineSet
437 1435 m 0
 437 1476 473 1514 514 1514 c 0
 553 1514 587 1475 587 1437 c 0
 587 1390 551 1362 506 1362 c 0
 468 1362 437 1398 437 1435 c 0
107 1445 m 0
 107 1486 143 1524 184 1524 c 0
 223 1524 257 1485 257 1447 c 0
 257 1400 221 1372 176 1372 c 0
 138 1372 107 1408 107 1445 c 0
EndSplineSet
EndChar

StartChar: divide
Encoding: 247 247 223
Width: 900
VWidth: 0
Flags: HW
PickledData: "(dp1
S'lstem'
p2
I0
sS'com.fontlab.hintData'
p3
(dp4
S'vhints'
p5
((dp6
S'position'
p7
I371
sS'width'
p8
I141
stp9
sS'hhints'
p10
((dp11
g7
I369
sg8
I141
s(dp12
g7
I590
sg8
I111
s(dp13
g7
I789
sg8
I141
stp14
ss."
HStem: 369 141<425 461 420.5 463> 590 111<217.5 311.5> 789 141<423.5 460.5>
VStem: 371 141<418.5 447.5 408.5 458>
LayerCount: 2
Fore
SplineSet
158 655 m 0
 158 683 176 701 204 701 c 2
 505 701 l 2
 547 701 589 708 631 708 c 0
 673 708 730 701 730 647 c 0
 730 613 702 600 672 600 c 0
 528 600 383 590 240 590 c 0
 195 590 158 604 158 655 c 0
443 789 m 0
 404 789 368 823 368 862 c 0
 368 899 405 930 441 930 c 0
 483 930 512 893 512 853 c 0
 512 817 478 789 443 789 c 0
512 428 m 0
 512 389 481 369 445 369 c 0
 405 369 371 398 371 439 c 0
 371 477 401 510 440 510 c 0
 482 510 512 467 512 428 c 0
EndSplineSet
EndChar

StartChar: dollar
Encoding: 36 36 225
Width: 846
VWidth: 0
Flags: HW
PickledData: "(dp1
S'lstem'
p2
I0
sS'com.fontlab.hintData'
p3
(dp4
S'vhints'
p5
((dp6
S'position'
p7
I166
sS'width'
p8
I99
s(dp9
g7
I367
sg8
I72
s(dp10
g7
I392
sg8
I88
s(dp11
g7
I421
sg8
I95
s(dp12
g7
I586
sg8
I94
stp13
sS'hhints'
p14
((dp15
g7
I-45
sg8
I93
s(dp16
g7
I1471
sg8
I103
stp17
ss."
HStem: -45 93<364 386 364 386.5> 1471 103<489.5 588>
VStem: 166 99<1197.5 1283 1197.5 1297.5> 367 72<1559 1627> 392 88 421 95<-189.5 -179 -179 -179> 586 94<318 399>
LayerCount: 2
Fore
SplineSet
504 113 m 1
 561 183 586 291 586 345 c 0
 586 453 541 551 480 647 c 1
 504 113 l 1
387 937 m 1
 381 1122 376 1298 372 1433 c 1
 296 1385 265 1308 265 1258 c 0
 265 1137 319 1035 387 937 c 1
369 1535 m 1
 368 1562 367 1584 367 1608 c 0
 367 1646 379 1662 394 1662 c 0
 414 1662 439 1632 439 1586 c 2
 439 1559 l 1
 477 1568 518 1574 564 1574 c 0
 612 1574 666 1545 685 1500 c 1
 650 1456 l 1
 605 1456 552 1471 499 1471 c 0
 480 1471 461 1469 443 1464 c 1
 472 822 l 1
 576 685 680 540 680 342 c 0
 680 218 632 59 516 -10 c 1
 516 -62 516 -113 516 -165 c 0
 516 -214 501 -258 457 -258 c 0
 423 -258 421 -222 421 -195 c 2
 421 -179 l 1
 421 -179 420 -128 417 -43 c 1
 405 -45 393 -45 380 -45 c 0
 340 -45 221 -31 221 24 c 0
 221 52 235 79 267 79 c 0
 311 79 348 48 380 48 c 0
 392 48 403 49 414 52 c 1
 408 236 400 506 392 774 c 1
 282 924 166 1073 166 1245 c 0
 166 1350 233 1473 369 1535 c 1
EndSplineSet
EndChar

StartChar: dotlessi
Encoding: 305 305 227
Width: 774
VWidth: 0
Flags: HW
PickledData: "(dp1
S'lstem'
p2
I0
sS'com.fontlab.hintData'
p3
(dp4
S'vhints'
p5
((dp6
S'position'
p7
I1472
sS'width'
p8
I85
s(dp9
g7
I1534
sg8
I98
stp10
sS'hhints'
p11
((dp12
g7
I-9
sg8
I95
s(dp13
g7
I-8
sg8
I104
s(dp14
g7
I1479
sg8
I96
stp15
ss."
HStem: -9 95 -8 104 1479 96
VStem: 1472 85 1534 98
AnchorPoint: "ogonek" 412 17 basechar 0
AnchorPoint: "top" 278 1537 basechar 0
LayerCount: 2
Fore
SplineSet
275 1308 m 0
 275 1329 278 1356 278 1383 c 0
 278 1432 267 1479 207 1479 c 0
 194 1479 177 1477 160 1477 c 0
 130 1477 102 1483 102 1521 c 0
 102 1574 224 1575 267 1575 c 0
 300 1575 354 1574 372 1541 c 1
 366 1513 360 1484 360 1455 c 0
 360 1329 391 1205 391 1079 c 0
 391 756 435 433 435 109 c 2
 435 96 l 1
 460 98 485 102 510 102 c 1
 510 103 l 1
 546 103 597 99 597 52 c 0
 597 -4 435 -8 364 -8 c 0
 334 -8 326 -9 303 -9 c 0
 262 -9 239 -3 239 47 c 0
 239 75 244 86 292 86 c 0
 316 86 337 93 337 120 c 0
 337 519 275 923 275 1308 c 0
EndSplineSet
EndChar

StartChar: dotlessj
Encoding: 567 567 228
Width: 792
VWidth: 0
Flags: HW
PickledData: "(dp1
S'lstem'
p2
I0
sS'com.fontlab.hintData'
p3
(dp4
S'vhints'
p5
((dp6
S'position'
p7
I353
sS'width'
p8
I109
s(dp9
g7
I371
sg8
I112
stp10
sS'hhints'
p11
((dp12
g7
I1205
sg8
I154
s(dp13
g7
I1242
sg8
I117
stp14
ss."
HStem: 1205 154<464.64 537.22> 1242 117<200.237 348>
VStem: 353 109<791.681 1225> 371 112<-18.6931 628.319>
LayerCount: 2
Fore
SplineSet
483 158 m 1
 407 33 495 -254 237 -254 c 2
 213 -254 l 1
 152 -193 l 1
 150 -174 l 1
 150 -133 277 -64 312 -46 c 1
 358 8 371 117 371 187 c 0
 371 536 353 884 353 1233 c 1
 348 1242 l 1
 306 1247 191 1252 191 1312 c 0
 191 1342 234 1359 258 1359 c 0
 318 1359 623 1327 623 1253 c 0
 623 1222 595 1205 567 1205 c 0
 532 1205 498 1219 463 1225 c 1
 462 1208 l 1
 462 933 483 657 483 382 c 2
 483 158 l 1
EndSplineSet
EndChar

StartChar: e
Encoding: 101 101 231
Width: 720
VWidth: 0
Flags: HW
PickledData: "(dp1
S'lstem'
p2
I0
sS'com.fontlab.hintData'
p3
(dp4
S'vhints'
p5
((dp6
S'position'
p7
I190
sS'width'
p8
I122
s(dp9
g7
I193
sg8
I331
stp10
sS'hhints'
p11
((dp12
g7
I-27
sg8
I104
s(dp13
g7
I718
sg8
I107
stp14
ss."
HStem: -27 104<257 324 306.5 324 306.5 448> 718 107<306 406.5 306 406.5>
VStem: 190 122<501.5 535.5> 193 331<1178 1292>
AnchorPoint: "bot" 347 0 basechar 0
AnchorPoint: "ogonek" 426 0 basechar 0
AnchorPoint: "top" 387 1365 basechar 0
LayerCount: 2
Fore
SplineSet
524 1261 m 0
 524 1229 491 1207 464 1197 c 1
 414 1214 362 1230 309 1236 c 1
 311 1207 312 1177 312 1148 c 0
 312 1050 303 952 303 854 c 0
 303 844 307 832 309 822 c 1
 326 822 354 825 382 825 c 0
 431 825 481 816 481 769 c 0
 481 742 457 714 416 714 c 0
 396 714 374 716 358 718 c 2
 306 718 l 1
 310 666 312 615 312 563 c 0
 312 440 303 315 303 192 c 0
 303 139 306 77 307 77 c 0
 341 77 400 82 458 82 c 0
 498 82 536 73 536 32 c 0
 536 -13 485 -27 448 -27 c 2
 275 -27 l 2
 239 -27 205 1 203 36 c 2
 203 90 l 2
 203 117 200 145 200 174 c 0
 200 261 190 349 190 436 c 0
 190 635 204 835 204 1034 c 0
 204 1092 193 1149 193 1207 c 0
 193 1266 202 1352 279 1352 c 0
 321 1352 524 1323 524 1261 c 0
EndSplineSet
EndChar

StartChar: eight
Encoding: 56 56 240
Width: 738
VWidth: 0
Flags: HW
PickledData: "(dp1
S'lstem'
p2
I0
sS'com.fontlab.hintData'
p3
(dp4
S'vhints'
p5
((dp6
S'position'
p7
I158
sS'width'
p8
I100
s(dp9
g7
I203
sg8
I95
s(dp10
g7
I380
sg8
I91
s(dp11
g7
I467
sg8
I92
stp12
sS'hhints'
p13
((dp14
g7
I-82
sg8
I88
s(dp15
g7
I1515
sg8
I92
stp16
ss."
HStem: -82 88<353.5 406 353.5 413> 1515 92<300 307 286 343>
VStem: 158 100<1365 1431 1365 1465.5> 203 95<169.5 188 188 190 169.5 309.5> 380 91<1260.5 1327> 467 92<60 244>
LayerCount: 2
Fore
SplineSet
307 1515 m 1
 286 1515 l 1
 286 1516 l 1
 261 1488 258 1449 258 1413 c 0
 258 1317 304 1101 335 1007 c 1
 363 1106 380 1209 380 1312 c 0
 380 1342 364 1516 329 1516 c 2
 307 1515 l 1
298 190 m 2
 298 188 l 2
 298 151 308 115 324 81 c 1
 324 71 l 2
 326 50 340 6 367 6 c 0
 445 6 467 74 467 140 c 0
 467 348 413 552 356 750 c 1
 311 604 298 345 298 190 c 2
562 90 m 0
 562 80 560 71 559 61 c 2
 559 60 l 1
 522 -24 461 -82 365 -82 c 0
 235 -82 203 98 203 198 c 0
 203 421 299 672 299 863 c 0
 299 1040 158 1225 158 1421 c 0
 158 1510 197 1607 300 1607 c 2
 343 1607 l 1
 468 1530 471 1466 471 1313 c 0
 471 1160 433 1010 399 862 c 1
 490 651 561 349 561 119 c 0
 561 109 562 99 562 90 c 0
EndSplineSet
EndChar

StartChar: ellipsis
Encoding: 8230 8230 242
Width: 1098
VWidth: 0
Flags: HW
PickledData: "(dp1
S'lstem'
p2
I0
sS'com.fontlab.hintData'
p3
(dp4
S'vhints'
p5
((dp6
S'position'
p7
I174
sS'width'
p8
I150
s(dp9
g7
I469
sg8
I150
s(dp10
g7
I764
sg8
I150
stp11
sS'hhints'
p12
((dp13
g7
I-32
sg8
I152
stp14
ss."
HStem: -32 152<230.5 265.5 525.5 560.5 820.5 855.5>
VStem: 174 150<22.5 61.5> 469 150<22.5 61.5> 764 150<22.5 61.5>
LayerCount: 2
Fore
SplineSet
174 41 m 0
 174 82 210 120 251 120 c 0
 290 120 324 81 324 43 c 0
 324 -4 288 -32 243 -32 c 0
 205 -32 174 4 174 41 c 0
469 41 m 0
 469 82 505 120 546 120 c 0
 585 120 619 81 619 43 c 0
 619 -4 583 -32 538 -32 c 0
 500 -32 469 4 469 41 c 0
764 41 m 0
 764 82 800 120 841 120 c 0
 880 120 914 81 914 43 c 0
 914 -4 878 -32 833 -32 c 0
 795 -32 764 4 764 41 c 0
EndSplineSet
EndChar

StartChar: emdash
Encoding: 8212 8212 244
Width: 1116
VWidth: 0
Flags: HW
PickledData: "(dp1
S'lstem'
p2
I0
sS'com.fontlab.hintData'
p3
(dp4
S'hhints'
p5
((dp6
S'position'
p7
I673
sS'width'
p8
I109
stp9
ss."
HStem: 673 109<807.5 832.5 743 887.5>
LayerCount: 2
Fore
SplineSet
625 779 m 2
 647 779 709 782 777 782 c 0
 888 782 1016 773 1016 725 c 0
 1016 683 931 673 844 673 c 0
 771 673 698 680 671 680 c 2
 303 677 l 2
 285 677 256 674 225 674 c 0
 166 674 102 683 102 733 c 0
 102 761 120 779 148 779 c 2
 625 779 l 2
EndSplineSet
EndChar

StartChar: emptyset
Encoding: 8709 8709 245
Width: 1197
VWidth: 0
Flags: HW
LayerCount: 2
Fore
SplineSet
920 569 m 2
 920 364 815 162 571 162 c 0
 349 162 283 315 259 458 c 1
 900 940 l 1
 916 864 920 797 920 765 c 2
 920 569 l 2
886 996 m 1
 250 524 l 1
 246 574 l 2
 240 647 230 722 230 794 c 0
 230 946 268 1304 562 1304 c 0
 754 1304 845 1144 886 996 c 1
9 325 m 0
 9 310 20 305 32 305 c 0
 63 305 96 340 126 361 c 2
 200 414 l 1
 242 258 340 98 592 98 c 0
 926 98 990 448 990 674 c 0
 990 755 983 869 955 981 c 1
 994 1011 1104 1093 1113 1104 c 0
 1117 1109 1119 1115 1119 1121 c 0
 1119 1128 1113 1145 1102 1145 c 0
 1083 1145 1036 1106 1027 1100 c 2
 939 1035 l 1
 884 1207 769 1360 539 1360 c 0
 203 1360 156 963 156 786 c 0
 156 727 162 670 168 611 c 0
 172 573 177 526 186 476 c 1
 19 354 l 2
 13 346 9 336 9 325 c 0
EndSplineSet
EndChar

StartChar: endash
Encoding: 8211 8211 246
Width: 972
VWidth: 0
Flags: HW
PickledData: "(dp1
S'lstem'
p2
I0
sS'com.fontlab.hintData'
p3
(dp4
S'hhints'
p5
((dp6
S'position'
p7
I636
sS'width'
p8
I105
stp9
ss."
HStem: 636 105<511 801>
LayerCount: 2
Fore
SplineSet
359 737 m 2
 388 737 468 741 554 741 c 0
 687 741 835 731 835 683 c 0
 835 654 815 636 787 636 c 0
 599 636 412 646 224 646 c 0
 193 646 142 649 142 691 c 0
 142 719 160 737 188 737 c 2
 359 737 l 2
EndSplineSet
EndChar

StartChar: eng
Encoding: 331 331 247
Width: 1062
VWidth: 0
Flags: HW
PickledData: "(dp1
S'lstem'
p2
I0
sS'com.fontlab.hintData'
p3
(dp4
S'vhints'
p5
((dp6
S'position'
p7
I182
sS'width'
p8
I112
s(dp9
g7
I762
sg8
I106
stp10
sS'hhints'
p11
((dp12
g7
I1342
sg8
I20
s(dp13
g7
I1342
sg8
I12
stp14
ss."
HStem: 1342 20<269 269> 1342 12
VStem: 182 112<712 892.5> 762 106<1109 1236>
LayerCount: 2
Fore
SplineSet
721 189 m 1
 754 534 762 881 762 1228 c 0
 762 1244 759 1264 759 1283 c 0
 759 1315 767 1344 810 1344 c 0
 852 1344 868 1302 868 1264 c 2
 868 1109 l 2
 866 636 889 -512 573 -512 c 0
 533 -512 499 -493 499 -449 c 0
 499 -350 656 -454 681 -237 c 0
 690 -159 689 -80 697 -1 c 1
 638 136 348 1021 294 1145 c 1
 294 114 l 1
 301 99 315 83 315 66 c 0
 315 32 287 2 253 2 c 0
 194 2 186 84 186 127 c 0
 186 361 182 595 182 829 c 0
 182 956 194 1084 194 1211 c 0
 194 1274 215 1322 269 1362 c 1
 269 1349 l 1
 274 1352 279 1354 284 1354 c 0
 424 1354 666 324 721 189 c 1
EndSplineSet
EndChar

StartChar: equal
Encoding: 61 61 249
Width: 882
VWidth: 0
Flags: HW
PickledData: "(dp1
S'lstem'
p2
I0
sS'com.fontlab.hintData'
p3
(dp4
S'vhints'
p5
((dp6
S'position'
p7
I158
sS'width'
p8
I572
stp9
sS'hhints'
p10
((dp11
g7
I579
sg8
I101
s(dp12
g7
I764
sg8
I108
stp13
ss."
HStem: 579 101<204 686> 764 108<474.5 565>
VStem: 158 572<613 842 801 840>
LayerCount: 2
Fore
SplineSet
511 680 m 2
 609 680 720 674 720 626 c 0
 720 597 700 579 672 579 c 0
 528 579 384 589 240 589 c 0
 209 589 158 592 158 634 c 0
 158 662 176 680 204 680 c 2
 511 680 l 2
571 872 m 2
 640 872 730 866 730 818 c 0
 730 774 616 764 514 764 c 0
 435 764 362 770 359 770 c 0
 341 770 311 767 281 767 c 0
 222 767 158 776 158 826 c 0
 158 854 176 872 204 872 c 2
 571 872 l 2
EndSplineSet
EndChar

StartChar: estimated
Encoding: 8494 8494 250
Width: 914
VWidth: 0
Flags: HW
PickledData: "(dp1
S'com.fontlab.hintData'
p2
(dp3
S'vhints'
p4
((dp5
S'position'
p6
I96
sS'width'
p7
I70
stp8
sS'hhints'
p9
((dp10
g6
I-33
sg7
I68
s(dp11
g6
I1303
sg7
I61
stp12
ss."
HStem: -33 68 1303 61
VStem: 96 70
LayerCount: 2
Fore
SplineSet
253 857 m 2
 253 802 252 746 250 691 c 1
 510 691 l 2
 600 691 666 703 666 1027 c 0
 666 1206 614 1320 501 1320 c 0
 484 1320 466 1317 446 1312 c 0
 309 1276 253 1105 253 865 c 2
 253 857 l 2
784 991 m 2
 784 933 l 2
 784 733 699 588 516 588 c 0
 512 588 507 588 503 588 c 2
 247 598 l 1
 246 550 245 492 245 444 c 0
 245 221 322 68 465 68 c 0
 528 68 595 103 691 165 c 0
 696 170 703 172 709 172 c 0
 732 172 759 147 759 122 c 2
 759 117 l 2
 757 109 753 102 745 95 c 0
 636 7 534 -33 449 -33 c 0
 238 -33 127 196 127 476 c 2
 127 819 l 2
 127 1219 273 1422 474 1422 c 0
 702 1422 784 1265 784 991 c 2
EndSplineSet
EndChar

StartChar: eth
Encoding: 240 240 251
Width: 756
VWidth: 0
Flags: HW
PickledData: "(dp1
S'com.fontlab.hintData'
p2
(dp3
S'vhints'
p4
((dp5
S'position'
p6
I182
sS'width'
p7
I101
s(dp8
g6
I442
sg7
I95
stp9
sS'hhints'
p10
((dp11
g6
I-15
sg7
I87
s(dp12
g6
I1335
sg7
I20
s(dp13
g6
I1473
sg7
I109
stp14
ss."
HStem: -15 87<320.5 388.5 320.5 438.5> 1335 20<554.5 579.5> 1473 109
VStem: 182 101<276.5 490.5> 442 95<599.5 721>
LayerCount: 2
Fore
SplineSet
590 1326 m 0
 590 1289 511 1272 485 1267 c 1
 529 1062 537 850 537 641 c 0
 537 522 528 402 528 283 c 0
 528 159 521 -15 356 -15 c 0
 195 -15 185 173 185 305 c 1
 185 305 182 340 182 400 c 0
 182 581 206 956 396 956 c 0
 404 956 413 955 422 954 c 1
 409 1053 395 1153 374 1251 c 1
 318 1245 261 1242 205 1242 c 0
 192 1242 188 1265 188 1272 c 0
 188 1319 322 1336 354 1340 c 1
 345 1374 326 1450 298 1473 c 1
 265 1478 216 1499 216 1539 c 0
 216 1565 246 1582 269 1582 c 0
 382 1582 437 1441 463 1351 c 1
 500 1353 536 1355 573 1355 c 0
 586 1355 590 1333 590 1326 c 0
351 72 m 0
 426 72 417 160 421 211 c 0
 433 370 442 518 442 681 c 0
 442 761 435 853 383 885 c 1
 284 859 284 472 284 390 c 0
 284 378 283 354 283 325 c 0
 283 228 290 72 351 72 c 0
EndSplineSet
EndChar

StartChar: exclam
Encoding: 33 33 253
Width: 594
VWidth: 0
Flags: HW
PickledData: "(dp1
S'lstem'
p2
I0
sS'com.fontlab.hintData'
p3
(dp4
S'vhints'
p5
((dp6
S'position'
p7
I198
sS'width'
p8
I169
s(dp9
g7
I245
sg8
I137
s(dp10
g7
I247
sg8
I94
stp11
sS'hhints'
p12
((dp13
g7
I-46
sg8
I171
s(dp14
g7
I1552
sg8
I20
stp15
ss."
HStem: -46 171<259 294> 1552 20<311 346>
VStem: 198 169<6.5 51.5 -0.5 55.5> 245 137<1381 1515> 247 94<428.5 462 397 539>
LayerCount: 2
Fore
SplineSet
341 446 m 0
 341 348 323 306 303 306 c 0
 277 306 247 375 247 482 c 0
 247 596 255 713 255 821 c 0
 255 1045 245 1269 245 1493 c 0
 245 1537 290 1572 332 1572 c 0
 360 1572 382 1550 382 1522 c 0
 382 1195 339 870 339 543 c 0
 339 511 341 478 341 446 c 0
367 26 m 0
 367 -27 322 -46 266 -46 c 0
 241 -46 198 -20 198 33 c 0
 198 78 235 125 283 125 c 0
 338 125 367 77 367 26 c 0
EndSplineSet
EndChar

StartChar: exclamdown
Encoding: 161 161 254
Width: 594
VWidth: 0
Flags: HW
PickledData: "(dp1
S'com.fontlab.hintData'
p2
(dp3
S'vhints'
p4
((dp5
S'position'
p6
I198
sS'width'
p7
I137
s(dp8
g6
I213
sg7
I169
s(dp9
g6
I241
sg7
I84
stp10
sS'hhints'
p11
((dp12
g6
I1211
sg7
I171
stp13
ss."
HStem: 1211 171<286 321>
VStem: 198 137<-179 -45 -179 -22.5> 213 169<1284.5 1329.5 1280.5 1336.5> 241 84<403 809>
LayerCount: 2
Fore
SplineSet
239 890 m 0
 239 988 257 1030 277 1030 c 0
 303 1030 333 961 333 854 c 0
 333 740 325 623 325 515 c 0
 325 291 335 67 335 -157 c 0
 335 -201 290 -236 248 -236 c 0
 220 -236 198 -214 198 -186 c 0
 198 141 241 466 241 793 c 0
 241 825 239 858 239 890 c 0
213 1310 m 0
 213 1363 258 1382 314 1382 c 0
 339 1382 382 1356 382 1303 c 0
 382 1258 345 1211 297 1211 c 0
 242 1211 213 1259 213 1310 c 0
EndSplineSet
EndChar

StartChar: f
Encoding: 102 102 255
Width: 756
VWidth: 0
Flags: HW
PickledData: "(dp1
S'lstem'
p2
I0
sS'com.fontlab.hintData'
p3
(dp4
S'vhints'
p5
((dp6
S'position'
p7
I214
sS'width'
p8
I102
s(dp9
g7
I222
sg8
I113
stp10
sS'hhints'
p11
((dp12
g7
I-18
sg8
I21
s(dp13
g7
I640
sg8
I114
s(dp14
g7
I1243
sg8
I121
stp15
ss."
HStem: -18 21<236 262.5> 640 114<369.5 376 346.5 398> 1243 121<283 359 283 335>
VStem: 214 102 222 113<1219 1323.5>
AnchorPoint: "top" 417 1365 basechar 0
LayerCount: 2
Fore
SplineSet
316 753 m 1
 326 753 339 754 354 754 c 0
 398 754 453 747 453 700 c 0
 453 662 415 640 381 640 c 0
 358 640 322 645 300 652 c 1
 300 72 l 2
 300 6 278 -18 247 -18 c 0
 225 -18 199 -6 174 13 c 1
 203 333 197 655 214 975 c 1
 214 1025 l 1
 219 1118 222 1210 222 1303 c 0
 222 1344 265 1364 301 1364 c 0
 355 1364 570 1358 570 1281 c 0
 570 1229 505 1223 466 1223 c 1
 433 1239 395 1243 359 1243 c 2
 335 1243 l 1
 335 1219 l 2
 334 1082 316 945 316 808 c 2
 316 753 l 1
EndSplineSet
EndChar

StartChar: uni02C9
Encoding: 713 713 261
Width: 600
VWidth: 0
Flags: HW
AnchorPoint: "top" 309 912 mark 0
LayerCount: 2
Fore
SplineSet
510 1120 m 0
 508 1106 491 1063 419 1063 c 2
 181 1063 l 2
 140 1063 110 1090 110 1115 c 0
 110 1135 129 1153 176 1153 c 2
 402 1153 l 2
 486 1153 510 1153 510 1120 c 0
EndSplineSet
EndChar

StartChar: five
Encoding: 53 53 262
Width: 792
VWidth: 0
Flags: HW
PickledData: "(dp1
S'lstem'
p2
I0
sS'com.fontlab.hintData'
p3
(dp4
S'vhints'
p5
((dp6
S'position'
p7
I197
sS'width'
p8
I72
s(dp9
g7
I505
sg8
I98
stp10
sS'hhints'
p11
((dp12
g7
I-37
sg8
I104
s(dp13
g7
I1488
sg8
I88
stp14
ss."
HStem: -37 104<332 401.5> 1488 88<269 356 269 269>
VStem: 197 72 505 98<334 456.5>
LayerCount: 2
Fore
SplineSet
197 1008 m 0
 197 1043 208 1077 208 1112 c 0
 208 1256 180 1398 158 1540 c 1
 193 1576 l 1
 360 1576 l 2
 397 1576 445 1572 445 1524 c 2
 445 1513 l 1
 407 1482 l 1
 356 1482 l 1
 356 1488 l 1
 269 1488 l 1
 275 1325 293 1164 309 1002 c 1
 362 996 430 996 475 965 c 0
 577 895 603 553 603 434 c 0
 603 234 603 95 430 -36 c 1
 420 -36 408 -37 395 -37 c 0
 346 -37 283 -31 283 21 c 0
 283 54 318 67 346 67 c 0
 365 67 384 61 399 50 c 1
 473 75 505 259 505 328 c 0
 505 585 501 891 272 891 c 0
 204 891 197 955 197 1008 c 0
EndSplineSet
EndChar

StartChar: florin
Encoding: 402 402 264
Width: 1310
VWidth: 0
Flags: HW
LayerCount: 2
Fore
SplineSet
858 1487 m 0
 881 1490 959 1501 959 1563 c 0
 959 1602 925 1615 907 1615 c 0
 898 1615 889 1614 879 1614 c 0
 848 1614 814 1607 794 1603 c 0
 628 1569 604 1465 604 1285 c 0
 604 1237 597 1202 590 976 c 2
 588 838 l 1
 587 782 l 1
 506 770 434 749 434 715 c 0
 434 680 468 656 501 656 c 0
 515 656 545 657 582 659 c 1
 574 456 560 163 559 133 c 0
 548 -63 543 -78 419 -96 c 1
 420 -110 l 1
 335 -121 l 1
 322 -132 313 -146 313 -166 c 0
 313 -217 365 -225 396 -225 c 0
 427 -225 461 -218 482 -214 c 0
 633 -180 669 -65 669 117 c 0
 669 150 683 354 694 642 c 2
 695 668 l 1
 787 679 876 700 876 739 c 0
 876 775 841 798 808 798 c 0
 791 798 749 797 700 794 c 1
 709 1047 l 2
 709 1139 714 1228 714 1271 c 0
 714 1422 731 1469 858 1487 c 0
EndSplineSet
EndChar

StartChar: foundryicon
Encoding: 65540 -1 265
Width: 1582
VWidth: 0
Flags: HW
PickledData: "(dp1
S'lstem'
p2
I0
s."
LayerCount: 2
Fore
SplineSet
765 350 m 2
 749 350 l 1
 682 293 559 199 492 147 c 0
 459 121 355 8 320 8 c 0
 296 8 274 12 274 42 c 0
 274 66 286 78 294 101 c 0
 326 247 393 399 436 543 c 1
 358 651 250 734 150 824 c 0
 107 862 0 897 0 962 c 0
 0 988 19 1001 47 1001 c 0
 61 1001 229 972 337 972 c 1
 587 962 l 1
 711 1271 l 1
 752 1333 771 1482 846 1482 c 0
 870 1482 911 1444 911 1420 c 0
 911 1317 957 1134 980 1034 c 2
 994 972 l 1
 1069 967 1166 965 1261 965 c 0
 1353 965 1431 972 1511 972 c 0
 1546 972 1582 959 1582 918 c 0
 1582 900 1478 842 1454 824 c 0
 1350 729 1257 607 1129 543 c 1
 1129 528 l 2
 1129 458 1167 368 1183 309 c 1
 1194 307 1253 34 1253 -4 c 0
 1253 -30 1236 -49 1209 -49 c 0
 1140 -49 921 350 765 350 c 2
953 436 m 1
 960 432 964 424 976 424 c 0
 986 424 1006 436 1006 448 c 0
 1006 583 990 715 990 848 c 2
 990 852 l 1
 1005 851 1028 849 1038 849 c 0
 1047 849 1067 855 1067 870 c 0
 1067 887 1047 890 1041 890 c 2
 1011 889 l 2
 982 889 926 895 894 895 c 0
 882 895 867 887 867 876 c 0
 867 854 890 853 937 853 c 1
 939 744 952 637 952 530 c 0
 952 524 953 519 953 514 c 0
 953 507 952 499 952 490 c 0
 952 472 953 454 953 436 c 1
764 864 m 0
 764 857 766 851 766 847 c 0
 766 739 764 633 755 527 c 1
 747 554 742 581 734 607 c 0
 705 695 657 778 637 865 c 0
 635 871 634 885 613 892 c 1
 612 892 l 1
 608 897 l 1
 581 887 577 856 577 837 c 2
 577 828 l 2
 577 789 573 748 573 707 c 0
 573 642 577 577 577 511 c 0
 577 496 575 482 575 466 c 0
 575 457 576 419 603 419 c 0
 618 419 629 433 629 442 c 0
 629 448 629 453 627 459 c 2
 627 528 l 2
 627 525 626 523 626 523 c 2
 623 523 622 600 622 633 c 1
 624 633 l 1
 623 651 622 673 622 692 c 2
 622 779 l 1
 641 727 670 639 677 618 c 0
 678 618 688 583 695 568 c 0
 707 528 726 491 731 448 c 0
 733 446 737 411 765 418 c 1
 765 430 l 1
 770 419 l 1
 788 425 l 1
 800 422 813 751 813 804 c 1
 817 810 l 1
 817 859 l 2
 817 868 807 889 788 889 c 0
 769 889 764 871 764 864 c 0
EndSplineSet
EndChar

StartChar: four
Encoding: 52 52 266
Width: 720
VWidth: 0
Flags: HW
PickledData: "(dp1
S'lstem'
p2
I0
sS'com.fontlab.hintData'
p3
(dp4
S'vhints'
p5
((dp6
S'position'
p7
I182
sS'width'
p8
I102
s(dp9
g7
I213
sg8
I94
s(dp10
g7
I362
sg8
I100
s(dp11
g7
I378
sg8
I89
s(dp12
g7
I380
sg8
I113
stp13
sS'hhints'
p14
((dp15
g7
I-38
sg8
I21
s(dp16
g7
I480
sg8
I96
s(dp17
g7
I507
sg8
I94
stp18
ss."
HStem: -38 21<422 464> 480 96 507 94<510 518>
VStem: 182 102<512 709 686 709 614.5 775> 213 94<1252 1259 1252 1503> 362 100 378 89<413 497> 380 113<59 66 66 66>
LayerCount: 2
Fore
SplineSet
381 1160 m 0
 381 1191 415 1206 434 1206 c 1
 466 1170 l 1
 466 1072 l 2
 466 913 466 753 462 596 c 1
 477 597 499 601 521 601 c 0
 552 601 582 593 582 557 c 0
 582 513 536 507 500 507 c 0
 485 507 467 505 467 489 c 0
 467 436 473 190 488 155 c 1
 486 143 484 130 484 117 c 0
 484 103 485 89 493 76 c 1
 493 39 l 2
 493 9 483 -38 445 -38 c 0
 399 -38 380 23 380 59 c 2
 380 66 l 1
 387 90 391 115 391 140 c 0
 391 207 376 272 376 339 c 0
 376 369 378 398 378 428 c 0
 378 449 377 470 374 491 c 1
 337 489 299 480 262 480 c 1
 262 479 l 1
 231 479 206 493 182 512 c 1
 182 539 184 565 191 591 c 1
 184 628 182 666 182 706 c 0
 182 844 213 991 213 1124 c 2
 213 1503 l 2
 213 1525 215 1543 252 1543 c 0
 281 1543 313 1524 313 1492 c 0
 313 1440 304 1386 304 1333 c 0
 304 1321 303 1308 303 1296 c 0
 303 1284 304 1271 307 1259 c 2
 307 1252 l 1
 311 1216 313 1179 313 1143 c 0
 313 969 284 796 284 622 c 0
 284 607 285 591 287 576 c 1
 312 577 337 581 362 587 c 1
 363 780 381 983 381 1160 c 0
EndSplineSet
EndChar

StartChar: fraction
Encoding: 8260 8260 268
Width: 756
VWidth: 0
Flags: HW
PickledData: "(dp1
S'lstem'
p2
I0
sS'com.fontlab.hintData'
p3
(dp4
S'vhints'
p5
((dp6
S'position'
p7
I166
sS'width'
p8
I441
stp9
sS'hhints'
p10
((dp11
g7
I-31
sg8
I21
s(dp12
g7
I1533
sg8
I20
stp13
ss."
HStem: -31 21<204 212 204 204> 1533 20<529.5 566>
VStem: 166 441
LayerCount: 2
Fore
SplineSet
166 30 m 0
 166 340 426 1099 495 1453 c 0
 501 1483 507 1553 552 1553 c 0
 580 1553 607 1533 607 1503 c 0
 607 1437 580 1374 565 1311 c 0
 486 972 408 632 334 292 c 0
 321 233 287 -31 212 -31 c 2
 204 -31 l 1
 183 -18 166 5 166 30 c 0
EndSplineSet
EndChar

StartChar: g
Encoding: 103 103 269
Width: 853
VWidth: 0
Flags: HW
PickledData: "(dp1
S'lstem'
p2
I0
sS'com.fontlab.hintData'
p3
(dp4
S'vhints'
p5
((dp6
S'position'
p7
I172
sS'width'
p8
I122
s(dp9
g7
I588
sg8
I123
s(dp10
g7
I588
sg8
I111
stp11
sS'hhints'
p12
((dp13
g7
I-16
sg8
I107
s(dp14
g7
I518
sg8
I105
s(dp15
g7
I1252
sg8
I102
stp16
ss."
HStem: -16 107<395 521> 518 105<499 507.5> 1252 102<378.5 460>
VStem: 172 122<611 622 622 680.5 531.5 692 531.5 830> 588 123<417 589.5 511 589.5> 588 111
AnchorPoint: "bot" 450 0 basechar 0
AnchorPoint: "top" 477 1365 basechar 0
LayerCount: 2
Fore
SplineSet
464 -16 m 0
 174 -16 172 346 172 611 c 0
 172 638 172 665 172 692 c 0
 172 968 184 1354 474 1354 c 0
 509 1354 561 1349 561 1302 c 0
 561 1268 527 1247 496 1247 c 0
 481 1247 467 1252 453 1252 c 0
 304 1252 294 732 294 629 c 0
 294 434 301 91 489 91 c 0
 583 91 588 316 588 417 c 2
 588 511 l 1
 573 519 557 519 540 519 c 0
 529 519 515 518 500 518 c 0
 465 518 429 524 429 565 c 0
 429 606 463 624 499 624 c 1
 499 623 l 1
 527 623 l 2
 591 623 711 619 711 560 c 0
 711 509 689 462 689 411 c 0
 689 341 699 266 699 194 c 0
 699 50 578 -16 464 -16 c 0
EndSplineSet
EndChar

StartChar: germandbls
Encoding: 223 223 276
Width: 810
VWidth: 0
Flags: HW
PickledData: "(dp1
S'lstem'
p2
I0
sS'com.fontlab.hintData'
p3
(dp4
S'vhints'
p5
((dp6
S'position'
p7
I190
sS'width'
p8
I100
s(dp9
g7
I195
sg8
I126
s(dp10
g7
I478
sg8
I100
s(dp11
g7
I538
sg8
I99
stp12
sS'hhints'
p13
((dp14
g7
I-47
sg8
I21
s(dp15
g7
I1473
sg8
I112
stp16
ss."
HStem: -47 21<237.5 283.5> 1473 112<349 422.5>
VStem: 190 100<1130.5 1312> 195 126<22 93> 478 100<1190 1297.5> 538 99<369 539.5 369 599>
LayerCount: 2
Fore
SplineSet
455 49 m 0
 451 48 444 45 440 45 c 0
 421 45 391 57 391 81 c 0
 391 134 538 240 538 409 c 0
 538 789 360 776 360 854 c 0
 360 898 478 1106 478 1274 c 0
 478 1321 457 1473 388 1473 c 0
 310 1473 290 1350 290 1294 c 0
 290 878 321 463 321 46 c 0
 321 -2 312 -47 255 -47 c 0
 220 -47 195 -37 195 4 c 0
 195 182 205 360 205 538 c 0
 205 775 190 1012 190 1249 c 0
 190 1375 222 1585 388 1585 c 0
 545 1585 578 1367 578 1249 c 0
 578 1109 524 977 452 859 c 1
 605 744 637 635 637 444 c 0
 637 294 574 143 455 49 c 0
EndSplineSet
EndChar

StartChar: grave
Encoding: 96 96 277
Width: 774
VWidth: 0
Flags: HW
PickledData: "(dp1
S'lstem'
p2
I0
sS'com.fontlab.hintData'
p3
(dp4
S'vhints'
p5
((dp6
S'position'
p7
I254
sS'width'
p8
I393
stp9
sS'hhints'
p10
((dp11
g7
I1543
sg8
I209
stp12
ss."
HStem: 1543 209
VStem: 254 393
AnchorPoint: "top" 593 1190 mark 0
LayerCount: 2
Fore
SplineSet
323 1589 m 0
 338 1589 648 1436 648 1394 c 0
 648 1386 642 1380 633 1380 c 0
 595 1380 255 1482 255 1509 c 0
 255 1536 287 1589 323 1589 c 0
EndSplineSet
EndChar

StartChar: greater
Encoding: 62 62 278
Width: 774
VWidth: 0
Flags: HW
PickledData: "(dp1
S'lstem'
p2
I0
sS'com.fontlab.hintData'
p3
(dp4
S'vhints'
p5
((dp6
S'position'
p7
I482
sS'width'
p8
I118
stp9
sS'hhints'
p10
((dp11
g7
I-23
sg8
I21
stp12
ss."
HStem: -23 21<190.5 207.5>
VStem: 482 118<698 698 698 805>
LayerCount: 2
Fore
SplineSet
482 702 m 0
 482 908 227 1202 225 1411 c 1
 280 1446 l 1
 280 1444 l 1
 367 1404 597 788 600 698 c 1
 239 -19 l 1
 226 -19 214 -23 201 -23 c 0
 180 -23 158 -6 158 24 c 0
 158 116 482 654 482 702 c 0
EndSplineSet
EndChar

StartChar: greaterequal
Encoding: 8805 8805 279
Width: 600
VWidth: 0
Flags: HW
LayerCount: 2
Fore
SplineSet
87 50 m 0
 87 79 117 82 170 82 c 0
 184 82 199 81 215 81 c 2
 384 77 l 1
 403 77 l 2
 426 77 446 78 462 78 c 0
 487 78 495 55 495 42 c 0
 495 28 488 4 461 4 c 0
 436 4 230 4 138 7 c 0
 118 8 87 16 87 50 c 0
178 215 m 2
 172 215 163 212 151 212 c 0
 123 212 105 243 103 253 c 1
 113 265 l 1
 125 273 l 1
 157 315 399 684 399 702 c 0
 399 766 219 1065 172 1218 c 1
 213 1242 l 2
 214 1242 214 1242 215 1242 c 0
 278 1242 303 1148 316 1118 c 0
 350 1038 511 747 511 701 c 0
 511 657 454 613 437 576 c 0
 426 554 410 526 390 500 c 2
 324 408 l 2
 282 349 242 269 194 215 c 1
 178 215 l 2
EndSplineSet
EndChar

StartChar: guillemotleft
Encoding: 171 171 280
Width: 936
VWidth: 0
Flags: HW
PickledData: "(dp1
S'com.fontlab.hintData'
p2
(dp3
S'vhints'
p4
((dp5
S'position'
p6
I383
sS'width'
p7
I117
s(dp8
g6
I607
sg7
I151
stp9
sS'hhints'
p10
((dp11
g6
I-22
sg7
I21
stp12
ss."
HStem: -22 21<777 801.5>
VStem: 383 117 607 151
LayerCount: 2
Fore
SplineSet
523 1440 m 1
 416 1193 343 929 229 687 c 1
 262 526 586 65 586 -13 c 0
 586 -45 548 -59 522 -59 c 0
 477 -59 118 607 118 697 c 0
 118 749 341 1261 379 1361 c 1
 383 1398 415 1456 440 1483 c 1
 440 1485 l 1
 446 1486 453 1489 459 1489 c 0
 488 1489 521 1473 523 1440 c 1
837 49 m 1
 835 19 820 -22 783 -22 c 0
 771 -22 755 -22 743 -18 c 0
 711 -8 423 612 383 698 c 1
 386 798 569 1125 607 1255 c 0
 618 1293 645 1447 706 1447 c 0
 708 1447 710 1446 713 1446 c 2
 758 1411 l 1
 731 1193 500 869 500 702 c 0
 500 679 774 135 811 69 c 1
 837 49 l 1
EndSplineSet
EndChar

StartChar: guillemotright
Encoding: 187 187 281
Width: 954
VWidth: 0
Flags: HW
PickledData: "(dp1
S'com.fontlab.hintData'
p2
(dp3
S'vhints'
p4
((dp5
S'position'
p6
I180
sS'width'
p7
I151
s(dp8
g6
I437
sg7
I118
stp9
sS'hhints'
p10
((dp11
g6
I-23
sg7
I21
stp12
ss."
HStem: -23 21<137.5 162.5>
VStem: 180 151 437 118<698 698 698 805>
LayerCount: 2
Fore
SplineSet
481 1490 m 0
 485 1490 492 1487 496 1486 c 2
 499 1486 l 1
 499 1484 l 1
 500 1485 l 1
 528 1457 557 1402 562 1363 c 1
 600 1264 822 751 822 700 c 0
 822 610 463 -56 419 -56 c 0
 393 -56 354 -43 354 -10 c 0
 354 68 678 528 712 689 c 1
 597 928 565 1211 416 1433 c 1
 419 1467 447 1490 481 1490 c 0
198 -19 m 1
 194 -19 l 2
 181 -19 169 -23 156 -23 c 0
 119 -23 103 19 102 49 c 1
 127 69 l 1
 163 136 437 680 437 702 c 0
 437 908 182 1202 180 1411 c 1
 225 1446 l 1
 235 1444 l 1
 309 1410 311 1324 331 1255 c 0
 369 1123 552 803 555 698 c 1
 198 -19 l 1
EndSplineSet
EndChar

StartChar: guilsinglleft
Encoding: 8249 8249 282
Width: 774
VWidth: 0
Flags: HW
PickledData: "(dp1
S'lstem'
p2
I0
sS'com.fontlab.hintData'
p3
(dp4
S'vhints'
p5
((dp6
S'position'
p7
I158
sS'width'
p8
I117
s(dp9
g7
I382
sg8
I151
stp10
sS'hhints'
p11
((dp12
g7
I-22
sg8
I21
stp13
ss."
HStem: -22 21<550.5 576.5>
VStem: 158 117 382 151
LayerCount: 2
Fore
SplineSet
612 49 m 1
 610 19 595 -22 558 -22 c 0
 543 -22 529 -19 514 -18 c 1
 373 197 270 465 158 698 c 1
 161 798 344 1125 382 1255 c 0
 393 1293 420 1447 481 1447 c 0
 483 1447 485 1446 488 1446 c 2
 533 1411 l 1
 506 1193 275 869 275 702 c 0
 275 679 549 135 586 69 c 1
 612 49 l 1
EndSplineSet
EndChar

StartChar: guilsinglright
Encoding: 8250 8250 283
Width: 774
VWidth: 0
Flags: HW
PickledData: "(dp1
S'lstem'
p2
I0
sS'com.fontlab.hintData'
p3
(dp4
S'vhints'
p5
((dp6
S'position'
p7
I228
sS'width'
p8
I151
s(dp9
g7
I485
sg8
I118
stp10
sS'hhints'
p11
((dp12
g7
I-23
sg8
I21
stp13
ss."
HStem: -23 21<185.5 210.5>
VStem: 228 151 485 118<698 698 698 805>
LayerCount: 2
Fore
SplineSet
246 -19 m 1
 242 -19 l 2
 229 -19 217 -23 204 -23 c 0
 167 -23 151 19 150 49 c 1
 175 69 l 1
 211 136 485 680 485 702 c 0
 485 908 230 1202 228 1411 c 1
 273 1446 l 1
 283 1444 l 1
 357 1410 359 1324 379 1255 c 0
 417 1123 600 803 603 698 c 1
 246 -19 l 1
EndSplineSet
EndChar

StartChar: h
Encoding: 104 104 284
Width: 792
VWidth: 0
Flags: HW
PickledData: "(dp1
S'lstem'
p2
I0
sS'com.fontlab.hintData'
p3
(dp4
S'vhints'
p5
((dp6
S'position'
p7
I185
sS'width'
p8
I118
s(dp9
g7
I461
sg8
I119
s(dp10
g7
I478
sg8
I141
stp11
sS'hhints'
p12
((dp13
g7
I0
sg8
I21
s(dp14
g7
I632
sg8
I80
s(dp15
g7
I1335
sg8
I20
s(dp16
g7
I1354
sg8
I20
stp17
ss."
HStem: 0 21<518 565> 632 80<412.5 441> 1335 20<224 269> 1354 20<505 530.5>
VStem: 185 118<208.5 416> 461 119<1222.5 1335.5> 478 141
AnchorPoint: "top" 387 1365 basechar 0
LayerCount: 2
Fore
SplineSet
481 548 m 2
 481 556 l 2
 482 576 484 595 484 615 c 0
 484 621 472 628 472 634 c 2
 472 636 l 1
 459 633 447 632 435 632 c 0
 390 632 350 649 303 651 c 1
 303 416 l 2
 303 304 315 191 315 79 c 0
 315 44 297 5 257 5 c 0
 197 5 185 134 185 283 c 0
 185 391 191 509 191 595 c 0
 191 619 192 641 192 659 c 0
 192 677 191 692 188 702 c 2
 188 712 l 2
 191 752 196 792 196 832 c 0
 196 986 182 1140 182 1294 c 0
 182 1325 208 1355 240 1355 c 0
 298 1355 305 1276 305 1233 c 0
 305 1063 297 892 297 722 c 1
 334 712 372 712 409 712 c 2
 483 712 l 1
 487 719 488 729 488 738 c 0
 488 932 461 1125 461 1320 c 0
 461 1351 490 1374 520 1374 c 0
 541 1374 560 1362 580 1356 c 1
 580 912 617 208 619 62 c 0
 619 20 582 0 548 0 c 0
 488 0 478 176 478 337 c 0
 478 419 481 498 481 548 c 2
EndSplineSet
EndChar

StartChar: hbar
Encoding: 295 295 285
Width: 900
VWidth: 0
Flags: HW
PickledData: "(dp1
S'lstem'
p2
I0
sS'com.fontlab.hintData'
p3
(dp4
S'vhints'
p5
((dp6
S'position'
p7
I360
sS'width'
p8
I126
s(dp9
g7
I372
sg8
I134
s(dp10
g7
I378
sg8
I108
stp11
sS'hhints'
p12
((dp13
g7
I135
sg8
I111
s(dp14
g7
I602
sg8
I99
stp15
ss."
HStem: 135 111<217.5 311.5> 602 99
VStem: 360 126<525.5 599> 372 134<371 416.5> 378 108<551 573 525.5 584>
LayerCount: 2
Fore
SplineSet
372 385 m 0
 372 451 378 518 378 584 c 1
 360 599 l 1
 332 599 286 590 246 590 c 0
 199 590 158 602 158 655 c 0
 158 682 175 708 204 708 c 0
 244 708 286 701 326 701 c 0
 342 701 356 702 372 705 c 1
 370 755 360 805 360 855 c 0
 360 900 367 968 426 968 c 0
 458 968 486 942 486 909 c 2
 486 904 l 1
 478 884 l 1
 479 853 479 701 506 701 c 0
 531 701 578 709 624 709 c 0
 679 709 730 697 730 647 c 0
 730 615 704 591 672 591 c 0
 631 591 593 602 552 602 c 0
 518 602 486 593 486 553 c 0
 486 498 506 444 506 389 c 0
 506 353 470 333 438 333 c 0
 409 333 372 352 372 385 c 0
158 200 m 0
 158 228 176 246 204 246 c 2
 506 246 l 2
 548 246 590 253 632 253 c 0
 674 253 730 246 730 192 c 0
 730 158 702 145 672 145 c 0
 528 145 383 135 240 135 c 0
 195 135 158 149 158 200 c 0
EndSplineSet
EndChar

StartChar: hcircumflex
Encoding: 293 293 286
Width: 1080
VWidth: 0
Flags: HW
PickledData: "(dp1
S'lstem'
p2
I0
sS'com.fontlab.hintData'
p3
(dp4
S'vhints'
p5
((dp6
S'position'
p7
I126
sS'width'
p8
I112
s(dp9
g7
I555
sg8
I121
s(dp10
g7
I576
sg8
I111
s(dp11
g7
I598
sg8
I116
s(dp12
g7
I770
sg8
I114
stp13
sS'hhints'
p14
((dp15
g7
I-8
sg8
I9
s(dp16
g7
I1098
sg8
I98
s(dp17
g7
I1738
sg8
I116
s(dp18
g7
I1769
sg8
I107
stp19
ss."
HStem: -8 9 1098 98<508.5 583 483.5 594> 1738 116<827 907.5> 1769 107<692.5 696.5 671.5 722>
VStem: 126 112<1384 1455 1339.5 1565.5> 555 121<42.5 207.5> 576 111<1614 1694.5 1570.5 1697> 598 116<827 986.5> 770 114<998 1241.5>
LayerCount: 2
Fore
SplineSet
870 1739 m 1
 871 1540 884 1341 884 1142 c 0
 884 850 872 557 872 265 c 0
 872 188 884 113 884 36 c 0
 884 4 857 -20 826 -20 c 0
 759 -20 751 52 751 103 c 0
 751 461 770 819 770 1177 c 0
 770 1326 755 1474 755 1623 c 0
 755 1642 758 1666 758 1689 c 0
 758 1731 748 1769 696 1769 c 0
 689 1769 687 1700 687 1689 c 0
 687 1452 714 1217 714 980 c 0
 714 674 676 370 676 64 c 0
 676 21 666 -8 617 -8 c 0
 581 -8 555 21 555 56 c 0
 555 359 598 661 598 964 c 0
 598 1009 595 1053 594 1098 c 1
 423 1098 185 1118 139 1321 c 0
 134 1342 135 1364 126 1384 c 1
 126 1747 291 1823 621 1854 c 1
 638 1871 660 1876 683 1876 c 0
 710 1876 737 1864 763 1859 c 1
 762 1858 l 1
 818 1865 l 1
 827 1854 l 1
 862 1852 950 1838 950 1790 c 0
 950 1759 922 1738 893 1738 c 0
 885 1738 878 1739 870 1739 c 1
239 1454 m 1
 238 1455 l 1
 238 1224 386 1196 581 1196 c 0
 585 1196 592 1199 596 1200 c 1
 596 1366 576 1531 576 1697 c 1
 578 1740 l 1
 551 1748 524 1748 496 1748 c 0
 349 1748 239 1591 239 1454 c 1
EndSplineSet
EndChar

StartChar: hungarumlaut
Encoding: 733 733 287
Width: 954
VWidth: 0
Flags: HW
PickledData: "(dp1
S'lstem'
p2
I0
sS'com.fontlab.hintData'
p3
(dp4
S'hhints'
p5
((dp6
S'position'
p7
I0
sS'width'
p8
I440
stp9
ss."
HStem: 0 440
AnchorPoint: "top" 373 1190 mark 0
LayerCount: 2
Fore
SplineSet
466 1323 m 1
 452 1323 446 1336 446 1350 c 0
 446 1400 783 1750 830 1750 c 0
 860 1750 885 1726 892 1702 c 1
 864 1628 532 1359 466 1323 c 1
188 1310 m 1
 188 1323 l 1
 193 1389 452 1750 490 1750 c 0
 515 1750 538 1734 538 1712 c 0
 538 1613 248 1327 188 1310 c 1
EndSplineSet
EndChar

StartChar: hyphen
Encoding: 45 45 288
Width: 792
VWidth: 0
Flags: HW
PickledData: "(dp1
S'lstem'
p2
I0
sS'com.fontlab.hintData'
p3
(dp4
S'vhints'
p5
((dp6
S'position'
p7
I174
sS'width'
p8
I442
stp9
sS'hhints'
p10
((dp11
g7
I656
sg8
I142
stp12
ss."
HStem: 656 142
VStem: 174 442<702.5 751>
AnchorPoint: "mid" 401 727 mark 0
LayerCount: 2
Fore
SplineSet
616 739 m 0
 616 666 299 656 241 656 c 0
 208 656 174 680 174 715 c 0
 174 787 491 798 548 798 c 0
 581 798 616 775 616 739 c 0
EndSplineSet
EndChar

StartChar: i
Encoding: 105 105 289
Width: 774
VWidth: 0
Flags: HW
PickledData: "(dp1
S'lstem'
p2
I0
sS'com.fontlab.hintData'
p3
(dp4
S'vhints'
p5
((dp6
S'position'
p7
I307
sS'width'
p8
I112
stp9
sS'hhints'
p10
((dp11
g7
I18
sg8
I100
s(dp12
g7
I1254
sg8
I102
stp13
ss."
HStem: 18 100<268.5 300> 1254 102<205 503>
VStem: 307 112<608.5 656>
AnchorPoint: "ogonek" 402 0 basechar 0
AnchorPoint: "top" 377 1365 basechar 0
LayerCount: 2
Fore
SplineSet
429 185 m 2
 429 166 428 144 428 128 c 1
 455 128 l 2
 470 128 491 130 514 130 c 0
 555 130 598 122 598 79 c 0
 598 43 565 16 530 16 c 2
 440 16 l 2
 394 16 347 16 321 20 c 0
 313 19 304 18 296 18 c 0
 241 18 223 40 223 64 c 0
 223 90 243 117 259 118 c 2
 317 118 l 1
 318 127 321 136 321 145 c 0
 321 290 307 435 307 580 c 0
 307 732 318 884 318 1036 c 0
 318 1109 315 1184 308 1256 c 1
 269 1256 l 2
 254 1256 238 1254 222 1254 c 0
 188 1254 158 1262 158 1309 c 0
 158 1353 220 1356 259 1356 c 2
 503 1356 l 2
 564 1356 586 1335 586 1313 c 0
 586 1288 559 1262 527 1262 c 2
 422 1262 l 1
 428 1199 430 1136 430 1072 c 0
 430 942 419 811 419 681 c 0
 419 536 429 391 429 246 c 2
 429 185 l 2
EndSplineSet
EndChar

StartChar: infinity
Encoding: 8734 8734 300
Width: 1364
VWidth: 0
Flags: HW
LayerCount: 2
Fore
SplineSet
586 745 m 1
 488 711 288 663 231 663 c 0
 149 663 95 675 95 723 c 0
 95 778 160 800 251 800 c 0
 356 800 490 772 586 745 c 1
1264 737 m 0
 1264 685 1210 665 1134 665 c 0
 1013 665 873 707 772 745 c 1
 866 770 1052 801 1121 801 c 0
 1203 801 1264 782 1264 737 c 0
1336 727 m 2
 1336 852 1160 866 1053 866 c 0
 943 866 844 832 777 814 c 0
 760 809 717 794 682 783 c 1
 647 794 604 809 587 814 c 0
 520 832 421 866 311 866 c 0
 204 866 28 852 28 727 c 2
 28 719 l 2
 28 618 129 588 206 588 c 0
 373 588 530 664 682 708 c 1
 834 664 991 588 1158 588 c 0
 1235 588 1336 618 1336 719 c 2
 1336 727 l 2
EndSplineSet
EndChar

StartChar: integral
Encoding: 8747 8747 301
Width: 600
VWidth: 0
Flags: HW
LayerCount: 2
Fore
SplineSet
498 1487 m 0
 521 1490 599 1501 599 1563 c 0
 599 1602 565 1615 547 1615 c 0
 538 1615 529 1614 519 1614 c 0
 488 1614 454 1607 434 1603 c 0
 268 1569 244 1465 244 1285 c 0
 244 1237 237 1202 230 976 c 2
 228 838 l 1
 214 456 200 163 199 133 c 0
 188 -63 183 -78 59 -96 c 1
 60 -110 l 1
 -25 -121 l 1
 -38 -132 -47 -146 -47 -166 c 0
 -47 -217 5 -225 36 -225 c 0
 67 -225 101 -218 122 -214 c 0
 273 -180 309 -65 309 117 c 0
 309 118 332 588 340 794 c 2
 349 1047 l 2
 349 1139 354 1228 354 1271 c 0
 354 1422 371 1469 498 1487 c 0
EndSplineSet
EndChar

StartChar: j
Encoding: 106 106 304
Width: 756
VWidth: 0
Flags: HW
PickledData: "(dp1
S'lstem'
p2
I129
sS'com.fontlab.hintData'
p3
(dp4
S'vhints'
p5
((dp6
S'position'
p7
I325
sS'width'
p8
I114
s(dp9
g7
I348
sg8
I112
stp10
sS'hhints'
p11
((dp12
g7
I1245
sg8
I94
stp13
ss."
HStem: 1245 94
VStem: 325 114<1233 1242 1242 1242> 348 112<152 164 164 361.5>
AnchorPoint: "top" 387 1365 basechar 0
LayerCount: 2
Fore
SplineSet
460 164 m 2
 460 46 437 -193 149 -193 c 0
 129 -193 125 -183 125 -168 c 0
 125 -158 127 -146 127 -134 c 0
 127 -106 238 -102 289 -46 c 0
 337 6 348 117 348 187 c 0
 348 536 325 884 325 1233 c 2
 325 1242 l 1
 283 1246 168 1249 168 1292 c 0
 168 1322 211 1339 235 1339 c 0
 295 1339 600 1325 600 1293 c 0
 600 1262 572 1245 544 1245 c 2
 439 1245 l 1
 439 963 460 664 460 382 c 2
 460 164 l 2
EndSplineSet
EndChar

StartChar: k
Encoding: 107 107 307
Width: 864
VWidth: 0
Flags: HW
PickledData: "(dp1
S'lstem'
p2
I0
sS'com.fontlab.hintData'
p3
(dp4
S'vhints'
p5
((dp6
S'position'
p7
I182
sS'width'
p8
I110
s(dp9
g7
I221
sg8
I124
stp10
sS'hhints'
p11
((dp12
g7
I-35
sg8
I21
s(dp13
g7
I1337
sg8
I20
s(dp14
g7
I1337
sg8
I20
stp15
ss."
HStem: -35 21<590.5 675> 1337 20<269 299> 1337 20<269 299>
VStem: 182 110<34 396> 221 124<1288 1294 1288 1318>
AnchorPoint: "bot" 420 0 basechar 0
AnchorPoint: "top" 447 1365 basechar 0
LayerCount: 2
Fore
SplineSet
688 1289 m 0
 687 1284 496 976 468 919 c 1
 468 878 464 838 464 797 c 0
 464 678 590 252 652 149 c 0
 677 108 718 71 718 19 c 0
 718 -13 690 -35 660 -35 c 0
 521 -35 387 626 366 752 c 1
 310 641 292 519 292 396 c 2
 292 17 l 2
 292 -14 278 -31 250 -31 c 0
 210 -31 182 -7 182 34 c 2
 182 656 l 2
 182 877 221 1097 221 1318 c 1
 232 1342 256 1357 282 1357 c 0
 316 1357 345 1328 345 1294 c 2
 345 1288 l 1
 319 1243 318 1038 318 915 c 2
 318 842 l 1
 357 912 556 1344 609 1344 c 0
 642 1344 688 1329 688 1289 c 0
EndSplineSet
EndChar

StartChar: l
Encoding: 108 108 311
Width: 684
VWidth: 0
Flags: HW
PickledData: "(dp1
S'lstem'
p2
I0
sS'com.fontlab.hintData'
p3
(dp4
S'vhints'
p5
((dp6
S'position'
p7
I190
sS'width'
p8
I109
s(dp9
g7
I216
sg8
I91
stp10
sS'hhints'
p11
((dp12
g7
I-28
sg8
I16
s(dp13
g7
I-9
sg8
I87
s(dp14
g7
I1335
sg8
I20
stp15
ss."
HStem: -28 16 -9 87<338 349> 1335 20<240 289>
VStem: 190 109<186.5 191.5> 216 91
AnchorPoint: "bot" 370 0 basechar 0
AnchorPoint: "top" 287 1365 basechar 0
LayerCount: 2
Fore
SplineSet
307 545 m 2
 307 435 299 333 299 219 c 0
 299 154 308 78 368 78 c 0
 387 78 420 81 453 81 c 0
 507 81 563 72 563 21 c 0
 563 -11 528 -29 501 -33 c 1
 442 -14 380 -9 318 -9 c 1
 297 -21 272 -28 248 -28 c 0
 214 -28 190 7 190 39 c 0
 190 344 216 649 216 954 c 2
 216 969 l 1
 210 1033 204 1097 204 1161 c 0
 204 1207 205 1355 275 1355 c 0
 303 1355 327 1332 327 1304 c 0
 327 1252 313 1200 313 1148 c 0
 313 984 319 820 319 656 c 1
 308 630 307 599 307 570 c 2
 307 545 l 2
EndSplineSet
EndChar

StartChar: less
Encoding: 60 60 316
Width: 774
VWidth: 0
Flags: HW
PickledData: "(dp1
S'lstem'
p2
I0
sS'com.fontlab.hintData'
p3
(dp4
S'vhints'
p5
((dp6
S'position'
p7
I158
sS'width'
p8
I117
stp9
sS'hhints'
p10
((dp11
g7
I-22
sg8
I71
stp12
ss."
HStem: -22 71<482 612>
VStem: 158 117
LayerCount: 2
Fore
SplineSet
158 698 m 1
 160 756 417 1447 481 1447 c 0
 483 1447 485 1446 488 1446 c 2
 533 1411 l 1
 506 1193 275 869 275 702 c 0
 275 679 549 115 586 49 c 1
 612 49 l 1
 610 19 595 -22 558 -22 c 0
 406 -22 216 577 158 698 c 1
EndSplineSet
EndChar

StartChar: lessequal
Encoding: 8804 8804 317
Width: 600
VWidth: 0
Flags: HW
LayerCount: 2
Fore
SplineSet
93 50 m 0
 93 79 123 82 176 82 c 0
 190 82 205 81 221 81 c 2
 390 77 l 1
 409 77 l 2
 432 77 452 78 468 78 c 0
 493 78 501 55 501 42 c 0
 501 28 494 4 467 4 c 0
 442 4 236 4 144 7 c 0
 124 8 93 16 93 50 c 0
394 215 m 1
 346 269 306 349 264 408 c 2
 198 500 l 2
 178 526 162 554 151 576 c 0
 134 613 77 657 77 701 c 0
 77 747 238 1038 272 1118 c 0
 285 1148 310 1242 373 1242 c 0
 374 1242 374 1242 375 1242 c 2
 416 1218 l 1
 369 1065 189 766 189 702 c 0
 189 684 431 315 463 273 c 1
 475 265 l 1
 485 253 l 1
 483 243 465 212 437 212 c 0
 425 212 416 215 410 215 c 2
 394 215 l 1
EndSplineSet
EndChar

StartChar: logicalnot
Encoding: 172 172 319
Width: 1098
VWidth: 0
Flags: HW
PickledData: "(dp1
S'com.fontlab.hintData'
p2
(dp3
S'vhints'
p4
((dp5
S'position'
p6
I809
sS'width'
p7
I93
stp8
sS'hhints'
p9
((dp10
g6
I711
sg7
I124
s(dp11
g6
I733
sg7
I115
stp12
ss."
HStem: 711 124<155 375.5> 733 115<636.5 870>
VStem: 809 93<564 720>
LayerCount: 2
Fore
SplineSet
169 711 m 0
 141 711 118 735 118 763 c 0
 118 822 229 835 336 835 c 0
 415 835 491 828 519 828 c 0
 631 828 742 848 854 848 c 0
 886 848 921 824 921 790 c 0
 921 766 914 741 902 720 c 1
 902 658 907 596 926 537 c 1
 922 509 904 475 872 475 c 0
 818 475 809 536 809 592 c 0
 809 618 811 643 811 659 c 0
 811 682 810 705 806 727 c 1
 781 728 755 733 730 733 c 0
 543 733 356 711 169 711 c 0
EndSplineSet
EndChar

StartChar: lozenge
Encoding: 9674 9674 320
Width: 712
VWidth: 0
Flags: HW
LayerCount: 2
Fore
SplineSet
446 516 m 1
 434 442 381 238 352 127 c 1
 306 307 252 516 210 672 c 1
 222 734 269 880 298 1032 c 0
 309 1104 324 1180 347 1248 c 1
 391 1055 424 902 494 697 c 1
 446 516 l 1
590 704 m 0
 549 854 497 1008 477 1102 c 0
 454 1206 424 1330 413 1380 c 1
 377 1398 l 2
 374 1398 371 1399 368 1399 c 0
 318 1399 288 1333 267 1265 c 0
 250 1212 222 1162 211 1111 c 0
 194 1022 176 936 155 852 c 0
 142 798 133 742 115 693 c 0
 113 687 112 683 112 678 c 0
 112 674 113 670 114 665 c 0
 155 515 199 365 219 271 c 0
 242 167 280 39 291 -11 c 1
 327 -29 l 2
 330 -29 333 -30 336 -30 c 0
 386 -30 416 36 437 104 c 0
 463 191 523 455 539 521 c 0
 553 574 571 627 589 676 c 0
 591 682 592 686 592 691 c 0
 592 695 591 699 590 704 c 0
EndSplineSet
EndChar

StartChar: lslash
Encoding: 322 322 321
Width: 774
VWidth: 0
Flags: HW
PickledData: "(dp1
S'lstem'
p2
I0
sS'com.fontlab.hintData'
p3
(dp4
S'vhints'
p5
((dp6
S'position'
p7
I227
sS'width'
p8
I109
s(dp9
g7
I253
sg8
I97
stp10
sS'hhints'
p11
((dp12
g7
I-28
sg8
I106
s(dp13
g7
I-9
sg8
I87
s(dp14
g7
I1335
sg8
I20
stp15
ss."
HStem: -28 106<268 359.5> -9 87<355 359.5 342 386> 1335 20<277 326>
VStem: 227 109 253 97
LayerCount: 2
Fore
SplineSet
552 771 m 0
 552 723 471 714 356 686 c 1
 345 650 344 609 344 570 c 2
 344 545 l 2
 344 435 336 333 336 219 c 0
 336 154 341 78 343 78 c 0
 376 78 433 81 490 81 c 0
 544 81 600 72 600 21 c 0
 600 -11 565 -29 538 -33 c 1
 479 -14 417 -9 355 -9 c 1
 334 -21 309 -28 285 -28 c 0
 251 -28 227 7 227 39 c 0
 227 45 238 446 246 650 c 1
 196 626 157 618 137 618 c 0
 124 618 110 634 110 657 c 0
 110 697 174 721 249 736 c 1
 251 809 253 881 253 954 c 2
 253 969 l 1
 247 1033 241 1097 241 1161 c 0
 241 1207 242 1355 312 1355 c 0
 340 1355 364 1332 364 1304 c 0
 364 1252 350 1200 350 1148 c 0
 350 1024 354 899 355 775 c 1
 427 800 491 807 515 807 c 0
 533 807 552 793 552 771 c 0
EndSplineSet
EndChar

StartChar: m
Encoding: 109 109 322
Width: 1206
VWidth: 0
Flags: HW
PickledData: "(dp1
S'lstem'
p2
I0
sS'com.fontlab.hintData'
p3
(dp4
S'vhints'
p5
((dp6
S'position'
p7
I150
sS'width'
p8
I123
s(dp9
g7
I887
sg8
I116
s(dp10
g7
I916
sg8
I133
s(dp11
g7
I917
sg8
I107
stp12
sS'hhints'
p13
((dp14
g7
I-40
sg8
I21
stp15
ss."
HStem: -40 21<195.5 237>
VStem: 150 123<79 218> 887 116 916 133<-38.5 64.5> 917 107<191 372>
AnchorPoint: "top" 607 1365 basechar 0
LayerCount: 2
Fore
SplineSet
887 806 m 0
 887 890 895 975 895 1059 c 1
 855 937 690 114 603 114 c 0
 549 114 518 149 518 202 c 0
 518 348 365 904 312 1065 c 1
 295 740 273 415 273 89 c 0
 273 69 276 47 276 28 c 0
 276 -10 266 -40 208 -40 c 0
 183 -40 150 -20 150 9 c 0
 150 427 213 843 213 1261 c 1
 206 1272 201 1288 201 1301 c 0
 201 1340 250 1351 280 1351 c 0
 347 1351 586 520 614 370 c 1
 655 505 821 1348 928 1348 c 0
 959 1348 1003 1329 1003 1292 c 0
 1003 1002 1029 693 1029 423 c 0
 1029 351 1024 279 1024 207 c 2
 1024 206 l 2
 1024 176 1040 23 1040 20 c 0
 1045 8 1049 -6 1049 -19 c 0
 1049 -58 1024 -107 980 -107 c 0
 921 -107 916 -21 916 21 c 0
 916 108 917 196 917 283 c 0
 917 461 887 643 887 806 c 0
EndSplineSet
EndChar

StartChar: macron
Encoding: 175 175 323
Width: 900
VWidth: 0
Flags: HW
PickledData: "(dp1
S'com.fontlab.hintData'
p2
(dp3
S'vhints'
p4
((dp5
S'position'
p6
I158
sS'width'
p7
I572
stp8
sS'hhints'
p9
((dp10
g6
I590
sg7
I111
stp11
ss."
HStem: 590 111
VStem: 158 572
AnchorPoint: "top" 403 1190 mark 0
AnchorPoint: "mid" 428 1477 mark 0
LayerCount: 2
Fore
SplineSet
156 1486 m 0
 156 1514 174 1532 202 1532 c 2
 503 1532 l 2
 545 1532 587 1539 629 1539 c 0
 671 1539 728 1532 728 1478 c 0
 728 1444 700 1431 670 1431 c 0
 526 1431 381 1421 238 1421 c 0
 193 1421 156 1435 156 1486 c 0
EndSplineSet
EndChar

StartChar: minus
Encoding: 8722 8722 325
Width: 900
VWidth: 0
Flags: HW
PickledData: "(dp1
S'lstem'
p2
I0
sS'com.fontlab.hintData'
p3
(dp4
S'vhints'
p5
((dp6
S'position'
p7
I158
sS'width'
p8
I572
stp9
sS'hhints'
p10
((dp11
g7
I590
sg8
I111
stp12
ss."
HStem: 590 111<217.5 311.5>
VStem: 158 572<630 669>
LayerCount: 2
Fore
SplineSet
158 655 m 0
 158 683 176 701 204 701 c 2
 505 701 l 2
 547 701 589 708 631 708 c 0
 673 708 730 701 730 647 c 0
 730 613 702 600 672 600 c 0
 528 600 383 590 240 590 c 0
 195 590 158 604 158 655 c 0
EndSplineSet
EndChar

StartChar: mu
Encoding: 956 956 326
Width: 800
VWidth: 0
Flags: HW
PickledData: "(dp1
S'lstem'
p2
I0
s."
LayerCount: 2
Fore
SplineSet
642 1305 m 0
 642 1381 640 1399 585 1399 c 0
 566 1399 528 1393 528 1366 c 0
 528 1354 532 1341 532 1329 c 0
 532 1053 526 772 518 496 c 1
 509 348 492 35 417 35 c 0
 305 35 285 160 285 258 c 2
 285 287 l 2
 282 422 263 557 263 692 c 2
 257 1235 l 2
 257 1239 257 1244 257 1249 c 0
 257 1293 254 1359 176 1359 c 0
 174 1359 173 1359 171 1359 c 2
 153 1319 l 1
 173 1161 162 615 188 286 c 1
 189 164 195 40 195 -82 c 0
 195 -175 194 -242 194 -289 c 0
 194 -377 194 -403 235 -403 c 0
 281 -403 290 -383 290 -356 c 0
 290 -240 286 -120 285 -3 c 1
 316 -23 356 -40 392 -41 c 0
 671 -41 599 584 623 878 c 1
 623 879 l 2
 623 893 621 906 621 920 c 0
 621 973 631 1030 631 1083 c 0
 631 1086 631 1090 629 1096 c 0
 639 1139 642 1240 642 1305 c 0
EndSplineSet
EndChar

StartChar: multiply
Encoding: 215 215 327
Width: 828
VWidth: 0
Flags: HW
PickledData: "(dp1
S'lstem'
p2
I0
sS'com.fontlab.hintData'
p3
(dp4
S'vhints'
p5
((dp6
S'position'
p7
I158
sS'width'
p8
I338
stp9
sS'hhints'
p10
((dp11
g7
I399
sg8
I481
stp12
ss."
HStem: 399 481<203 601>
VStem: 158 338<613 838.5>
LayerCount: 2
Fore
SplineSet
549 412 m 1
 526 434 418 557 403 562 c 1
 377 560 317 430 251 430 c 0
 221 430 189 460 189 490 c 0
 189 528 297 601 323 638 c 1
 277 681 158 755 158 823 c 0
 158 854 188 880 218 880 c 0
 244 880 375 748 407 721 c 1
 463 750 505 866 580 866 c 0
 608 866 634 839 634 811 c 0
 634 745 496 707 496 643 c 0
 496 583 655 539 655 473 c 0
 655 435 620 399 582 399 c 1
 549 412 l 1
EndSplineSet
EndChar

StartChar: n
Encoding: 110 110 328
Width: 1044
VWidth: 0
Flags: HW
PickledData: "(dp1
S'lstem'
p2
I0
sS'com.fontlab.hintData'
p3
(dp4
S'vhints'
p5
((dp6
S'position'
p7
I182
sS'width'
p8
I112
s(dp9
g7
I762
sg8
I106
stp10
sS'hhints'
p11
((dp12
g7
I-6
sg8
I21
s(dp13
g7
I1342
sg8
I20
s(dp14
g7
I1342
sg8
I12
stp15
ss."
HStem: -6 21<692.5 734> 1342 20<269 269> 1342 12
VStem: 182 112<712 892.5> 762 106<1109 1236>
AnchorPoint: "bot" 500 0 basechar 0
AnchorPoint: "top" 567 1365 basechar 0
LayerCount: 2
Fore
SplineSet
721 189 m 1
 754 534 762 881 762 1228 c 0
 762 1244 759 1264 759 1283 c 0
 759 1315 767 1344 810 1344 c 0
 852 1344 868 1302 868 1264 c 2
 868 1109 l 2
 867 951 846 92 794 11 c 1
 771 4 746 -6 722 -6 c 0
 663 -6 672 55 653 93 c 0
 653 95 654 98 654 102 c 0
 654 219 350 1016 294 1145 c 1
 294 114 l 1
 301 99 315 83 315 66 c 0
 315 32 287 2 253 2 c 0
 194 2 186 84 186 127 c 0
 186 361 182 595 182 829 c 0
 182 956 194 1084 194 1211 c 0
 194 1274 215 1322 269 1362 c 1
 269 1349 l 1
 274 1352 279 1354 284 1354 c 0
 424 1354 666 324 721 189 c 1
EndSplineSet
EndChar

StartChar: nine
Encoding: 57 57 333
Width: 756
VWidth: 0
Flags: HW
PickledData: "(dp1
S'lstem'
p2
I0
sS'com.fontlab.hintData'
p3
(dp4
S'vhints'
p5
((dp6
S'position'
p7
I190
sS'width'
p8
I100
s(dp9
g7
I455
sg8
I68
s(dp10
g7
I462
sg8
I98
stp11
sS'hhints'
p12
((dp13
g7
I-34
sg8
I21
s(dp14
g7
I1527
sg8
I87
stp15
ss."
HStem: -34 21<455 480> 1527 87<348.5 421>
VStem: 190 100<1166 1276.5 1166 1306.5> 455 68<-34 56.5> 462 98<1357.5 1453.5>
LayerCount: 2
Fore
SplineSet
453 1009 m 1
 461 1148 462 1288 462 1427 c 0
 462 1480 453 1527 389 1527 c 0
 308 1527 290 1306 290 1247 c 0
 290 1085 350 1067 453 1009 c 1
536 237 m 0
 535 188 522 139 522 90 c 0
 522 78 523 64 523 49 c 0
 523 9 505 -34 455 -34 c 1
 423 4 l 1
 453 94 455 502 455 686 c 0
 455 772 452 848 451 931 c 1
 302 965 190 1087 190 1243 c 0
 190 1370 217 1614 388 1614 c 0
 529 1614 560 1547 560 1420 c 0
 560 1026 536 631 536 237 c 0
EndSplineSet
EndChar

StartChar: notequal
Encoding: 8800 8800 335
Width: 882
VWidth: 0
Flags: HW
LayerCount: 2
Fore
SplineSet
534 1014 m 0
 534 994 485 849 478 826 c 0
 430 686 381 547 333 407 c 0
 328 390 318 383 307 383 c 0
 295 383 285 394 285 408 c 0
 285 410 285 413 286 416 c 0
 347 598 409 780 475 958 c 0
 479 970 499 1038 512 1038 c 0
 524 1038 534 1029 534 1014 c 0
EndSplineSet
Refer: 249 61 N 1 0 0 1 -21 0 2
EndChar

StartChar: numbersign
Encoding: 35 35 337
Width: 882
VWidth: 0
Flags: HW
PickledData: "(dp1
S'lstem'
p2
I0
sS'com.fontlab.hintData'
p3
(dp4
S'vhints'
p5
((dp6
S'position'
p7
I291
sS'width'
p8
I94
s(dp9
g7
I344
sg8
I90
s(dp10
g7
I472
sg8
I106
s(dp11
g7
I567
sg8
I74
s(dp12
g7
I650
sg8
I101
stp13
sS'hhints'
p14
((dp15
g7
I571
sg8
I112
s(dp16
g7
I586
sg8
I113
s(dp17
g7
I945
sg8
I101
s(dp18
g7
I960
sg8
I94
s(dp19
g7
I1547
sg8
I20
stp20
ss."
HStem: 571 112<175 197.5> 586 113<664 670 664 664> 945 101<225.5 246.5 225.5 249.5> 960 94<456.5 487> 1547 20<396 411 411 411>
VStem: 291 94 344 90<1442.5 1462.5> 472 106<-39 66 -39 67> 567 74 650 101
LayerCount: 2
Fore
SplineSet
353 686 m 1
 361 685 370 685 378 685 c 0
 430 685 483 685 534 691 c 1
 549 777 566 864 567 952 c 1
 536 959 503 960 471 960 c 0
 442 960 413 959 385 954 c 1
 361 867 356 776 353 686 c 1
747 637 m 1
 748 637 l 1
 747 595 704 586 670 586 c 2
 664 586 l 1
 634 587 l 1
 616 378 578 171 578 -39 c 1
 543 -81 l 1
 514 -81 472 -74 472 -37 c 0
 472 171 530 374 537 581 c 1
 490 585 442 585 395 585 c 2
 345 582 l 1
 333 488 320 -80 234 -80 c 0
 209 -80 176 -65 176 -36 c 0
 176 170 208 375 247 576 c 1
 229 574 208 571 187 571 c 0
 143 571 102 583 102 637 c 0
 102 676 152 683 198 683 c 0
 223 683 247 681 260 681 c 1
 275 769 284 859 291 948 c 1
 278 947 259 945 240 945 c 0
 194 945 143 955 143 1004 c 2
 143 1014 l 1
 173 1047 l 1
 194 1047 215 1046 236 1046 c 0
 257 1046 278 1047 299 1049 c 1
 316 1185 344 1320 344 1457 c 0
 344 1468 343 1481 343 1494 c 0
 343 1530 349 1567 396 1567 c 2
 411 1567 l 1
 434 1520 l 1
 434 1365 399 1213 397 1058 c 1
 415 1054 433 1054 452 1054 c 2
 488 1054 l 2
 518 1054 547 1055 576 1062 c 1
 608 1219 625 1377 650 1535 c 1
 663 1552 681 1566 703 1566 c 0
 723 1566 751 1546 751 1525 c 0
 751 1369 682 1223 678 1067 c 1
 744 1067 l 1
 787 1020 l 1
 780 991 769 959 733 959 c 2
 666 962 l 1
 647 875 642 786 641 698 c 1
 648 698 655 699 662 699 c 0
 703 699 747 687 747 637 c 1
EndSplineSet
EndChar

StartChar: o
Encoding: 111 111 338
Width: 900
VWidth: 0
Flags: HW
PickledData: "(dp1
S'lstem'
p2
I0
sS'com.fontlab.hintData'
p3
(dp4
S'vhints'
p5
((dp6
S'position'
p7
I176
sS'width'
p8
I111
s(dp9
g7
I603
sg8
I106
stp10
sS'hhints'
p11
((dp12
g7
I-38
sg8
I85
s(dp13
g7
I1269
sg8
I109
stp14
ss."
HStem: -38 85<365 510.5 365 569> 1269 109<358 458>
VStem: 176 111<518 748.5> 603 106<509 783>
AnchorPoint: "ogonek" 486 0 basechar 0
AnchorPoint: "top" 447 1365 basechar 0
LayerCount: 2
Fore
SplineSet
407 1269 m 0
 309 1269 295 1141 295 1027 c 0
 295 981 297 937 297 906 c 0
 297 843 287 780 287 717 c 0
 287 613 298 47 432 47 c 0
 589 47 603 454 603 564 c 0
 603 723 577 882 576 1041 c 2
 576 1077 l 2
 573 1171 509 1269 407 1269 c 0
709 798 m 2
 709 783 l 2
 709 706 713 628 713 551 c 0
 713 368 698 -38 440 -38 c 0
 207 -38 176 410 176 626 c 0
 176 658 178 677 178 704 c 0
 178 711 177 714 175 714 c 2
 175 751 l 2
 175 860 174 1378 329 1378 c 0
 615 1378 709 1114 709 798 c 2
EndSplineSet
EndChar

StartChar: oe
Encoding: 339 339 345
Width: 1008
VWidth: 0
Flags: HW
PickledData: "(dp1
S'com.fontlab.hintData'
p2
(dp3
S'vhints'
p4
((dp5
S'position'
p6
I166
sS'width'
p7
I109
s(dp8
g6
I567
sg7
I140
s(dp9
g6
I610
sg7
I97
stp10
sS'hhints'
p11
((dp12
g6
I-38
sg7
I85
s(dp13
g6
I-27
sg7
I91
s(dp14
g6
I718
sg7
I79
s(dp15
g6
I1214
sg7
I138
s(dp16
g6
I1269
sg7
I79
stp17
ss."
HStem: -38 85<356 468> -27 91<652 719 701.5 719 701.5 843> 718 79<704 715.5 704 831 701 715.5> 1214 138 1269 79<344.5 449>
VStem: 166 109<751 993.5> 567 140 610 97<1178 1255>
LayerCount: 2
Fore
SplineSet
398 1269 m 0
 291 1269 275 1078 275 909 c 0
 275 835 278 765 278 717 c 0
 278 613 289 47 423 47 c 0
 580 47 594 454 594 564 c 0
 594 723 568 882 567 1041 c 2
 567 1077 l 2
 564 1171 500 1269 398 1269 c 0
707 1256 m 1
 707 1148 l 2
 707 1145 698 961 698 867 c 0
 698 840 701 818 704 797 c 1
 727 797 771 801 798 801 c 0
 839 801 876 792 876 769 c 0
 876 744 859 718 831 718 c 2
 701 718 l 1
 705 666 707 615 707 563 c 0
 707 440 698 315 698 192 c 0
 698 133 701 64 702 64 c 0
 736 64 795 69 853 69 c 0
 886 69 918 60 918 19 c 0
 918 -16 875 -27 843 -27 c 2
 670 -27 l 2
 634 -27 600 1 598 36 c 2
 598 127 l 1
 575 16 505 -38 431 -38 c 0
 198 -38 167 410 167 626 c 0
 167 658 169 677 169 704 c 0
 169 711 168 714 166 714 c 2
 166 751 l 2
 166 887 174 1348 405 1348 c 0
 500 1348 577 1269 610 1178 c 1
 610 1332 628 1352 674 1352 c 0
 716 1352 919 1323 919 1261 c 0
 919 1242 907 1214 879 1214 c 0
 823 1214 763 1250 707 1256 c 1
EndSplineSet
EndChar

StartChar: ogonek
Encoding: 731 731 346
Width: 702
VWidth: 0
Flags: HW
PickledData: "(dp1
S'lstem'
p2
I0
sS'com.fontlab.hintData'
p3
(dp4
S'vhints'
p5
((dp6
S'position'
p7
I254
sS'width'
p8
I70
stp9
sS'hhints'
p10
((dp11
g7
I-366
sg8
I65
stp12
ss."
HStem: -366 65<340 361>
VStem: 254 70<-258 -200>
AnchorPoint: "ogonek" 459 0 mark 0
LayerCount: 2
Fore
SplineSet
502 12 m 1
 431 -47 324 -145 324 -250 c 0
 324 -266 329 -301 351 -301 c 0
 382 -301 412 -286 437 -268 c 1
 451 -302 l 1
 451 -342 377 -366 345 -366 c 0
 286 -366 254 -313 254 -259 c 0
 254 -141 352 -46 447 12 c 1
 502 12 l 1
EndSplineSet
EndChar

StartChar: one
Encoding: 49 49 351
Width: 774
VWidth: 0
Flags: HW
PickledData: "(dp1
S'lstem'
p2
I0
sS'com.fontlab.hintData'
p3
(dp4
S'vhints'
p5
((dp6
S'position'
p7
I275
sS'width'
p8
I85
s(dp9
g7
I337
sg8
I98
stp10
sS'hhints'
p11
((dp12
g7
I-9
sg8
I95
s(dp13
g7
I-8
sg8
I104
s(dp14
g7
I1479
sg8
I96
stp15
ss."
HStem: -9 95<282.5 304 268 314.5> -8 104<349 435> 1479 96<200.5 283.5>
VStem: 275 85<1115.5 1469.5> 337 98<106.5 109 96 319.5>
LayerCount: 2
Fore
SplineSet
275 1308 m 0
 275 1329 278 1356 278 1383 c 0
 278 1432 267 1479 207 1479 c 0
 194 1479 177 1477 160 1477 c 0
 130 1477 102 1483 102 1521 c 0
 102 1574 224 1575 267 1575 c 0
 300 1575 354 1574 372 1541 c 1
 366 1513 360 1484 360 1455 c 0
 360 1329 391 1205 391 1079 c 0
 391 756 435 433 435 109 c 2
 435 96 l 1
 460 98 485 102 510 102 c 1
 510 103 l 1
 546 103 597 99 597 52 c 0
 597 -4 435 -8 364 -8 c 0
 334 -8 326 -9 303 -9 c 0
 262 -9 239 -3 239 47 c 0
 239 75 244 86 292 86 c 0
 316 86 337 93 337 120 c 0
 337 519 275 923 275 1308 c 0
EndSplineSet
EndChar

StartChar: onesuperior
Encoding: 185 185 354
Width: 774
VWidth: 0
Flags: HW
PickledData: "(dp1
S'com.fontlab.hintData'
p2
(dp3
S'vhints'
p4
((dp5
S'position'
p6
I275
sS'width'
p7
I85
s(dp8
g6
I292
sg7
I98
stp9
sS'hhints'
p10
((dp11
g6
I534
sg7
I95
s(dp12
g6
I535
sg7
I104
s(dp13
g6
I1479
sg7
I96
stp14
ss."
HStem: 534 95<237.5 259 223 269.5> 535 104<304 390> 1479 96<200.5 283.5>
VStem: 275 85<1203.5 1469.5> 292 98<649.5 652 639 771.5>
LayerCount: 2
Fore
SplineSet
275 1308 m 0
 275 1329 278 1356 278 1383 c 0
 278 1432 267 1479 207 1479 c 0
 194 1479 177 1477 160 1477 c 0
 130 1477 102 1483 102 1521 c 0
 102 1574 224 1575 267 1575 c 0
 300 1575 354 1574 372 1541 c 1
 366 1513 360 1484 360 1455 c 0
 360 1289 384 1127 384 961 c 0
 384 858 390 755 390 652 c 2
 390 639 l 1
 415 641 440 645 465 645 c 1
 465 646 l 1
 501 646 552 642 552 595 c 0
 552 539 390 535 319 535 c 0
 289 535 281 534 258 534 c 0
 217 534 194 540 194 590 c 0
 194 618 199 629 247 629 c 0
 271 629 292 636 292 663 c 0
 292 880 275 1099 275 1308 c 0
EndSplineSet
EndChar

StartChar: ordfeminine
Encoding: 170 170 356
Width: 864
VWidth: 0
Flags: HW
PickledData: "(dp1
S'com.fontlab.hintData'
p2
(dp3
S'vhints'
p4
((dp5
S'position'
p6
I598
sS'width'
p7
I125
stp8
sS'hhints'
p9
((dp10
g6
I66
sg7
I94
s(dp11
g6
I1353
sg7
I20
s(dp12
g6
I1353
sg7
I20
stp13
ss."
HStem: 66 94<175 260.5> 1353 20<400 469 469 535> 1353 20<400 469 469 535>
VStem: 598 125<297 309 309 311 297 362.5>
LayerCount: 2
Fore
SplineSet
723 311 m 2
 723 309 l 2
 723 285 712 260 689 251 c 1
 640 251 598 260 598 319 c 0
 598 406 568 572 568 572 c 1
 366 602 l 1
 322 444 341 259 251 259 c 0
 221 259 186 281 186 314 c 0
 186 554 321 859 356 1100 c 0
 365 1169 363 1317 400 1373 c 1
 469 1373 l 2
 601 1373 723 431 723 311 c 2
555 645 m 1
 533 755 517 967 484 1184 c 1
 445 1019 390 777 374 678 c 1
 409 655 511 648 555 645 c 1
674 160 m 2
 709 160 724 144 724 124 c 0
 724 103 702 78 668 78 c 0
 638 78 607 78 579 76 c 0
 452 76 324 66 197 66 c 0
 153 66 118 89 118 110 c 0
 118 138 140 160 168 160 c 2
 674 160 l 2
EndSplineSet
EndChar

StartChar: ordmasculine
Encoding: 186 186 357
Width: 900
VWidth: 0
Flags: HW
PickledData: "(dp1
S'com.fontlab.hintData'
p2
(dp3
S'vhints'
p4
((dp5
S'position'
p6
I177
sS'width'
p7
I113
s(dp8
g6
I607
sg7
I105
stp9
sS'hhints'
p10
((dp11
g6
I66
sg7
I94
s(dp12
g6
I269
sg7
I115
s(dp13
g6
I1269
sg7
I109
stp14
ss."
HStem: 66 94<199 284.5> 269 115<368 513.5 368 572> 1269 109<361 475 263 500>
VStem: 177 113<848.5 858.5 792.5 979> 607 105<854.5 893 893 908 854.5 911.5>
LayerCount: 2
Fore
SplineSet
698 160 m 2
 733 160 748 144 748 124 c 0
 748 103 726 78 692 78 c 0
 662 78 631 76 603 76 c 0
 476 76 348 66 221 66 c 0
 177 66 142 89 142 110 c 0
 142 138 164 160 192 160 c 2
 698 160 l 2
410 1269 m 0
 312 1269 298 1157 298 1057 c 0
 298 1042 300 1027 300 1016 c 0
 300 953 290 890 290 827 c 0
 290 758 301 384 435 384 c 0
 592 384 606 612 606 674 c 0
 606 713 607 759 607 808 c 0
 607 1015 590 1269 410 1269 c 0
712 908 m 2
 712 893 l 2
 712 816 716 738 716 661 c 0
 716 539 701 269 443 269 c 0
 210 269 179 584 179 736 c 0
 179 765 177 817 177 880 c 0
 177 1078 194 1378 332 1378 c 0
 618 1378 712 1164 712 908 c 2
EndSplineSet
EndChar

StartChar: oslash
Encoding: 248 248 358
Width: 882
VWidth: 0
Flags: HW
PickledData: "(dp1
S'com.fontlab.hintData'
p2
(dp3
S'vhints'
p4
((dp5
S'position'
p6
I168
sS'width'
p7
I111
s(dp8
g6
I595
sg7
I106
stp9
sS'hhints'
p10
((dp11
g6
I-38
sg7
I85
s(dp12
g6
I1269
sg7
I109
s(dp13
g6
I1540
sg7
I20
stp14
ss."
HStem: -38 85<417 502.5 413 561> 1269 109<350 354.5 243.5 413.5> 1540 20<527 588 588 588>
VStem: 168 111<544.5 748.5> 595 106<509 783>
LayerCount: 2
Fore
SplineSet
323 215 m 1
 477 1247 l 1
 454 1261 428 1269 399 1269 c 0
 301 1269 287 1141 287 1027 c 0
 287 981 289 937 289 906 c 0
 289 843 279 780 279 717 c 0
 279 650 284 391 323 215 c 1
367 89 m 1
 383 63 402 47 424 47 c 0
 581 47 595 454 595 564 c 0
 595 723 569 882 568 1041 c 2
 568 1077 l 2
 567 1117 555 1158 533 1192 c 1
 367 89 l 1
257 -227 m 1
 295 32 l 1
 185 166 168 463 168 626 c 0
 168 658 170 677 170 704 c 0
 170 711 169 714 167 714 c 2
 167 751 l 2
 167 860 166 1378 321 1378 c 0
 388 1378 444 1364 491 1338 c 1
 527 1560 l 1
 588 1560 l 1
 548 1296 l 1
 659 1194 701 1008 701 798 c 2
 701 783 l 2
 701 706 705 628 705 551 c 0
 705 368 690 -38 432 -38 c 0
 402 -38 375 -31 351 -17 c 1
 307 -274 l 1
 257 -227 l 1
EndSplineSet
EndChar

StartChar: p
Encoding: 112 112 361
Width: 720
VWidth: 0
Flags: HW
PickledData: "(dp1
S'lstem'
p2
I0
sS'com.fontlab.hintData'
p3
(dp4
S'vhints'
p5
((dp6
S'position'
p7
I194
sS'width'
p8
I121
s(dp9
g7
I213
sg8
I99
s(dp10
g7
I438
sg8
I112
stp11
sS'hhints'
p12
((dp13
g7
I-39
sg8
I21
s(dp14
g7
I628
sg8
I85
s(dp15
g7
I1231
sg8
I111
stp16
ss."
HStem: -39 21<262 279> 628 85<315 316> 1231 111<312 313>
VStem: 194 121<344 348> 213 99<1048.5 1113.5> 438 112<1014 1097.5>
AnchorPoint: "top" 387 1365 basechar 0
LayerCount: 2
Fore
SplineSet
334 1228 m 1
 334 1231 314 1231 312 1231 c 2
 312 1115 l 2
 312 982 315 849 316 716 c 2
 316 713 l 1
 435 729 438 969 438 1059 c 0
 438 1136 434 1228 334 1228 c 1
197 1270 m 1
 202 1297 219 1342 252 1342 c 2
 342 1342 l 2
 507 1342 550 1180 550 1044 c 0
 550 831 547 699 315 628 c 1
 315 409 l 2
 315 279 331 151 331 21 c 0
 331 -14 296 -39 262 -39 c 1
 219 -14 l 1
 197 85 194 186 194 287 c 0
 194 409 202 530 202 652 c 1
 195 668 190 685 190 702 c 2
 190 709 l 1
 209 747 210 841 210 885 c 0
 210 944 213 1012 213 1080 c 0
 213 1147 211 1213 197 1270 c 1
EndSplineSet
EndChar

StartChar: paragraph
Encoding: 182 182 362
Width: 1080
VWidth: 0
Flags: HW
PickledData: "(dp1
S'com.fontlab.hintData'
p2
(dp3
S'vhints'
p4
((dp5
S'position'
p6
I126
sS'width'
p7
I112
s(dp8
g6
I555
sg7
I121
s(dp9
g6
I576
sg7
I111
s(dp10
g6
I598
sg7
I116
s(dp11
g6
I770
sg7
I114
stp12
sS'hhints'
p13
((dp14
g6
I-8
sg7
I9
s(dp15
g6
I1098
sg7
I98
s(dp16
g6
I1738
sg7
I116
s(dp17
g6
I1769
sg7
I107
stp18
ss."
HStem: -8 9 1098 98<508.5 583 483.5 594> 1738 116<827 907.5> 1769 107<692.5 696.5 671.5 722>
VStem: 126 112<1384 1455 1339.5 1565.5> 555 121<42.5 207.5> 576 111<1614 1694.5 1570.5 1697> 598 116<827 986.5> 770 114<998 1241.5>
LayerCount: 2
Fore
SplineSet
870 1739 m 1
 871 1540 884 1341 884 1142 c 0
 884 850 872 557 872 265 c 0
 872 188 884 113 884 36 c 0
 884 4 857 -20 826 -20 c 0
 759 -20 751 52 751 103 c 0
 751 461 770 819 770 1177 c 0
 770 1326 755 1474 755 1623 c 0
 755 1642 758 1666 758 1689 c 0
 758 1731 748 1769 696 1769 c 0
 689 1769 687 1700 687 1689 c 0
 687 1452 714 1217 714 980 c 0
 714 674 676 370 676 64 c 0
 676 21 666 -8 617 -8 c 0
 581 -8 555 21 555 56 c 0
 555 359 598 661 598 964 c 0
 598 1009 595 1053 594 1098 c 1
 423 1098 185 1118 139 1321 c 0
 134 1342 135 1364 126 1384 c 1
 126 1747 291 1823 621 1854 c 1
 638 1871 660 1876 683 1876 c 0
 710 1876 737 1864 763 1859 c 1
 762 1858 l 1
 818 1865 l 1
 827 1854 l 1
 862 1852 950 1838 950 1790 c 0
 950 1759 922 1738 893 1738 c 0
 885 1738 878 1739 870 1739 c 1
239 1454 m 1
 238 1455 l 1
 238 1224 386 1196 581 1196 c 0
 585 1196 592 1199 596 1200 c 1
 596 1366 576 1531 576 1697 c 1
 578 1740 l 1
 551 1748 524 1748 496 1748 c 0
 349 1748 239 1591 239 1454 c 1
EndSplineSet
EndChar

StartChar: parenleft
Encoding: 40 40 363
Width: 684
VWidth: 0
Flags: HW
PickledData: "(dp1
S'lstem'
p2
I0
sS'com.fontlab.hintData'
p3
(dp4
S'vhints'
p5
((dp6
S'position'
p7
I182
sS'width'
p8
I102
stp9
ss."
VStem: 182 102<791 941>
LayerCount: 2
Fore
SplineSet
526 -319 m 1
 524 -318 l 1
 515 -340 494 -361 468 -361 c 0
 276 -361 182 701 182 881 c 0
 182 1001 261 1651 403 1651 c 2
 412 1651 l 1
 448 1621 l 1
 447 1545 403 1484 375 1416 c 0
 311 1259 284 1048 284 879 c 0
 284 583 315 139 438 -130 c 0
 467 -193 509 -251 526 -319 c 1
EndSplineSet
EndChar

StartChar: parenright
Encoding: 41 41 364
Width: 810
VWidth: 0
Flags: HW
PickledData: "(dp1
S'lstem'
p2
I0
sS'com.fontlab.hintData'
p3
(dp4
S'vhints'
p5
((dp6
S'position'
p7
I514
sS'width'
p8
I103
stp9
ss."
VStem: 514 103<815 817 815 904.5>
LayerCount: 2
Fore
SplineSet
617 817 m 2
 617 815 l 2
 616 651 478 -303 308 -303 c 0
 281 -303 254 -284 254 -255 c 0
 254 -217 321 -112 340 -71 c 0
 443 158 514 564 514 816 c 0
 514 993 490 1253 423 1416 c 0
 397 1480 349 1538 349 1610 c 2
 349 1621 l 1
 386 1650 l 1
 552 1650 615 954 617 817 c 2
EndSplineSet
EndChar

StartChar: partialdiff
Encoding: 8706 8706 365
Width: 680
VWidth: 0
Flags: HW
LayerCount: 2
Fore
SplineSet
412 727 m 2
 412 837 l 1
 403 842 390 848 372 852 c 1
 270 842 253 280 253 174 c 0
 253 127 259 28 304 28 c 0
 374 28 371 100 379 168 c 0
 402 353 412 539 412 727 c 2
515 815 m 2
 515 807 l 2
 515 660 511 514 505 368 c 1
 488 259 517 -45 320 -45 c 0
 172 -45 154 69 154 170 c 0
 154 175 154 182 154 188 c 0
 154 378 158 929 392 929 c 0
 398 929 405 928 412 926 c 1
 406 1170 336 1428 264 1484 c 0
 250 1495 184 1513 184 1550 c 0
 184 1569 214 1585 233 1585 c 0
 429 1585 515 1170 515 815 c 2
EndSplineSet
EndChar

StartChar: percent
Encoding: 37 37 367
Width: 1296
VWidth: 0
Flags: HW
PickledData: "(dp1
S'lstem'
p2
I0
sS'com.fontlab.hintData'
p3
(dp4
S'vhints'
p5
((dp6
S'position'
p7
I158
sS'width'
p8
I99
s(dp9
g7
I462
sg8
I94
s(dp10
g7
I755
sg8
I98
s(dp11
g7
I770
sg8
I111
s(dp12
g7
I1052
sg8
I100
stp13
sS'hhints'
p14
((dp15
g7
I-8
sg8
I21
s(dp16
g7
I2
sg8
I114
s(dp17
g7
I700
sg8
I100
s(dp18
g7
I733
sg8
I105
s(dp19
g7
I1449
sg8
I104
stp20
ss."
HStem: -8 21 2 114<908 987.5 908 1019> 700 100<307 404 307 485.5> 733 105<902 992> 1449 104<315 398>
VStem: 158 99<1133.5 1187.5 1133.5 1209> 462 94<1054.5 1140> 755 98<347.5 397 347.5 437> 770 111<1437 1437> 1052 100<386 467 467 478>
LayerCount: 2
Fore
SplineSet
556 1140 m 1
 555 1141 l 1
 503 999 618 700 353 700 c 0
 159 700 158 1025 158 1163 c 0
 158 1255 191 1553 327 1553 c 0
 532 1553 556 1300 556 1147 c 2
 556 1140 l 1
923 2 m 0
 787 2 755 270 755 370 c 0
 755 504 756 838 950 838 c 0
 1129 838 1152 612 1152 478 c 2
 1152 378 l 2
 1152 229 1115 2 923 2 c 0
769 1438 m 1
 770 1437 l 1
 771 1467 786 1536 827 1536 c 0
 855 1536 881 1517 881 1487 c 0
 881 1294 664 558 609 308 c 0
 594 241 566 -4 479 -8 c 1
 458 4 440 27 440 52 c 0
 440 272 696 1167 769 1438 c 1
334 1449 m 0
 296 1449 257 1210 257 1165 c 0
 257 1102 264 800 350 800 c 0
 458 800 462 1017 462 1092 c 0
 462 1179 462 1449 334 1449 c 0
1052 467 m 2
 1052 535 1040 733 944 733 c 0
 860 733 853 428 853 366 c 0
 853 329 888 116 928 116 c 0
 1047 116 1052 303 1052 386 c 2
 1052 467 l 2
EndSplineSet
EndChar

StartChar: period
Encoding: 46 46 368
Width: 612
VWidth: 0
Flags: HW
PickledData: "(dp1
S'lstem'
p2
I0
sS'com.fontlab.hintData'
p3
(dp4
S'vhints'
p5
((dp6
S'position'
p7
I222
sS'width'
p8
I150
stp9
sS'hhints'
p10
((dp11
g7
I-32
sg8
I152
stp12
ss."
HStem: -32 152<278.5 313.5>
VStem: 222 150<22.5 61.5>
LayerCount: 2
Fore
SplineSet
222 41 m 0
 222 82 258 120 299 120 c 0
 338 120 372 81 372 43 c 0
 372 -4 336 -32 291 -32 c 0
 253 -32 222 4 222 41 c 0
EndSplineSet
EndChar

StartChar: periodcentered
Encoding: 183 183 369
Width: 612
VWidth: 0
Flags: HW
PickledData: "(dp1
S'lstem'
p2
I0
sS'com.fontlab.hintData'
p3
(dp4
S'vhints'
p5
((dp6
S'position'
p7
I222
sS'width'
p8
I150
stp9
sS'hhints'
p10
((dp11
g7
I633
sg8
I152
stp12
ss."
HStem: 633 152<278.5 313.5>
VStem: 222 150<687.5 726.5>
LayerCount: 2
Fore
SplineSet
222 706 m 0
 222 747 258 785 299 785 c 0
 338 785 372 746 372 708 c 0
 372 661 336 633 291 633 c 0
 253 633 222 669 222 706 c 0
EndSplineSet
EndChar

StartChar: perthousand
Encoding: 8240 8240 370
Width: 1778
VWidth: 0
Flags: HW
PickledData: "(dp1
S'com.fontlab.hintData'
p2
(dp3
S'vhints'
p4
((dp5
S'position'
p6
I158
sS'width'
p7
I99
s(dp8
g6
I462
sg7
I94
s(dp9
g6
I756
sg7
I98
s(dp10
g6
I770
sg7
I111
s(dp11
g6
I1053
sg7
I100
s(dp12
g6
I1237
sg7
I98
s(dp13
g6
I1534
sg7
I100
stp14
sS'hhints'
p15
((dp16
g6
I2
sg7
I114
s(dp17
g6
I700
sg7
I100
s(dp18
g6
I733
sg7
I105
s(dp19
g6
I1449
sg7
I104
stp20
ss."
HStem: 2 114<909 988.5 909 1020 1390 1469.5> 700 100<307 404 307 485.5> 733 105<903 993 1384 1474> 1449 104<315 398>
VStem: 158 99<1133.5 1187.5 1133.5 1209> 462 94<1054.5 1140> 756 98<347.5 397 347.5 437> 770 111<1437 1437> 1053 100<386 467 467 478> 1237 98<347.5 397 347.5 437> 1534 100<386 467 467 478>
LayerCount: 2
Fore
SplineSet
556 1140 m 1
 555 1141 l 1
 503 999 618 700 353 700 c 0
 159 700 158 1025 158 1163 c 0
 158 1255 191 1553 327 1553 c 0
 532 1553 556 1300 556 1147 c 2
 556 1140 l 1
1405 2 m 0
 1269 2 1237 270 1237 370 c 0
 1237 504 1238 838 1432 838 c 0
 1611 838 1634 612 1634 478 c 2
 1634 378 l 2
 1634 229 1597 2 1405 2 c 0
769 1438 m 1
 770 1437 l 1
 771 1467 786 1536 827 1536 c 0
 855 1536 881 1517 881 1487 c 0
 881 1294 664 558 609 308 c 0
 594 241 566 -4 479 -8 c 1
 458 4 440 27 440 52 c 0
 440 272 696 1167 769 1438 c 1
334 1449 m 0
 296 1449 257 1210 257 1165 c 0
 257 1102 264 800 350 800 c 0
 458 800 462 1017 462 1092 c 0
 462 1179 462 1449 334 1449 c 0
1534 467 m 2
 1534 535 1522 733 1426 733 c 0
 1342 733 1335 428 1335 366 c 0
 1335 329 1370 116 1410 116 c 0
 1529 116 1534 303 1534 386 c 2
 1534 467 l 2
924 2 m 0
 788 2 756 270 756 370 c 0
 756 504 757 838 951 838 c 0
 1130 838 1153 612 1153 478 c 2
 1153 378 l 2
 1153 229 1116 2 924 2 c 0
1053 467 m 2
 1053 535 1041 733 945 733 c 0
 861 733 854 428 854 366 c 0
 854 329 889 116 929 116 c 0
 1048 116 1053 303 1053 386 c 2
 1053 467 l 2
EndSplineSet
EndChar

StartChar: pi
Encoding: 960 960 371
Width: 731
VWidth: 0
Flags: HW
LayerCount: 2
Fore
SplineSet
654 1352 m 2
 547 1350 l 1
 221 1358 l 1
 205 1358 l 2
 129 1358 77 1353 16 1314 c 0
 -1 1304 -10 1293 -10 1281 c 0
 -10 1273 6 1247 38 1247 c 0
 76 1247 114 1281 153 1281 c 2
 159 1281 l 1
 166 598 l 2
 167 492 179 51 179 18 c 0
 179 -2 206 -18 232 -18 c 0
 273 -18 276 7 276 23 c 2
 276 62 l 2
 276 322 261 983 261 1245 c 2
 261 1284 l 1
 384 1283 l 1
 500 1284 l 1
 500 1055 498 848 498 673 c 0
 498 383 504 179 528 95 c 0
 541 47 582 -43 644 -43 c 0
 669 -43 689 -25 689 -13 c 0
 689 -2 683 11 676 25 c 1
 675 26 l 1
 642 86 608 162 608 236 c 2
 600 1282 l 1
 615 1280 630 1279 646 1279 c 0
 670 1279 713 1289 713 1316 c 0
 713 1348 677 1352 654 1352 c 2
EndSplineSet
EndChar

StartChar: plus
Encoding: 43 43 372
Width: 900
VWidth: 0
Flags: HW
PickledData: "(dp1
S'lstem'
p2
I0
sS'com.fontlab.hintData'
p3
(dp4
S'vhints'
p5
((dp6
S'position'
p7
I359
sS'width'
p8
I127
s(dp9
g7
I372
sg8
I133
stp10
sS'hhints'
p11
((dp12
g7
I602
sg8
I99
stp13
ss."
HStem: 602 99
VStem: 359 127<525.5 599 525.5 599> 372 133<371 416.5 371 418>
LayerCount: 2
Fore
SplineSet
372 385 m 0
 372 451 359 518 359 584 c 2
 359 599 l 1
 331 599 285 590 245 590 c 0
 198 590 158 602 158 655 c 0
 158 682 175 708 204 708 c 0
 244 708 285 701 325 701 c 0
 341 701 356 702 372 705 c 1
 370 755 360 805 360 855 c 0
 360 900 367 968 426 968 c 0
 458 968 478 942 478 909 c 2
 478 884 l 2
 479 853 478 701 505 701 c 0
 530 701 578 709 624 709 c 0
 679 709 730 697 730 647 c 0
 730 615 704 591 672 591 c 0
 631 591 592 602 551 602 c 0
 517 602 486 593 486 553 c 0
 486 498 505 444 505 389 c 0
 505 353 470 333 438 333 c 0
 409 333 372 352 372 385 c 0
EndSplineSet
EndChar

StartChar: plusminus
Encoding: 177 177 373
Width: 900
VWidth: 0
Flags: HW
PickledData: "(dp1
S'com.fontlab.hintData'
p2
(dp3
S'vhints'
p4
((dp5
S'position'
p6
I360
sS'width'
p7
I126
s(dp8
g6
I372
sg7
I134
s(dp9
g6
I378
sg7
I108
stp10
sS'hhints'
p11
((dp12
g6
I135
sg7
I111
s(dp13
g6
I602
sg7
I99
stp14
ss."
HStem: 135 111<217.5 311.5> 602 99
VStem: 360 126<525.5 599> 372 134<371 416.5> 378 108<551 573 525.5 584>
LayerCount: 2
Fore
SplineSet
372 385 m 0
 372 451 378 518 378 584 c 1
 360 599 l 1
 332 599 286 590 246 590 c 0
 199 590 158 602 158 655 c 0
 158 682 175 708 204 708 c 0
 244 708 286 701 326 701 c 0
 342 701 356 702 372 705 c 1
 370 755 360 805 360 855 c 0
 360 900 367 968 426 968 c 0
 458 968 486 942 486 909 c 2
 486 904 l 1
 478 884 l 1
 479 853 479 701 506 701 c 0
 531 701 578 709 624 709 c 0
 679 709 730 697 730 647 c 0
 730 615 704 591 672 591 c 0
 631 591 593 602 552 602 c 0
 518 602 486 593 486 553 c 0
 486 498 506 444 506 389 c 0
 506 353 470 333 438 333 c 0
 409 333 372 352 372 385 c 0
158 200 m 0
 158 228 176 246 204 246 c 2
 506 246 l 2
 548 246 590 253 632 253 c 0
 674 253 730 246 730 192 c 0
 730 158 702 145 672 145 c 0
 528 145 383 135 240 135 c 0
 195 135 158 149 158 200 c 0
EndSplineSet
EndChar

StartChar: product
Encoding: 8719 8719 374
Width: 740
VWidth: 0
Flags: HW
LayerCount: 2
Fore
SplineSet
487 1566 m 0
 473 1566 202 1574 189 1574 c 0
 167 1574 139 1560 139 1532 c 0
 139 1221 153 908 176 596 c 0
 184 493 199 66 199 20 c 0
 199 -12 227 -29 255 -29 c 0
 298 -29 300 6 300 23 c 0
 300 256 249 1208 247 1473 c 1
 278 1476 329 1477 368 1477 c 0
 390 1477 414 1478 436 1478 c 1
 448 1214 473 286 473 59 c 0
 473 44 471 29 471 12 c 0
 471 -7 476 -41 524 -41 c 0
 562 -41 576 1 576 20 c 2
 576 49 l 2
 576 293 546 885 546 1518 c 0
 546 1548 513 1566 487 1566 c 0
EndSplineSet
EndChar

StartChar: q
Encoding: 113 113 375
Width: 882
VWidth: 0
Flags: HW
PickledData: "(dp1
S'lstem'
p2
I0
sS'com.fontlab.hintData'
p3
(dp4
S'vhints'
p5
((dp6
S'position'
p7
I177
sS'width'
p8
I102
s(dp9
g7
I601
sg8
I109
stp10
sS'hhints'
p11
((dp12
g7
I-434
sg8
I108
s(dp13
g7
I1288
sg8
I81
stp14
ss."
HStem: -434 108<583 644> 1288 81<349.5 411 303 493>
VStem: 177 102<376.5 742> 601 109<723.5 869 869 901 723.5 936.5>
LayerCount: 2
Fore
SplineSet
399 1288 m 0
 300 1288 279 785 279 699 c 0
 279 590 279 7 421 6 c 1
 440 14 461 18 481 18 c 0
 536 18 601 439 601 511 c 2
 601 869 l 2
 601 1004 587 1288 399 1288 c 0
630 -434 m 1
 630 -432 l 1
 577 -432 510 -427 472 -385 c 1
 472 -276 448 -169 427 -62 c 1
 204 -14 177 244 177 509 c 0
 177 592 180 676 180 754 c 0
 180 903 195 1369 411 1369 c 1
 441 1356 474 1353 504 1341 c 0
 698 1262 710 990 710 812 c 0
 710 635 707 30 527 -49 c 1
 527 -143 563 -235 583 -326 c 1
 624 -326 678 -333 678 -384 c 0
 678 -412 658 -434 630 -434 c 1
EndSplineSet
EndChar

StartChar: question
Encoding: 63 63 376
Width: 702
VWidth: 0
Flags: HW
PickledData: "(dp1
S'lstem'
p2
I0
sS'com.fontlab.hintData'
p3
(dp4
S'vhints'
p5
((dp6
S'position'
p7
I194
sS'width'
p8
I119
s(dp9
g7
I262
sg8
I155
s(dp10
g7
I284
sg8
I100
s(dp11
g7
I399
sg8
I110
stp12
sS'hhints'
p13
((dp14
g7
I-8
sg8
I156
s(dp15
g7
I1447
sg8
I100
stp16
ss."
HStem: -8 156<322 358> 1447 100<321.5 367.5>
VStem: 194 119<1243 1359 1243 1402.5> 262 155<49.5 86 42.5 87.5> 284 100<349 450.5> 399 110<1103.5 1277.5>
LayerCount: 2
Fore
SplineSet
194 1359 m 2
 194 1446 224 1547 334 1547 c 0
 494 1547 509 1388 509 1260 c 0
 509 945 384 823 384 366 c 0
 384 332 384 267 385 229 c 1
 324 229 353 223 334 223 c 0
 313 223 294 232 284 269 c 1
 284 632 399 949 399 1258 c 0
 399 1297 397 1447 338 1447 c 0
 305 1447 299 1397 299 1356 c 0
 299 1341 305 1299 313 1245 c 0
 313 1241 276 1203 252 1203 c 0
 197 1203 194 1286 194 1340 c 2
 194 1359 l 2
262 68 m 0
 262 107 302 148 342 148 c 0
 379 148 417 102 417 70 c 0
 417 15 382 -8 334 -8 c 0
 294 -8 262 31 262 68 c 0
EndSplineSet
EndChar

StartChar: questiondown
Encoding: 191 191 377
Width: 702
VWidth: 0
Flags: HW
PickledData: "(dp1
S'com.fontlab.hintData'
p2
(dp3
S'vhints'
p4
((dp5
S'position'
p6
I186
sS'width'
p7
I110
s(dp8
g6
I278
sg7
I155
s(dp9
g6
I311
sg7
I100
s(dp10
g6
I396
sg7
I105
stp11
sS'hhints'
p12
((dp13
g6
I-170
sg7
I100
s(dp14
g6
I1229
sg7
I156
stp15
ss."
HStem: -170 100<327.5 373.5 327.5 416> 1229 156<337 373>
VStem: 186 110<99.5 273.5 99.5 274.5> 278 155<1291 1327.5 1289.5 1334.5> 311 100<926.5 1028> 396 105<0.5 18 18 28.5>
LayerCount: 2
Fore
SplineSet
501 18 m 2
 501 -69 471 -170 361 -170 c 0
 201 -170 186 -11 186 117 c 0
 186 432 311 554 311 1011 c 0
 311 1045 311 1110 310 1148 c 1
 371 1148 342 1154 361 1154 c 0
 382 1154 401 1145 411 1108 c 1
 411 745 296 428 296 119 c 0
 296 80 298 -70 357 -70 c 0
 390 -70 396 -20 396 21 c 0
 396 36 390 78 382 132 c 0
 382 136 419 174 443 174 c 0
 498 174 501 91 501 37 c 2
 501 18 l 2
433 1309 m 0
 433 1270 393 1229 353 1229 c 0
 316 1229 278 1275 278 1307 c 0
 278 1362 313 1385 361 1385 c 0
 401 1385 433 1346 433 1309 c 0
EndSplineSet
EndChar

StartChar: quotedbl
Encoding: 34 34 378
Width: 702
VWidth: 0
Flags: HW
PickledData: "(dp1
S'lstem'
p2
I0
sS'com.fontlab.hintData'
p3
(dp4
S'vhints'
p5
((dp6
S'position'
p7
I222
sS'width'
p8
I91
s(dp9
g7
I408
sg8
I95
stp10
sS'hhints'
p11
((dp12
g7
I1193
sg8
I385
stp13
ss."
HStem: 1193 385<229 278 231 278 254 437 254 444>
VStem: 222 91<1483 1512.5 1459 1545> 408 95<1531 1531>
LayerCount: 2
Fore
SplineSet
231 1193 m 2
 227 1193 222 1435 222 1531 c 0
 222 1559 245 1578 263 1578 c 0
 293 1578 308 1556 312 1525 c 0
 312 1521 313 1514 313 1511 c 0
 313 1407 278 1193 238 1193 c 2
 231 1193 l 2
437 1193 m 2
 424 1193 408 1435 408 1531 c 0
 408 1559 441 1578 469 1578 c 0
 488 1578 498 1556 503 1531 c 1
 500 1433 477 1193 444 1193 c 2
 437 1193 l 2
EndSplineSet
EndChar

StartChar: quotedblbase
Encoding: 8222 8222 379
Width: 810
VWidth: 0
Flags: HW
PickledData: "(dp1
S'lstem'
p2
I0
sS'com.fontlab.hintData'
p3
(dp4
S'vhints'
p5
((dp6
S'position'
p7
I126
sS'width'
p8
I483
stp9
sS'hhints'
p10
((dp11
g7
I-370
sg8
I496
stp12
ss."
HStem: -370 496<409.5 594.5>
VStem: 126 483<-343.5 95.5>
LayerCount: 2
Fore
SplineSet
144 -371 m 0
 131 -368 126 -354 126 -333 c 0
 126 -285 198 116 295 116 c 0
 323 116 332 95 332 71 c 0
 332 -107 223 -371 144 -371 c 0
588 126 m 0
 601 126 609 110 609 81 c 0
 609 -100 474 -370 417 -370 c 0
 402 -370 395 -354 395 -329 c 0
 395 -226 468 126 588 126 c 0
EndSplineSet
EndChar

StartChar: quotedblleft
Encoding: 8220 8220 380
Width: 792
VWidth: 0
Flags: HW
PickledData: "(dp1
S'lstem'
p2
I0
sS'com.fontlab.hintData'
p3
(dp4
S'vhints'
p5
((dp6
S'position'
p7
I182
sS'width'
p8
I463
stp9
sS'hhints'
p10
((dp11
g7
I1081
sg8
I496
stp12
ss."
HStem: 1081 496<196.5 381.5>
VStem: 182 463<1111.5 1551.5>
LayerCount: 2
Fore
SplineSet
627 1578 m 0
 640 1575 645 1562 645 1541 c 0
 645 1493 573 1091 476 1091 c 0
 448 1091 438 1112 438 1136 c 0
 438 1314 548 1578 627 1578 c 0
203 1081 m 0
 190 1081 182 1097 182 1126 c 0
 182 1307 317 1577 374 1577 c 0
 389 1577 396 1561 396 1536 c 0
 396 1433 323 1081 203 1081 c 0
EndSplineSet
EndChar

StartChar: quotedblright
Encoding: 8221 8221 381
Width: 810
VWidth: 0
Flags: HW
PickledData: "(dp1
S'lstem'
p2
I0
sS'com.fontlab.hintData'
p3
(dp4
S'vhints'
p5
((dp6
S'position'
p7
I182
sS'width'
p8
I473
stp9
sS'hhints'
p10
((dp11
g7
I1082
sg8
I496
stp12
ss."
HStem: 1082 496<455.5 640.5>
VStem: 182 473<1108.5 1547.5>
LayerCount: 2
Fore
SplineSet
200 1081 m 0
 187 1084 182 1098 182 1119 c 0
 182 1167 254 1568 351 1568 c 0
 379 1568 388 1547 388 1523 c 0
 388 1345 279 1081 200 1081 c 0
634 1578 m 0
 647 1578 655 1562 655 1533 c 0
 655 1352 520 1082 463 1082 c 0
 448 1082 441 1098 441 1123 c 1
 501 1377 489 1578 634 1578 c 0
EndSplineSet
EndChar

StartChar: quoteleft
Encoding: 8216 8216 382
Width: 630
VWidth: 0
Flags: HW
PickledData: "(dp1
S'lstem'
p2
I0
sS'com.fontlab.hintData'
p3
(dp4
S'vhints'
p5
((dp6
S'position'
p7
I206
sS'width'
p8
I214
stp9
sS'hhints'
p10
((dp11
g7
I1081
sg8
I496
stp12
ss."
HStem: 1081 496<220.5 405.5>
VStem: 206 214
LayerCount: 2
Fore
SplineSet
227 1081 m 0
 214 1081 206 1097 206 1126 c 0
 206 1307 341 1577 398 1577 c 0
 413 1577 420 1561 420 1536 c 0
 420 1433 347 1081 227 1081 c 0
EndSplineSet
EndChar

StartChar: quoteright
Encoding: 8217 8217 383
Width: 612
VWidth: 0
Flags: HW
PickledData: "(dp1
S'lstem'
p2
I0
sS'com.fontlab.hintData'
p3
(dp4
S'vhints'
p5
((dp6
S'position'
p7
I206
sS'width'
p8
I206
stp9
sS'hhints'
p10
((dp11
g7
I1081
sg8
I487
stp12
ss."
HStem: 1081 487<224 389>
VStem: 206 206
LayerCount: 2
Fore
SplineSet
224 1081 m 0
 211 1084 206 1098 206 1119 c 0
 206 1167 278 1568 375 1568 c 0
 403 1568 412 1547 412 1523 c 0
 412 1345 303 1081 224 1081 c 0
EndSplineSet
EndChar

StartChar: quotesinglbase
Encoding: 8218 8218 384
Width: 684
VWidth: 0
Flags: HW
PickledData: "(dp1
S'lstem'
p2
I0
sS'com.fontlab.hintData'
p3
(dp4
S'vhints'
p5
((dp6
S'position'
p7
I254
sS'width'
p8
I206
stp9
sS'hhints'
p10
((dp11
g7
I-333
sg8
I487
stp12
ss."
HStem: -333 487<272 437>
VStem: 254 206
LayerCount: 2
Fore
SplineSet
272 -333 m 0
 259 -330 254 -316 254 -295 c 0
 254 -247 326 154 423 154 c 0
 451 154 460 133 460 109 c 0
 460 -69 351 -333 272 -333 c 0
EndSplineSet
EndChar

StartChar: quotesingle
Encoding: 39 39 385
Width: 558
VWidth: 0
Flags: HW
PickledData: "(dp1
S'lstem'
p2
I0
sS'com.fontlab.hintData'
p3
(dp4
S'vhints'
p5
((dp6
S'position'
p7
I222
sS'width'
p8
I111
stp9
sS'hhints'
p10
((dp11
g7
I1193
sg8
I385
stp12
ss."
HStem: 1193 385<244.5 298 251 298>
VStem: 222 111<1483 1512.5 1459 1545>
LayerCount: 2
Fore
SplineSet
251 1193 m 2
 238 1193 222 1435 222 1531 c 0
 222 1559 255 1578 283 1578 c 0
 313 1578 328 1556 337 1531 c 1
 332 1525 l 2
 332 1521 333 1514 333 1511 c 0
 333 1407 298 1193 258 1193 c 2
 251 1193 l 2
EndSplineSet
EndChar

StartChar: r
Encoding: 114 114 386
Width: 720
VWidth: 0
Flags: HW
PickledData: "(dp1
S'lstem'
p2
I0
sS'com.fontlab.hintData'
p3
(dp4
S'vhints'
p5
((dp6
S'position'
p7
I182
sS'width'
p8
I104
s(dp9
g7
I217
sg8
I66
s(dp10
g7
I401
sg8
I102
stp11
sS'hhints'
p12
((dp13
g7
I-18
sg8
I4
s(dp14
g7
I1289
sg8
I76
stp15
ss."
HStem: -18 4 1289 76
VStem: 182 104<1181 1264.5 1181 1291> 217 66<126 502> 401 102<1060.5 1136.5>
AnchorPoint: "bot" 400 0 basechar 0
AnchorPoint: "top" 347 1365 basechar 0
LayerCount: 2
Fore
SplineSet
545 -35 m 0
 421 -35 359 573 310 686 c 1
 285 686 l 1
 285 615 283 540 283 464 c 0
 283 319 289 169 322 37 c 1
 299 -18 l 1
 242 -18 l 1
 215 12 l 1
 216 58 217 103 217 149 c 0
 217 518 182 898 182 1268 c 0
 182 1314 193 1365 250 1365 c 0
 384 1365 503 1295 503 1149 c 2
 503 1005 l 2
 503 912 440 817 398 736 c 1
 444 533 470 296 557 107 c 0
 569 80 591 47 591 17 c 0
 591 -10 574 -35 545 -35 c 0
401 1098 m 0
 401 1175 395 1287 293 1289 c 1
 291 1280 286 1269 286 1260 c 0
 286 1102 293 945 294 787 c 1
 366 824 401 1023 401 1098 c 0
EndSplineSet
EndChar

StartChar: radical
Encoding: 8730 8730 388
Width: 800
VWidth: 0
Flags: HW
LayerCount: 2
Fore
SplineSet
301 -11 m 1
 273 102 244 214 217 326 c 0
 207 365 161 519 161 541 c 0
 161 556 188 582 208 582 c 0
 259 582 270 502 306 361 c 2
 354 176 l 1
 410 488 l 2
 440 655 523 1051 568 1326 c 1
 606 1342 l 1
 619 1343 l 1
 632 1339 658 1324 658 1306 c 0
 658 1251 637 1180 627 1127 c 0
 602 1004 567 882 549 759 c 0
 529 632 512 511 480 382 c 0
 463 309 459 223 439 147 c 0
 407 22 412 -39 343 -39 c 0
 340 -39 338 -39 335 -39 c 2
 301 -11 l 1
EndSplineSet
EndChar

StartChar: registered
Encoding: 174 174 392
Width: 1350
VWidth: 0
Flags: HW
PickledData: "(dp1
S'com.fontlab.hintData'
p2
(dp3
S'vhints'
p4
((dp5
S'position'
p6
I158
sS'width'
p7
I120
s(dp8
g6
I421
sg7
I114
s(dp9
g6
I446
sg7
I118
s(dp10
g6
I446
sg7
I97
s(dp11
g6
I480
sg7
I129
s(dp12
g6
I751
sg7
I122
s(dp13
g6
I1057
sg7
I113
stp14
sS'hhints'
p15
((dp16
g6
I-190
sg7
I106
s(dp17
g6
I1525
sg7
I110
s(dp18
g6
I1832
sg7
I106
stp19
ss."
HStem: -190 106<620 620 620 930.5> 1525 110<598 696> 1832 106<502 737.5>
VStem: 158 120<850.5 917 917 1097.5 850.5 1104.5> 421 114<1390.5 1441 1385.5 1528.5> 446 118<698 812 698 1075> 446 97<1075 1287.5> 480 129<192 216> 751 122<1272 1280 1280 1319.5> 1057 113<839 887.5 638.5 1001>
LayerCount: 2
Fore
SplineSet
643 1525 m 0
 553 1525 535 1475 535 1407 c 0
 535 1364 543 1312 543 1263 c 0
 543 1175 544 1086 566 1000 c 1
 687 1049 751 1142 751 1272 c 2
 751 1280 l 2
 751 1359 749 1525 643 1525 c 0
951 199 m 0
 951 175 917 143 894 143 c 0
 772 143 670 797 624 914 c 1
 569 891 l 1
 567 859 564 828 564 796 c 0
 564 600 609 406 609 210 c 0
 609 174 593 143 553 143 c 0
 517 143 480 169 480 208 c 0
 480 224 481 240 481 256 c 0
 481 327 479 399 472 470 c 0
 465 539 446 606 446 676 c 2
 446 1075 l 2
 446 1202 421 1327 421 1454 c 0
 421 1603 503 1635 637 1635 c 0
 844 1635 873 1433 873 1270 c 0
 873 1023 743 1007 732 969 c 1
 735 888 880 425 914 314 c 1
 921 314 l 1
 921 271 951 239 951 199 c 0
930 1655 m 0
 900 1716 772 1832 703 1832 c 0
 301 1832 278 1241 278 954 c 0
 278 747 280 179 418 27 c 0
 454 -13 500 -31 541 -64 c 1
 601 -76 l 1
 620 -84 l 1
 1037 -79 1056 396 1056 706 c 0
 1056 759 1057 812 1057 866 c 0
 1057 1136 1047 1416 930 1655 c 0
692 -190 m 0
 191 -190 158 358 158 757 c 2
 158 917 l 2
 158 1292 192 1938 688 1938 c 0
 813 1938 927 1851 998 1755 c 1
 1122 1679 1170 968 1170 807 c 0
 1170 470 1169 -190 692 -190 c 0
EndSplineSet
EndChar

StartChar: ring
Encoding: 730 730 393
Width: 882
VWidth: 0
Flags: HW
PickledData: "(dp1
S'lstem'
p2
I0
sS'com.fontlab.hintData'
p3
(dp4
S'vhints'
p5
((dp6
S'position'
p7
I174
sS'width'
p8
I76
s(dp9
g7
I632
sg8
I68
stp10
sS'hhints'
p11
((dp12
g7
I102
sg8
I77
s(dp13
g7
I565
sg8
I69
stp14
ss."
HStem: 102 77 565 69
VStem: 174 76 632 68
AnchorPoint: "top" 426 1190 mark 0
AnchorPoint: "top" 444 1553 basechar 0
LayerCount: 2
Fore
SplineSet
436 1620 m 0
 362 1620 341 1548 341 1486 c 0
 341 1453 383 1401 434 1401 c 0
 538 1401 558 1488 558 1523 c 0
 558 1558 534 1620 436 1620 c 0
263 1527 m 0
 263 1622 327 1694 425 1694 c 0
 591 1694 631 1590 631 1528 c 0
 631 1469 597 1322 425 1322 c 0
 292 1322 263 1447 263 1527 c 0
EndSplineSet
EndChar

StartChar: s
Encoding: 115 115 395
Width: 720
VWidth: 0
Flags: HW
PickledData: "(dp1
S'lstem'
p2
I0
sS'com.fontlab.hintData'
p3
(dp4
S'vhints'
p5
((dp6
S'position'
p7
I191
sS'width'
p8
I100
s(dp9
g7
I436
sg8
I100
stp10
sS'hhints'
p11
((dp12
g7
I-23
sg8
I94
s(dp13
g7
I1261
sg8
I120
stp14
ss."
HStem: -23 94<282 353.5> 1261 120<308 438.5>
VStem: 191 100<943 1101 943 1140> 436 100<326.5 499>
AnchorPoint: "bot" 390 0 basechar 0
AnchorPoint: "top" 387 1365 basechar 0
LayerCount: 2
Fore
SplineSet
291 1075 m 0
 291 811 536 689 536 342 c 0
 536 191 466 -19 282 -23 c 1
 282 -28 l 1
 238 -22 196 3 190 51 c 1
 213 86 l 1
 241 82 269 71 298 71 c 0
 409 71 436 286 436 367 c 0
 436 631 191 790 191 1086 c 0
 191 1194 240 1381 376 1381 c 0
 420 1381 477 1349 477 1300 c 0
 477 1273 450 1261 427 1261 c 0
 413 1261 396 1266 384 1273 c 1
 316 1271 291 1127 291 1075 c 0
EndSplineSet
EndChar

StartChar: section
Encoding: 167 167 403
Width: 720
VWidth: 0
Flags: HW
PickledData: "(dp1
S'lstem'
p2
I0
sS'com.fontlab.hintData'
p3
(dp4
S'vhints'
p5
((dp6
S'position'
p7
I174
sS'width'
p8
I100
s(dp9
g7
I207
sg8
I82
s(dp10
g7
I419
sg8
I100
s(dp11
g7
I434
sg8
I100
stp12
sS'hhints'
p13
((dp14
g7
I1
sg8
I120
stp15
ss."
HStem: 1 120<271.5 395.5>
VStem: 174 100<748 817.5 748 857.5> 207 82<1230.5 1330> 419 100<231.5 286 192.5 357> 434 100<630.5 701.5>
LayerCount: 2
Fore
SplineSet
534 634 m 0
 534 566 502 502 445 465 c 1
 487 399 519 326 519 246 c 0
 519 139 457 1 334 1 c 0
 290 1 233 33 233 82 c 0
 233 109 260 121 283 121 c 0
 297 121 314 116 326 109 c 1
 388 110 419 206 419 257 c 0
 419 457 174 550 174 820 c 0
 174 895 204 972 265 1018 c 1
 226 1099 207 1186 207 1275 c 0
 207 1385 262 1443 374 1443 c 0
 401 1443 475 1430 475 1392 c 0
 475 1308 289 1405 289 1277 c 0
 289 1046 534 943 534 634 c 0
434 649 m 0
 434 754 372 840 318 925 c 1
 290 890 274 840 274 795 c 0
 274 701 331 622 385 549 c 1
 413 573 434 612 434 649 c 0
EndSplineSet
EndChar

StartChar: semicolon
Encoding: 59 59 404
Width: 630
VWidth: 0
Flags: HW
PickledData: "(dp1
S'lstem'
p2
I0
sS'com.fontlab.hintData'
p3
(dp4
S'vhints'
p5
((dp6
S'position'
p7
I274
sS'width'
p8
I149
stp9
sS'hhints'
p10
((dp11
g7
I-28
sg8
I21
s(dp12
g7
I952
sg8
I152
stp13
ss."
HStem: -28 21<220 273> 952 152<329.5 364.5>
VStem: 274 149<1006.5 1045>
LayerCount: 2
Fore
SplineSet
274 1025 m 0
 274 1065 309 1104 350 1104 c 0
 389 1104 423 1065 423 1027 c 0
 423 980 387 952 342 952 c 0
 304 952 274 988 274 1025 c 0
339 359 m 0
 389 359 410 315 410 251 c 0
 410 159 318 -28 228 -28 c 0
 212 -28 198 -18 198 -1 c 0
 198 11 204 28 223 44 c 1
 287 138 261 359 339 359 c 0
EndSplineSet
EndChar

StartChar: seven
Encoding: 55 55 405
Width: 684
VWidth: 0
Flags: HW
PickledData: "(dp1
S'lstem'
p2
I0
sS'com.fontlab.hintData'
p3
(dp4
S'vhints'
p5
((dp6
S'position'
p7
I179
sS'width'
p8
I119
stp9
sS'hhints'
p10
((dp11
g7
I-11
sg8
I21
s(dp12
g7
I1498
sg8
I84
stp13
ss."
HStem: -11 21<218 243> 1498 84<330.5 400>
VStem: 179 119<24 104.5>
LayerCount: 2
Fore
SplineSet
297 119 m 0
 298 114 298 108 298 101 c 0
 298 55 268 -11 218 -11 c 1
 179 24 l 1
 179 80 202 129 216 182 c 0
 323 587 391 1070 400 1494 c 1
 384 1496 368 1498 352 1498 c 0
 309 1498 265 1493 222 1489 c 1
 200 1499 174 1522 174 1549 c 0
 174 1580 314 1582 362 1582 c 2
 400 1582 l 2
 446 1582 490 1578 504 1523 c 1
 432 1169 412 448 297 119 c 0
EndSplineSet
EndChar

StartChar: six
Encoding: 54 54 406
Width: 774
VWidth: 0
Flags: HW
PickledData: "(dp1
S'lstem'
p2
I0
sS'com.fontlab.hintData'
p3
(dp4
S'vhints'
p5
((dp6
S'position'
p7
I193
sS'width'
p8
I101
s(dp9
g7
I477
sg8
I96
stp10
sS'hhints'
p11
((dp12
g7
I-14
sg8
I87
s(dp13
g7
I1475
sg8
I111
stp14
ss."
HStem: -14 87<361.5 450 361.5 485.5> 1475 111
VStem: 193 101<702.5 740> 477 96<194.5 266>
LayerCount: 2
Fore
SplineSet
424 73 m 0
 476 73 477 177 477 212 c 0
 477 320 457 860 339 882 c 1
 297 853 294 814 294 770 c 0
 294 635 299 73 424 73 c 0
194 880 m 0
 194 1030 193 1586 414 1586 c 0
 434 1586 462 1567 462 1545 c 0
 462 1505 417 1482 384 1475 c 1
 327 1419 299 1044 295 949 c 1
 306 951 317 952 327 952 c 0
 563 952 573 396 573 236 c 0
 573 114 563 -14 408 -14 c 0
 211 -14 193 414 193 706 c 0
 193 774 194 834 194 880 c 0
EndSplineSet
EndChar

StartChar: slash
Encoding: 47 47 407
Width: 774
VWidth: 0
Flags: HW
PickledData: "(dp1
S'lstem'
p2
I0
sS'com.fontlab.hintData'
p3
(dp4
S'vhints'
p5
((dp6
S'position'
p7
I558
sS'width'
p8
I57
stp9
sS'hhints'
p10
((dp11
g7
I-54
sg8
I21
s(dp12
g7
I1547
sg8
I20
stp13
ss."
HStem: -54 21<184 194> 1547 20<573.5 586>
VStem: 558 57
LayerCount: 2
Fore
SplineSet
558 1553 m 0
 561 1562 569 1567 578 1567 c 0
 594 1567 615 1552 615 1520 c 0
 615 1515 614 1509 613 1503 c 0
 578 1324 308 181 210 -31 c 0
 207 -46 198 -54 190 -54 c 0
 178 -54 166 -38 166 -9 c 0
 166 2 168 15 172 30 c 0
 209 153 482 1303 558 1553 c 0
EndSplineSet
EndChar

StartChar: softhyphen
Encoding: 173 173 408
Width: 792
VWidth: 0
Flags: HW
PickledData: "(dp1
S'lstem'
p2
I0
sS'com.fontlab.hintData'
p3
(dp4
S'vhints'
p5
((dp6
S'position'
p7
I174
sS'width'
p8
I442
stp9
sS'hhints'
p10
((dp11
g7
I656
sg8
I142
stp12
ss."
HStem: 656 142
VStem: 174 442<702.5 751>
LayerCount: 2
Fore
SplineSet
616 739 m 0
 616 666 299 656 241 656 c 0
 208 656 174 680 174 715 c 0
 174 787 491 798 548 798 c 0
 581 798 616 775 616 739 c 0
EndSplineSet
EndChar

StartChar: sterling
Encoding: 163 163 410
Width: 954
VWidth: 0
Flags: HW
PickledData: "(dp1
S'lstem'
p2
I0
sS'com.fontlab.hintData'
p3
(dp4
S'vhints'
p5
((dp6
S'position'
p7
I170
sS'width'
p8
I99
s(dp9
g7
I319
sg8
I97
stp10
sS'hhints'
p11
((dp12
g7
I27
sg8
I98
s(dp13
g7
I894
sg8
I72
s(dp14
g7
I1359
sg8
I21
s(dp15
g7
I1359
sg8
I21
s(dp16
g7
I1535
sg8
I97
stp17
ss."
HStem: 27 98<596.5 653.5 589 700.5> 894 72<172 195 158 212> 1359 21<460.5 529.5> 1359 21<460.5 529.5> 1535 97<355 380 380 408>
VStem: 170 99<1198.5 1243 1243 1270 1198.5 1283.5> 319 97<353.5 466 341.5 470.5>
LayerCount: 2
Fore
SplineSet
744 146 m 0
 775 146 799 123 799 96 c 0
 799 59 750 27 651 27 c 0
 542 27 474 57 370 68 c 1
 370 71 l 1
 333 70 221 21 186 2 c 1
 186 6 l 1
 161 8 128 23 128 53 c 0
 128 123 215 125 257 158 c 0
 304 194 319 325 319 382 c 0
 319 559 253 725 212 894 c 1
 132 894 118 906 118 918 c 2
 118 924 l 2
 118 943 121 966 195 966 c 1
 192 1057 170 1147 170 1238 c 0
 170 1329 189 1632 355 1632 c 2
 380 1632 l 2
 460 1632 547 1474 547 1403 c 0
 547 1380 544 1359 515 1359 c 0
 406 1359 455 1535 361 1535 c 0
 294 1535 269 1340 269 1270 c 2
 269 1243 l 2
 269 1154 270 1062 288 976 c 1
 357 976 424 979 493 979 c 0
 519 979 545 957 545 928 c 0
 545 909 452 910 309 900 c 1
 340 728 416 554 416 378 c 0
 416 305 390 238 369 169 c 1
 459 162 544 125 634 125 c 0
 673 125 707 146 744 146 c 0
EndSplineSet
EndChar

StartChar: summation
Encoding: 8721 8721 411
Width: 802
VWidth: 0
Flags: HW
LayerCount: 2
Fore
SplineSet
412 1430 m 0
 441 1436 468 1438 497 1438 c 0
 526 1438 556 1436 588 1436 c 2
 640 1436 l 2
 655 1436 718 1441 718 1475 c 0
 718 1524 694 1553 665 1553 c 0
 640 1553 629 1538 637 1540 c 1
 616 1525 598 1523 574 1523 c 0
 549 1523 521 1528 490 1528 c 2
 486 1528 l 1
 398 1510 207 1510 161 1510 c 0
 125 1510 111 1480 111 1461 c 0
 111 1445 116 1428 123 1416 c 0
 153 1355 193 1288 207 1266 c 0
 300 1118 488 811 513 762 c 0
 520 751 522 746 522 739 c 0
 522 714 272 372 249 347 c 0
 203 297 156 202 107 148 c 0
 97 136 65 106 65 71 c 0
 65 40 81 5 115 5 c 1
 96 5 129 -16 153 -20 c 0
 325 -45 446 -43 614 -68 c 1
 617 -68 l 2
 645 -68 655 -35 655 -20 c 0
 655 12 646 24 629 39 c 1
 613 39 l 2
 604 37 597 37 585 37 c 0
 458 37 301 61 167 80 c 1
 239 195 533 587 566 613 c 0
 587 630 632 742 632 773 c 0
 632 814 578 846 564 864 c 0
 535 902 282 1314 237 1411 c 1
 242 1411 l 2
 280 1411 314 1420 342 1420 c 0
 367 1420 393 1425 412 1430 c 0
EndSplineSet
EndChar

StartChar: t
Encoding: 116 116 412
Width: 702
VWidth: 0
Flags: HW
PickledData: "(dp1
S'lstem'
p2
I145
sS'com.fontlab.hintData'
p3
(dp4
S'vhints'
p5
((dp6
S'position'
p7
I283
sS'width'
p8
I100
s(dp9
g7
I339
sg8
I112
stp10
sS'hhints'
p11
((dp12
g7
I1237
sg8
I104
s(dp13
g7
I1255
sg8
I105
stp14
ss."
HStem: 1237 104<405.5 497> 1255 105
VStem: 283 100 339 112<164 201.5>
AnchorPoint: "bot" 392 0 basechar 0
AnchorPoint: "top" 347 1365 basechar 0
LayerCount: 2
Fore
SplineSet
339 190 m 0
 339 213 341 237 342 260 c 1
 330 299 285 1154 283 1255 c 1
 241 1256 109 1255 109 1316 c 0
 109 1344 151 1360 174 1360 c 0
 267 1360 359 1341 452 1341 c 0
 462 1341 473 1342 485 1342 c 0
 517 1342 549 1336 549 1293 c 0
 549 1257 513 1237 481 1237 c 0
 449 1237 418 1247 387 1251 c 1
 386 1245 383 1237 383 1230 c 0
 383 841 451 456 451 67 c 0
 451 34 414 6 381 6 c 1
 343 33 l 1
 343 85 339 138 339 190 c 0
EndSplineSet
EndChar

StartChar: tbar
Encoding: 359 359 413
Width: 720
VWidth: 0
Flags: HW
PickledData: "(dp1
S'lstem'
p2
I0
sS'com.fontlab.hintData'
p3
(dp4
S'vhints'
p5
((dp6
S'position'
p7
I283
sS'width'
p8
I100
s(dp9
g7
I339
sg8
I112
stp10
sS'hhints'
p11
((dp12
g7
I656
sg8
I126
s(dp13
g7
I669
sg8
I129
s(dp14
g7
I1237
sg8
I104
s(dp15
g7
I1255
sg8
I105
stp16
ss."
HStem: 656 126 669 129 1237 104<405.5 497> 1255 105
VStem: 283 100 339 112<164 167.5 50.5 201.5>
LayerCount: 2
Fore
SplineSet
339 190 m 0
 339 213 341 237 342 260 c 1
 337 277 325 457 313 660 c 1
 269 657 232 656 216 656 c 0
 183 656 149 680 149 715 c 0
 149 750 223 770 306 782 c 1
 294 997 284 1208 283 1255 c 1
 241 1256 109 1255 109 1316 c 0
 109 1344 151 1360 174 1360 c 0
 267 1360 359 1341 452 1341 c 0
 462 1341 473 1342 485 1342 c 0
 517 1342 549 1336 549 1293 c 0
 549 1257 513 1237 481 1237 c 0
 449 1237 418 1247 387 1251 c 1
 386 1245 383 1237 383 1230 c 0
 383 1084 393 938 405 793 c 1
 459 797 504 798 523 798 c 0
 556 798 591 775 591 739 c 0
 591 701 505 680 415 669 c 1
 433 469 451 268 451 67 c 0
 451 34 414 6 381 6 c 1
 343 33 l 1
 343 85 339 138 339 190 c 0
EndSplineSet
EndChar

StartChar: thorn
Encoding: 254 254 416
Width: 756
VWidth: 0
Flags: HW
PickledData: "(dp1
S'com.fontlab.hintData'
p2
(dp3
S'vhints'
p4
((dp5
S'position'
p6
I184
sS'width'
p7
I117
s(dp8
g6
I206
sg7
I117
s(dp9
g6
I457
sg7
I106
stp10
sS'hhints'
p11
((dp12
g6
I-11
sg7
I21
s(dp13
g6
I1528
sg7
I20
stp14
ss."
HStem: -11 21<237 280.5> 1528 20<213.5 264>
VStem: 184 117<991.5 1245.5> 206 117<51.5 140.5 51.5 245> 457 106<769 913>
LayerCount: 2
Fore
SplineSet
184 1178 m 2
 182 1487 l 2
 182 1522 194 1548 233 1548 c 0
 295 1548 308 1463 308 1380 c 0
 308 1318 301 1258 301 1233 c 1
 482 1207 563 1008 563 845 c 0
 563 670 465 540 307 472 c 1
 308 339 323 207 323 74 c 0
 323 29 306 -11 255 -11 c 0
 219 -11 206 28 206 58 c 0
 206 432 184 805 184 1178 c 2
457 828 m 0
 457 998 433 1027 304 1129 c 1
 298 1129 l 1
 298 943 302 757 302 571 c 1
 396 635 457 710 457 828 c 0
EndSplineSet
EndChar

StartChar: three
Encoding: 51 51 417
Width: 774
VWidth: 0
Flags: HW
PickledData: "(dp1
S'lstem'
p2
I0
sS'com.fontlab.hintData'
p3
(dp4
S'vhints'
p5
((dp6
S'position'
p7
I413
sS'width'
p8
I102
s(dp9
g7
I491
sg8
I103
stp10
sS'hhints'
p11
((dp12
g7
I-20
sg8
I84
s(dp13
g7
I1360
sg8
I21
s(dp14
g7
I1360
sg8
I21
s(dp15
g7
I1477
sg8
I96
stp16
ss."
HStem: -20 84<353.5 423.5 331.5 481.5> 1360 21<155 212.5> 1360 21<155 212.5> 1477 96<268 352.5>
VStem: 413 102<1083 1183> 491 103<287 388>
LayerCount: 2
Fore
SplineSet
515 1124 m 0
 515 1040 466 993 423 927 c 1
 561 844 594 509 594 361 c 0
 594 213 581 -20 382 -20 c 0
 325 -20 231 5 231 76 c 0
 231 101 233 110 265 110 c 0
 307 110 297 64 366 64 c 0
 481 64 491 207 491 294 c 0
 491 482 489 694 366 849 c 1
 360 847 353 847 345 847 c 0
 315 847 282 859 282 889 c 0
 283 950 413 1016 413 1150 c 0
 413 1216 399 1477 306 1477 c 0
 230 1477 254 1360 171 1360 c 0
 139 1360 115 1387 110 1416 c 1
 144 1501 213 1573 310 1573 c 0
 481 1573 515 1292 515 1124 c 0
EndSplineSet
EndChar

StartChar: tilde
Encoding: 732 732 420
Width: 828
VWidth: 0
Flags: HW
PickledData: "(dp1
S'lstem'
p2
I0
sS'com.fontlab.hintData'
p3
(dp4
S'vhints'
p5
((dp6
S'position'
p7
I174
sS'width'
p8
I477
stp9
sS'hhints'
p10
((dp11
g7
I1038
sg8
I103
s(dp12
g7
I1125
sg8
I99
stp13
ss."
HStem: 1038 103 1125 99
VStem: 174 477
AnchorPoint: "top" 433 1190 mark 0
LayerCount: 2
Fore
SplineSet
603 1554 m 0
 650 1554 670 1525 670 1501 c 0
 670 1430 609 1369 538 1369 c 0
 379 1369 401 1456 320 1456 c 1
 272 1438 321 1396 267 1377 c 1
 230 1377 193 1394 193 1436 c 0
 193 1498 246 1555 341 1555 c 0
 390 1555 472 1472 514 1472 c 0
 573 1472 543 1554 603 1554 c 0
EndSplineSet
EndChar

StartChar: trademark
Encoding: 8482 8482 421
Width: 1098
VWidth: 0
Flags: HW
PickledData: "(dp1
S'lstem'
p2
I0
sS'com.fontlab.hintData'
p3
(dp4
S'vhints'
p5
((dp6
S'position'
p7
I195
sS'width'
p8
I106
s(dp9
g7
I434
sg8
I125
s(dp10
g7
I809
sg8
I112
s(dp11
g7
I935
sg8
I1
stp12
sS'hhints'
p13
((dp14
g7
I1475
sg8
I120
s(dp15
g7
I1475
sg8
I99
stp16
ss."
HStem: 1475 120 1475 99<44 121.5>
VStem: 195 106<1129.5 1388.5> 434 125<674 827> 809 112 935 1<786 793>
LayerCount: 2
Fore
SplineSet
205 787 m 2
 205 924 195 1061 195 1198 c 0
 195 1266 201 1332 201 1400 c 0
 201 1428 200 1456 197 1484 c 1
 179 1482 140 1475 103 1475 c 0
 61 1475 21 1484 21 1520 c 2
 21 1533 l 1
 44 1574 l 1
 149 1583 254 1595 359 1595 c 0
 381 1595 402 1591 424 1591 c 1
 463 1552 l 1
 463 1547 l 2
 466 1574 511 1616 538 1616 c 0
 565 1616 583 1594 599 1575 c 1
 596 1565 595 1554 595 1542 c 0
 595 1433 681 1229 694 1129 c 1
 741 1259 777 1393 807 1528 c 0
 818 1576 823 1639 887 1639 c 0
 916 1639 943 1617 943 1587 c 0
 943 1442 921 1298 921 1153 c 0
 921 1031 935 908 935 786 c 1
 936 793 l 1
 936 785 l 2
 936 728 934 625 859 625 c 0
 830 625 805 642 805 673 c 0
 805 752 817 829 817 908 c 0
 817 985 811 1062 809 1139 c 1
 797 1102 778 1077 778 1036 c 1
 773 1027 l 1
 769 981 747 845 685 845 c 0
 597 845 572 1174 551 1254 c 1
 547 1168 547 1082 547 996 c 0
 547 928 559 861 559 793 c 0
 559 742 557 621 482 621 c 0
 443 621 434 658 434 690 c 0
 434 764 447 836 447 910 c 0
 447 1002 445 1095 445 1189 c 0
 445 1303 448 1417 460 1529 c 1
 450 1486 400 1485 364 1485 c 2
 306 1487 l 1
 302 1448 301 1408 301 1369 c 0
 301 1206 314 1044 314 881 c 0
 314 827 313 773 309 719 c 0
 311 712 317 698 317 691 c 0
 317 654 278 637 248 629 c 1
 194 657 l 1
 204 688 205 723 205 757 c 2
 205 787 l 2
EndSplineSet
EndChar

StartChar: two
Encoding: 50 50 422
Width: 774
VWidth: 0
Flags: HW
PickledData: "(dp1
S'lstem'
p2
I0
sS'com.fontlab.hintData'
p3
(dp4
S'vhints'
p5
((dp6
S'position'
p7
I494
sS'width'
p8
I98
stp9
sS'hhints'
p10
((dp11
g7
I-15
sg8
I21
s(dp12
g7
I4
sg8
I103
stp13
ss."
HStem: -15 21<207 277> 4 103<485 521 482 537>
VStem: 494 98<1061 1270.5>
LayerCount: 2
Fore
SplineSet
279 86 m 1
 356 99 443 107 521 107 c 1
 546 89 564 70 564 49 c 0
 564 35 556 20 537 4 c 1
 433 4 329 -15 225 -15 c 0
 189 -15 150 7 150 47 c 2
 150 55 l 1
 208 125 226 218 263 299 c 0
 405 614 494 886 494 1236 c 0
 494 1305 490 1492 396 1500 c 1
 340 1470 366 1327 290 1327 c 0
 252 1327 240 1357 240 1390 c 0
 240 1465 280 1586 372 1586 c 1
 372 1587 l 1
 591 1587 592 1357 592 1201 c 0
 592 772 386 409 279 86 c 1
EndSplineSet
EndChar

StartChar: u
Encoding: 117 117 424
Width: 882
VWidth: 0
Flags: HW
PickledData: "(dp1
S'lstem'
p2
I0
sS'com.fontlab.hintData'
p3
(dp4
S'vhints'
p5
((dp6
S'position'
p7
I196
sS'width'
p8
I92
s(dp9
g7
I593
sg8
I118
stp10
sS'hhints'
p11
((dp12
g7
I-31
sg8
I122
stp13
ss."
HStem: -31 122<389.5 515.5 389.5 558.5>
VStem: 196 92 593 118<1255.5 1307 1307 1313>
AnchorPoint: "ogonek" 446 0 basechar 0
AnchorPoint: "top" 447 1365 basechar 0
LayerCount: 2
Fore
SplineSet
426 -31 m 0
 221 -31 196 257 196 473 c 1
 191 693 191 821 191 1013 c 0
 191 1114 185 1203 182 1306 c 1
 196 1337 211 1349 226 1349 c 0
 259 1349 288 1287 288 1232 c 2
 288 675 l 2
 288 530 317 386 317 241 c 0
 317 177 332 91 447 91 c 0
 584 91 593 862 593 1192 c 2
 593 1307 l 2
 593 1319 592 1330 592 1341 c 0
 592 1369 599 1389 648 1389 c 0
 708 1389 711 1336 711 1290 c 0
 711 1221 697 1151 697 1084 c 0
 697 1027 688 970 688 913 c 0
 688 901 690 890 690 878 c 0
 690 676 691 -31 426 -31 c 0
EndSplineSet
EndChar

StartChar: underscore
Encoding: 95 95 435
Width: 1098
VWidth: 0
Flags: HW
PickledData: "(dp1
S'lstem'
p2
I0
sS'com.fontlab.hintData'
p3
(dp4
S'hhints'
p5
((dp6
S'position'
p7
I-94
sS'width'
p8
I94
stp9
ss."
HStem: -94 94<311 438.5>
LayerCount: 2
Fore
SplineSet
1060 2 m 0
 1095 2 1110 -16 1110 -36 c 0
 1110 -57 1088 -82 1054 -82 c 0
 1024 -82 993 -82 965 -84 c 0
 754 -84 544 -94 333 -94 c 0
 289 -94 254 -71 254 -50 c 0
 254 -22 276 0 304 0 c 2
 963 0 l 2
 995 0 1028 2 1060 2 c 0
EndSplineSet
EndChar

StartChar: uni0307
Encoding: 775 775 446
Width: 612
VWidth: 0
Flags: HW
PickledData: "(dp1
S'lstem'
p2
I0
sS'com.fontlab.hintData'
p3
(dp4
S'vhints'
p5
((dp6
S'position'
p7
I254
sS'width'
p8
I150
stp9
sS'hhints'
p10
((dp11
g7
I1390
sg8
I152
stp12
ss."
HStem: 1390 152
VStem: 254 150
AnchorPoint: "top" 309 912 mark 0
LayerCount: 2
Fore
SplineSet
244 1193 m 0
 244 1234 280 1272 321 1272 c 0
 360 1272 394 1233 394 1195 c 0
 394 1148 358 1120 313 1120 c 0
 275 1120 244 1156 244 1193 c 0
EndSplineSet
EndChar

StartChar: uni030F
Encoding: 783 783 447
Width: 882
VWidth: 0
Flags: HW
PickledData: "(dp1
S'lstem'
p2
I0
sS'com.fontlab.hintData'
p3
(dp4
S'vhints'
p5
((dp6
S'position'
p7
I150
sS'width'
p8
I592
stp9
sS'hhints'
p10
((dp11
g7
I-8
sg8
I398
stp12
ss."
HStem: -8 398
VStem: 150 592
AnchorPoint: "top" 373 1190 mark 0
LayerCount: 2
Fore
SplineSet
256 1671 m 0
 256 1687 285 1700 308 1700 c 0
 336 1700 526 1406 530 1353 c 1
 517 1332 l 1
 470 1377 256 1594 256 1671 c 0
272 1348 m 1
 209 1407 -21 1619 -43 1644 c 1
 -62 1678 l 1
 -55 1704 -31 1730 -2 1730 c 0
 34 1730 292 1416 292 1372 c 0
 292 1359 286 1348 272 1348 c 1
EndSplineSet
EndChar

StartChar: uni0311
Encoding: 785 785 448
Width: 738
VWidth: 0
Flags: HW
PickledData: "(dp1
S'lstem'
p2
I0
sS'com.fontlab.hintData'
p3
(dp4
S'vhints'
p5
((dp6
S'position'
p7
I427
sS'width'
p8
I112
stp9
sS'hhints'
p10
((dp11
g7
I1047
sg8
I95
stp12
ss."
HStem: 1047 95
VStem: 427 112
AnchorPoint: "top" 363 1190 mark 0
LayerCount: 2
Fore
SplineSet
531 1452 m 0
 533 1445 540 1425 540 1419 c 0
 540 1390 514 1367 486 1367 c 0
 435 1367 428 1401 428 1444 c 0
 428 1466 408 1538 381 1538 c 2
 338 1538 l 1
 282 1499 300 1358 229 1358 c 1
 191 1390 l 1
 191 1501 230 1633 364 1633 c 0
 473 1633 499 1555 536 1469 c 1
 533 1464 533 1458 531 1452 c 0
EndSplineSet
EndChar

StartChar: uni0312
Encoding: 786 786 449
Width: 600
VWidth: 0
Flags: HW
AnchorPoint: "top" 298 872 mark 0
LayerCount: 2
Fore
SplineSet
463 1410 m 0
 467 1413 472 1415 476 1415 c 0
 477 1415 479 1415 480 1415 c 0
 489 1415 497 1409 497 1399 c 0
 497 1382 384 1159 314 1046 c 0
 312 1043 309 1042 305 1042 c 0
 289 1042 258 1061 258 1087 c 0
 258 1189 419 1378 463 1410 c 0
EndSplineSet
EndChar

StartChar: uni0326
Encoding: 806 806 450
Width: 684
VWidth: 0
Flags: HW
PickledData: "(dp1
S'lstem'
p2
I0
sS'com.fontlab.hintData'
p3
(dp4
S'vhints'
p5
((dp6
S'position'
p7
I254
sS'width'
p8
I241
stp9
sS'hhints'
p10
((dp11
g7
I-550
sg8
I376
stp12
ss."
HStem: -550 376
VStem: 254 241
AnchorPoint: "bot" 385 0 mark 0
LayerCount: 2
Fore
SplineSet
220 -538 m 0
 216 -541 211 -543 207 -543 c 0
 206 -543 204 -543 203 -543 c 0
 194 -543 186 -537 186 -527 c 0
 186 -510 299 -287 369 -174 c 0
 371 -171 374 -170 378 -170 c 0
 394 -170 425 -189 425 -215 c 0
 425 -317 264 -506 220 -538 c 0
EndSplineSet
EndChar

StartChar: uni0358
Encoding: 856 856 451
Width: 600
VWidth: 0
Flags: HW
AnchorPoint: "top" 259 912 mark 0
LayerCount: 2
Fore
SplineSet
203 1202 m 0
 203 1229 229 1257 256 1257 c 0
 281 1257 305 1227 305 1204 c 0
 305 1167 281 1153 248 1153 c 0
 223 1153 203 1179 203 1202 c 0
EndSplineSet
EndChar

StartChar: uni2015
Encoding: 8213 8213 452
Width: 4096
VWidth: 0
Flags: HW
PickledData: "(dp1
S'lstem'
p2
I0
sS'com.fontlab.hintData'
p3
(dp4
S'hhints'
p5
((dp6
S'position'
p7
I656
sS'width'
p8
I142
stp9
ss."
HStem: 656 142<174 3920 174 3920>
LayerCount: 2
Fore
SplineSet
174 656 m 1
 174 798 l 1
 3920 798 l 1
 3920 656 l 1
 174 656 l 1
EndSplineSet
EndChar

StartChar: v
Encoding: 118 118 457
Width: 864
VWidth: 0
Flags: HW
PickledData: "(dp1
S'lstem'
p2
I0
sS'com.fontlab.hintData'
p3
(dp4
S'vhints'
p5
((dp6
S'position'
p7
I637
sS'width'
p8
I93
stp9
sS'hhints'
p10
((dp11
g7
I-24
sg8
I21
s(dp12
g7
I1346
sg8
I20
s(dp13
g7
I1346
sg8
I20
stp14
ss."
HStem: -24 21<410 498> 1346 20<171.5 252.5> 1346 20<171.5 252.5>
VStem: 637 93<1260.5 1396>
AnchorPoint: "top" 447 1365 basechar 0
LayerCount: 2
Fore
SplineSet
449 247 m 1
 526 630 574 1019 637 1396 c 1
 683 1396 l 2
 706 1396 730 1377 730 1351 c 0
 730 1170 650 998 621 821 c 0
 594 658 586 -24 410 -24 c 1
 372 7 l 1
 372 377 282 754 190 1110 c 0
 177 1161 134 1274 134 1319 c 0
 134 1345 159 1366 184 1366 c 0
 321 1366 426 404 449 247 c 1
EndSplineSet
EndChar

StartChar: w
Encoding: 119 119 458
Width: 990
VWidth: 0
Flags: HW
PickledData: "(dp1
S'lstem'
p2
I0
sS'com.fontlab.hintData'
p3
(dp4
S'vhints'
p5
((dp6
S'position'
p7
I126
sS'width'
p8
I125
s(dp9
g7
I429
sg8
I116
s(dp10
g7
I610
sg8
I138
s(dp11
g7
I705
sg8
I106
s(dp12
g7
I736
sg8
I108
stp13
sS'hhints'
p14
((dp15
g7
I-43
sg8
I45
s(dp16
g7
I1357
sg8
I20
s(dp17
g7
I1357
sg8
I20
stp18
ss."
HStem: -43 45 1357 20<769.5 806.5> 1357 20<769.5 806.5>
VStem: 126 125 429 116<1143 1160 1143 1186> 610 138<75 102 102 139 75 198.5> 705 106<871 896 896 1035.5> 736 108<1289 1292>
AnchorPoint: "top" 487 1365 basechar 0
LayerCount: 2
Fore
SplineSet
748 139 m 2
 748 102 l 2
 748 48 742 -19 679 -19 c 0
 631 -19 610 19 610 57 c 0
 610 340 548 648 504 942 c 1
 500 903 497 865 497 826 c 0
 497 700 448 -43 340 -43 c 0
 194 -43 193 1142 126 1293 c 1
 137 1316 160 1329 185 1329 c 0
 245 1329 251 1238 251 1195 c 0
 251 888 331 589 342 283 c 1
 385 573 429 884 429 1186 c 1
 484 1210 l 1
 514 1210 545 1194 545 1160 c 2
 545 1143 l 1
 626 871 626 586 667 307 c 1
 697 531 705 758 705 984 c 0
 705 1087 736 1189 736 1292 c 1
 731 1305 729 1316 729 1327 c 0
 729 1357 747 1377 792 1377 c 0
 821 1377 844 1360 844 1329 c 2
 844 1298 l 2
 844 1280 843 1262 839 1245 c 1
 839 1234 l 1
 819 1173 811 1109 811 1046 c 2
 811 896 l 2
 811 644 748 371 748 139 c 2
EndSplineSet
EndChar

StartChar: x
Encoding: 120 120 463
Width: 738
VWidth: 0
Flags: HW
PickledData: "(dp1
S'lstem'
p2
I0
sS'com.fontlab.hintData'
p3
(dp4
S'vhints'
p5
((dp6
S'position'
p7
I196
sS'width'
p8
I115
s(dp9
g7
I312
sg8
I103
s(dp10
g7
I399
sg8
I94
stp11
sS'hhints'
p12
((dp13
g7
I-7
sg8
I21
s(dp14
g7
I1337
sg8
I20
s(dp15
g7
I1337
sg8
I20
stp16
ss."
HStem: -7 21<244.5 279> 1337 20<490 490> 1337 20<490 490>
VStem: 196 115<51 73.5 51 146.5> 312 103<560.5 693.5 560.5 696.5> 399 94<1113.5 1133 1109 1169.5>
AnchorPoint: "top" 367 1365 basechar 0
LayerCount: 2
Fore
SplineSet
365 894 m 1
 380 981 399 1069 399 1158 c 0
 399 1181 398 1204 398 1225 c 0
 398 1286 408 1335 490 1357 c 1
 528 1309 l 1
 493 1258 493 1193 493 1133 c 2
 493 1109 l 1
 461 1021 415 741 415 646 c 0
 415 475 563 175 563 54 c 0
 563 24 536 3 508 3 c 0
 424 3 379 353 362 433 c 1
 342 320 344 203 310 93 c 0
 311 86 311 78 311 69 c 0
 311 33 300 -7 258 -7 c 0
 231 -7 196 8 196 40 c 0
 196 253 312 447 312 660 c 0
 312 733 218 1172 185 1219 c 1
 185 1241 l 1
 172 1254 166 1274 166 1292 c 0
 166 1322 203 1334 227 1334 c 0
 301 1334 347 979 365 894 c 1
EndSplineSet
EndChar

StartChar: y
Encoding: 121 121 464
Width: 774
VWidth: 0
Flags: HW
PickledData: "(dp1
S'lstem'
p2
I0
sS'com.fontlab.hintData'
p3
(dp4
S'vhints'
p5
((dp6
S'position'
p7
I366
sS'width'
p8
I125
s(dp9
g7
I390
sg8
I101
stp10
sS'hhints'
p11
((dp12
g7
I-28
sg8
I21
s(dp13
g7
I1342
sg8
I20
s(dp14
g7
I1342
sg8
I20
stp15
ss."
HStem: -28 21<410.5 455> 1342 20<515 572> 1342 20<515 572>
VStem: 366 125<664 717 717 717> 390 101<332 414>
AnchorPoint: "top" 407 1365 basechar 0
LayerCount: 2
Fore
SplineSet
491 109 m 2
 491 53 486 -28 424 -28 c 0
 397 -28 377 -6 367 17 c 1
 390 62 390 300 390 364 c 0
 390 464 370 564 366 664 c 1
 366 717 l 1
 326 825 166 1202 166 1288 c 2
 166 1299 l 1
 212 1333 l 1
 291 1331 374 951 400 877 c 1
 430 954 470 1362 560 1362 c 0
 584 1362 610 1346 610 1319 c 0
 610 1118 495 932 491 726 c 1
 491 109 l 2
EndSplineSet
EndChar

StartChar: yen
Encoding: 165 165 468
Width: 990
VWidth: 0
Flags: HW
PickledData: "(dp1
S'com.fontlab.hintData'
p2
(dp3
S'vhints'
p4
((dp5
S'position'
p6
I457
sS'width'
p7
I117
stp8
sS'hhints'
p9
((dp10
g6
I-8
sg7
I21
s(dp11
g6
I762
sg7
I113
s(dp12
g6
I776
sg7
I119
s(dp13
g6
I948
sg7
I108
stp14
ss."
HStem: -8 21<456 500.5> 762 113<168 251 168 237> 776 119<691 735> 948 108<198 335.5>
VStem: 457 117
LayerCount: 2
Fore
SplineSet
53 1764 m 1
 56 1759 l 1
 72 1766 89 1774 106 1774 c 0
 205 1774 450 1293 507 1207 c 1
 544 1302 663 1832 760 1832 c 0
 790 1832 818 1809 818 1778 c 1
 816 1768 l 1
 755 1589 691 1422 644 1238 c 0
 628 1176 595 1121 580 1059 c 1
 605 1056 l 2
 633 1056 699 1066 760 1066 c 0
 827 1066 887 1054 887 1005 c 0
 887 955 815 948 774 948 c 2
 765 948 l 1
 574 950 l 1
 574 887 l 1
 599 887 660 895 722 895 c 0
 802 895 882 881 882 820 c 0
 882 789 851 766 822 766 c 2
 714 766 l 1
 735 776 l 1
 569 776 l 1
 568 564 538 354 538 142 c 0
 538 128 539 111 539 94 c 0
 539 45 531 -8 470 -8 c 0
 442 -8 405 6 405 40 c 2
 405 45 l 1
 432 112 448 663 448 773 c 1
 441 773 l 2
 378 773 314 762 251 762 c 2
 237 762 l 1
 206 763 l 1
 182 776 163 798 152 823 c 1
 168 875 l 1
 264 875 361 878 457 883 c 1
 459 907 459 930 459 954 c 1
 458 958 l 1
 431 957 366 948 305 948 c 0
 236 948 173 960 173 1010 c 2
 173 1017 l 1
 198 1056 l 1
 251 1056 303 1052 356 1052 c 0
 390 1052 424 1054 458 1059 c 1
 458 1071 l 1
 278 1251 246 1535 53 1705 c 1
 53 1764 l 1
EndSplineSet
EndChar

StartChar: z
Encoding: 122 122 472
Width: 738
VWidth: 0
Flags: HW
PickledData: "(dp1
S'lstem'
p2
I0
sS'com.fontlab.hintData'
p3
(dp4
S'vhints'
p5
((dp6
S'position'
p7
I166
sS'width'
p8
I409
stp9
sS'hhints'
p10
((dp11
g7
I-4
sg8
I21
s(dp12
g7
I18
sg8
I87
s(dp13
g7
I1244
sg8
I115
stp14
ss."
HStem: -4 21<207.5 234.5> 18 87<282 314> 1244 115<287 493.5>
VStem: 166 409
AnchorPoint: "top" 447 1365 basechar 0
LayerCount: 2
Fore
SplineSet
469 1256 m 1
 413 1254 358 1244 302 1244 c 0
 272 1244 249 1272 249 1301 c 0
 249 1356 409 1359 474 1359 c 0
 513 1359 575 1355 575 1302 c 0
 575 1172 498 1059 478 933 c 0
 433 653 314 264 282 105 c 1
 317 105 l 2
 346 105 374 111 403 111 c 1
 403 112 l 1
 438 112 486 109 486 62 c 0
 486 25 445 12 415 12 c 0
 375 12 334 18 294 18 c 0
 267 18 248 -4 221 -4 c 0
 194 -4 166 15 166 42 c 0
 166 339 373 878 469 1256 c 1
EndSplineSet
EndChar

StartChar: zero
Encoding: 48 48 476
Width: 828
VWidth: 0
Flags: HW
PickledData: "(dp1
S'lstem'
p2
I0
sS'com.fontlab.hintData'
p3
(dp4
S'vhints'
p5
((dp6
S'position'
p7
I176
sS'width'
p8
I98
s(dp9
g7
I549
sg8
I95
stp10
sS'hhints'
p11
((dp12
g7
I7
sg8
I93
s(dp13
g7
I1543
sg8
I20
stp14
ss."
HStem: 7 93<377 486.5 377 530> 1543 20<279.5 495>
VStem: 176 98<1222 1423> 549 95<532.5 659.5 447 708>
LayerCount: 2
Fore
SplineSet
176 1222 m 2
 176 1408 209 1563 350 1563 c 0
 640 1563 644 798 644 521 c 0
 644 373 636 7 424 7 c 0
 185 7 176 841 176 1158 c 2
 176 1222 l 2
549 568 m 0
 549 848 527 1490 327 1518 c 1
 282 1481 274 1451 274 1395 c 0
 274 1260 282 1125 282 990 c 0
 282 923 303 857 303 790 c 0
 303 685 311 100 443 100 c 0
 530 100 549 497 549 568 c 0
EndSplineSet
EndChar

